<svg width="2246" height="2254" viewBox="0 0 2246 2254" fill="none" xmlns="http://www.w3.org/2000/svg">
<path d="M1604.02 76.2587C1272.85 -157 1096 231 689.122 125.522C282.245 20.0446 -49.4759 419.049 46.0395 812.84C63.0674 883.043 66.4231 955.867 55.9234 1027.34L8.57044 1349.67C-71.3372 1893.6 420.108 2349.71 958.068 2236.37C1061.62 2214.55 1169.3 2214.4 1272.85 2236.21C1763.12 2339.51 2205.07 1952.33 2191.63 1472.47C2189.37 1391.55 2183.46 1310.16 2193.02 1229.77L2239.48 838.91C2249.04 758.523 2250.65 675.381 2219.98 600.46C2123.87 365.599 1891.82 278.972 1604.02 76.2587Z" fill="url(#paint0_linear_41_16)"/>
<defs>
<linearGradient id="paint0_linear_41_16" x1="571.999" y1="419.001" x2="1528" y2="2207" gradientUnits="userSpaceOnUse">
<stop offset="0.0316254" stop-color="#E1EBCE" stop-opacity="0.8"/>
<stop offset="0.359375" stop-color="#6ED9FE" stop-opacity="0.8"/>
<stop offset="1" stop-color="#E49595" stop-opacity="0.8"/>
</linearGradient>
</defs>
</svg>
