<svg xmlns="http://www.w3.org/2000/svg" viewBox="0 0 506 264.4"><style>
@keyframes tm2klg8s3ifaiqyxf7ue6z3i_o { 0% { opacity: 0; } 72.2% { opacity: 0; animation-timing-function: cubic-bezier(0,0,.6,1); } 100% { opacity: 1; } }
@keyframes kicbimw77m71pou0qxbcr14a_o { 0% { opacity: 0; } 66.65% { opacity: 0; animation-timing-function: cubic-bezier(0,0,.6,1); } 94.4% { opacity: 1; } 100% { opacity: 1; } }
@keyframes nyxmm359tbx2pmj5co670jl5_o { 0% { opacity: 0; } 61.1% { opacity: 0; animation-timing-function: cubic-bezier(0,0,.6,1); } 88.9% { opacity: 1; } 100% { opacity: 1; } }
@keyframes g6fk9qepp82a1bkxekr3ke7a_o { 0% { opacity: 0; } 55.55% { opacity: 0; animation-timing-function: cubic-bezier(0,0,.6,1); } 83.3% { opacity: 1; } 100% { opacity: 1; } }
@keyframes sv7pjxgz9urip41pssvv6d6i_o { 0% { opacity: 0; } 50% { opacity: 0; animation-timing-function: cubic-bezier(0,0,.6,1); } 77.75% { opacity: 1; } 100% { opacity: 1; } }
@keyframes eiw4tlq89nwe4j1kgk03lrlu_o { 0% { opacity: 0; } 44.4% { opacity: 0; animation-timing-function: cubic-bezier(0,0,.6,1); } 72.2% { opacity: 1; } 100% { opacity: 1; } }
@keyframes m51x50rl6jdm7ru8ohyujqdq_o { 0% { opacity: 0; } 38.85% { opacity: 0; animation-timing-function: cubic-bezier(0,0,.6,1); } 66.65% { opacity: 1; } 100% { opacity: 1; } }
@keyframes yts0lumokmbwu8lj8lx2pfu3_o { 0% { opacity: 0; } 33.3% { opacity: 0; animation-timing-function: cubic-bezier(0,0,.6,1); } 61.1% { opacity: 1; } 100% { opacity: 1; } }
@keyframes f3u3m0og0uwuqxue1ffbtvor_o { 0% { opacity: 0; } 27.75% { opacity: 0; animation-timing-function: cubic-bezier(0,0,.6,1); } 55.55% { opacity: 1; } 100% { opacity: 1; } }
@keyframes kcpesrv9o4s8ky5fqvknxxhr_o { 0% { opacity: 0; } 22.2% { opacity: 0; animation-timing-function: cubic-bezier(0,0,.6,1); } 50% { opacity: 1; } 100% { opacity: 1; } }
@keyframes l3v3ajzcabeujlga0womocfm_o { 0% { opacity: 0; } 16.65% { opacity: 0; animation-timing-function: cubic-bezier(0,0,.6,1); } 44.4% { opacity: 1; } 100% { opacity: 1; } }
@keyframes tkkf8sc7s0msok9jafkzch4m_o { 0% { opacity: 0; } 11.1% { opacity: 0; animation-timing-function: cubic-bezier(0,0,.6,1); } 38.85% { opacity: 1; } 100% { opacity: 1; } }
@keyframes bn6wo5besmmdxfjou8qunwar_o { 0% { opacity: 0; } 5.55% { opacity: 0; animation-timing-function: cubic-bezier(0,0,.6,1); } 33.3% { opacity: 1; } 100% { opacity: 1; } }
@keyframes zq0zsdrarsyc70zwhdf77rc8_o { 0% { opacity: 0; animation-timing-function: cubic-bezier(0,0,.6,1); } 27.75% { opacity: 1; } 100% { opacity: 1; } }
</style><g data-name="Layer 2"><g data-name="Layer 1"><path class="cls-1" d="M368 263.4c-7.2-60.5-31-423.3-92.4-179.7c-11.6 46.2-33.6 46.2-45.3 0c-61.3-243.6-85.1 119.2-92.3 179.7" stroke="#2daaf9" stroke-miterlimit="10" fill="none" stroke-width="1.5" opacity="0" style="animation: 2s linear both tm2klg8s3ifaiqyxf7ue6z3i_o;"/><path class="cls-1" d="M378.6 263.4c-7.9-57.7-33.9-403.3-100.9-170.7c-12.7 44.1-36.8 44.1-49.5 0c-66.9-232.6-93 113-100.8 170.7" stroke="#2daaf9" stroke-miterlimit="10" fill="none" stroke-width="1.5" opacity="0" style="animation: 2s linear both kicbimw77m71pou0qxbcr14a_o;"/><path class="cls-1" d="M389.1 263.5c-8.5-55-36.7-383.5-109.3-161.8c-13.8 42-39.9 42-53.6 0c-72.6-221.7-100.9 106.8-109.4 161.8" stroke="#2daaf9" stroke-miterlimit="10" fill="none" stroke-width="1.5" opacity="0" style="animation: 2s linear both nyxmm359tbx2pmj5co670jl5_o;"/><path class="cls-1" d="M399.7 263.6c-9.1-52.4-39.6-363.6-117.8-152.9c-14.8 40-43 40-57.8 0c-78.2-210.7-108.7 100.5-117.9 152.8" stroke="#2daaf9" stroke-miterlimit="10" fill="none" stroke-width="1.5" opacity="0" style="animation: 2s linear both g6fk9qepp82a1bkxekr3ke7a_o;"/><path class="cls-1" d="M410.3 263.6c-9.8-49.6-42.5-343.7-126.3-143.9c-15.9 37.9-46.1 37.9-62 0c-83.9-199.8-116.5 94.3-126.3 143.9" stroke="#2daaf9" stroke-miterlimit="10" fill="none" stroke-width="1.5" opacity="0" style="animation: 2s linear both sv7pjxgz9urip41pssvv6d6i_o;"/><path class="cls-1" d="M420.9 263.7c-10.5-46.9-45.3-323.8-134.9-135c-17 35.8-49.1 35.8-66.1 0c-89.5-188.8-124.3 88.1-134.8 135" stroke="#2daaf9" stroke-miterlimit="10" fill="none" stroke-width="1.5" opacity="0" style="animation: 2s linear both eiw4tlq89nwe4j1kgk03lrlu_o;"/><path class="cls-1" d="M431.5 263.7c-11.2-44.1-48.2-303.9-143.4-126c-18 33.7-52.2 33.7-70.3 0c-95.1-177.9-132.2 81.9-143.3 126" stroke="#2daaf9" stroke-miterlimit="10" fill="none" stroke-width="1.5" opacity="0" style="animation: 2s linear both m51x50rl6jdm7ru8ohyujqdq_o;"/><path class="cls-1" d="M442.1 263.8c-11.9-41.4-51.1-284-151.9-117.1c-19.1 31.6-55.3 31.6-74.5 0c-100.7-167-140 75.7-151.8 117.1" stroke="#2daaf9" stroke-miterlimit="10" fill="none" stroke-width="1.5" opacity="0" style="animation: 2s linear both yts0lumokmbwu8lj8lx2pfu3_o;"/><path class="cls-1" d="M452.6 263.9c-12.4-38.7-53.9-264.2-160.3-108.2c-20.2 29.6-58.5 29.6-78.6 0c-106.5-156-147.9 69.5-160.4 108.2" stroke="#2daaf9" stroke-miterlimit="10" fill="none" stroke-width="1.5" opacity="0" style="animation: 2s linear both f3u3m0og0uwuqxue1ffbtvor_o;"/><path class="cls-1" d="M463.2 263.9c-13.1-36-56.7-244.3-168.8-99.2c-21.3 27.5-61.6 27.5-82.8 0c-112.1-145.1-155.7 63.2-168.8 99.2" stroke="#2daaf9" stroke-miterlimit="10" fill="none" stroke-width="1.5" opacity="0" style="animation: 2s linear both kcpesrv9o4s8ky5fqvknxxhr_o;"/><path class="cls-1" d="M473.8 264c-13.8-33.3-59.6-224.4-177.3-90.3c-22.4 25.4-64.7 25.4-87 0c-117.7-134.1-163.5 57-177.3 90.3" stroke="#2daaf9" stroke-miterlimit="10" fill="none" stroke-width="1.5" opacity="0" style="animation: 2s linear both l3v3ajzcabeujlga0womocfm_o;"/><path class="cls-1" d="M484.4 264.1c-14.5-30.6-62.5-204.6-185.8-81.5c-23.4 23.4-67.8 23.4-91.2 0c-123.3-123.1-171.3 50.9-185.8 81.5" stroke="#2daaf9" stroke-miterlimit="10" fill="none" stroke-width="1.5" opacity="0" style="animation: 2s linear both tkkf8sc7s0msok9jafkzch4m_o;"/><path class="cls-1" d="M495 264.1c-15.1-27.8-65.3-184.6-194.3-72.5c-24.5 21.3-70.9 21.3-95.3 0c-129.1-112.1-179.3 44.7-194.4 72.5" stroke="#2daaf9" stroke-miterlimit="10" fill="none" stroke-width="1.5" opacity="0" style="animation: 2s linear both bn6wo5besmmdxfjou8qunwar_o;"/><path class="cls-1" d="M505.5 264.2c-15.8-25.1-68.1-164.8-202.8-63.6c-25.5 19.2-74 19.2-99.5 0c-134.6-101.2-187 38.5-202.8 63.6" stroke="#2daaf9" stroke-miterlimit="10" fill="none" stroke-width="1.5" opacity="0" style="animation: 2s linear both zq0zsdrarsyc70zwhdf77rc8_o;"/></g></g></svg>