<svg width="173" height="66" viewBox="0 0 173 66" fill="none" xmlns="http://www.w3.org/2000/svg">
<path d="M169.057 48.0833L153.624 32.6458L169.057 17.2082C170.82 15.5153 171.931 13.2557 172.195 10.8255C172.328 9.38167 172.141 7.92632 171.648 6.56284C171.155 5.19937 170.368 3.96122 169.342 2.93634C168.317 1.91146 167.079 1.125 165.715 0.632803C164.352 0.14061 162.897 -0.0452364 161.453 0.0884645C159.024 0.352718 156.765 1.46401 155.072 3.22749L139.639 18.665L121.044 0.0643176L114.936 6.16529L134.103 25.3294C134.828 26.0599 135.69 26.6389 136.641 27.0327C137.591 27.4265 138.61 27.6273 139.639 27.6233C140.668 27.6273 141.687 27.4265 142.637 27.0327C143.588 26.6389 144.45 26.0599 145.175 25.3294L161.461 9.03871C161.701 8.83209 162.01 8.72387 162.327 8.73571C162.643 8.74756 162.944 8.87861 163.168 9.10259C163.391 9.32658 163.523 9.62694 163.534 9.94348C163.546 10.26 163.438 10.5693 163.231 10.8094L147.138 26.907C146.382 27.6586 145.783 28.553 145.376 29.5381C144.968 30.5233 144.761 31.5796 144.765 32.6458C144.761 33.7119 144.968 34.7682 145.376 35.7534C145.783 36.7386 146.382 37.6329 147.138 38.3846L163.231 54.4821C163.438 54.7222 163.546 55.0315 163.534 55.3481C163.523 55.6646 163.391 55.965 163.168 56.189C162.944 56.4129 162.643 56.544 162.327 56.5558C162.01 56.5677 161.701 56.4595 161.461 56.2528L145.183 39.9621C144.457 39.2311 143.593 38.6517 142.642 38.2579C141.69 37.8641 140.669 37.6636 139.639 37.6682C138.61 37.6643 137.591 37.865 136.641 38.2589C135.69 38.6527 134.828 39.2317 134.103 39.9621L114.936 59.1343L121.036 65.2353L139.639 46.6265L155.072 62.0641C156.766 63.8266 159.024 64.94 161.453 65.2111C162.897 65.3436 164.352 65.1566 165.716 64.6634C167.079 64.1702 168.317 63.383 169.342 62.3575C170.368 61.332 171.155 60.0934 171.648 58.7296C172.141 57.3658 172.328 55.9102 172.195 54.466C171.926 52.0372 170.816 49.7791 169.057 48.0833Z" fill="white"/>
<path d="M78.8477 16.3309H71.2518V48.9687H78.8477V16.3309Z" fill="white"/>
<path d="M83.4261 48.9607H98.7145C100.856 48.9607 102.977 48.5387 104.956 47.7188C106.935 46.8989 108.733 45.6971 110.248 44.1821C111.762 42.6672 112.964 40.8686 113.783 38.8892C114.603 36.9098 115.025 34.7883 115.025 32.6458C115.025 30.5033 114.603 28.3818 113.783 26.4023C112.964 24.4229 111.762 22.6244 110.248 21.1094C108.733 19.5944 106.935 18.3927 104.956 17.5728C102.977 16.7529 100.856 16.3309 98.7145 16.3309H83.4261V48.9607ZM98.7145 41.3626H91.022V23.9289H98.7145C101.026 23.9289 103.242 24.8473 104.876 26.482C106.511 28.1168 107.429 30.3339 107.429 32.6458C107.429 34.9576 106.511 37.1748 104.876 38.8095C103.242 40.4442 101.026 41.3626 98.7145 41.3626Z" fill="white"/>
<path d="M36.7242 48.9607H44.3201V23.9289H53.9115C55.2831 23.9311 56.5978 24.477 57.5677 25.4471C58.5375 26.4172 59.0833 27.7324 59.0854 29.1043V32.6055H66.6813V29.1043C66.6792 25.7165 65.3334 22.4679 62.9393 20.0716C60.5452 17.6754 57.2984 16.3271 53.9115 16.3228H36.7242V48.9607Z" fill="white"/>
<path d="M44.3201 37.9902L51.6344 45.3065C54.0553 47.666 57.3067 48.9785 60.6867 48.9607H66.6813V41.3626H60.6867C59.2408 41.3288 57.8599 40.7545 56.8163 39.7528L49.6871 32.6216L44.3201 37.9902Z" fill="white"/>
<path d="M18.9092 15.6387C15.4598 15.558 12.0471 16.3615 8.9959 17.9729C6.37142 19.3704 4.17852 21.4586 2.65404 24.0119C1.12956 26.5652 0.331448 29.4867 0.345896 32.4607C0.347007 35.3209 1.05755 38.1363 2.41385 40.6543C3.86586 43.346 6.04297 45.5767 8.69818 47.0933C11.8134 48.8341 15.3425 49.6965 18.9092 49.5885C24.5418 49.4758 28.6535 48.1397 31.7836 45.6204L32.1859 45.3146V32.6055H24.5498V41.6604L23.9946 41.8697C23.6237 42.0055 23.2448 42.1184 22.86 42.2077C21.8796 42.399 20.8816 42.4854 19.8828 42.4653C17.7063 42.4998 15.5501 42.0431 13.5744 41.1292C11.9241 40.3064 10.5321 39.0449 9.5511 37.4831C8.55035 35.9292 8.02719 34.1158 8.04641 32.2675C8.00439 30.4699 8.52176 28.7036 9.52697 27.2129C10.5102 25.76 11.8705 24.6025 13.4617 23.8646C15.2353 23.0797 17.1549 22.6792 19.0943 22.6894C20.5392 22.6881 21.9782 22.8748 23.375 23.2448C24.6642 23.5801 25.9174 24.0411 27.1166 24.6211L28.7903 25.426L32.2986 19.4538L30.5766 18.5121C26.9973 16.5915 22.9951 15.5955 18.9333 15.6146" fill="white"/>
</svg>
