<?xml version="1.0" encoding="UTF-8"?><svg id="Layer_2" xmlns="http://www.w3.org/2000/svg" viewBox="0 0 732.6 529.79"><defs><style>.cls-1{opacity:.1;}.cls-1,.cls-2{fill:#60c4e1;}.cls-3{fill:#ed2224;}.cls-4,.cls-5{fill:#fff;}.cls-6{fill:#ed1c24;}.cls-7{stroke:#fff;}.cls-7,.cls-8{fill:none;stroke-miterlimit:10;}.cls-8{stroke:#60c4e1;}.cls-9{opacity:.6;}.cls-5{opacity:.4;}</style></defs><g id="x"><g><path class="cls-1" d="M621.45,143.63c64.72,124.99,10.47,275.36-119.7,337.37-129.55,61.71-288.38,13.91-356.25-108.22C76.55,248.72,126.96,94.57,259.67,29.97s296.03-13.33,361.78,113.65Z"/><path class="cls-8" d="M621.45,143.63c64.72,124.99,10.47,275.36-119.7,337.37-129.55,61.71-288.38,13.91-356.25-108.22C76.55,248.72,126.96,94.57,259.67,29.97s296.03-13.33,361.78,113.65Z"/><path class="cls-1" d="M560.24,164.49c47.46,91.62,14.12,186.68-70.16,212.95-80.73,25.16-180.94-21.87-227.66-105.53-47.63-85.3-24.68-181.44,55.21-214.5,83.53-34.57,194.15,13.52,242.61,107.08Z"/><path class="cls-8" d="M560.24,164.49c47.46,91.62,14.12,186.68-70.16,212.95-80.73,25.16-180.94-21.87-227.66-105.53-47.63-85.3-24.68-181.44,55.21-214.5,83.53-34.57,194.15,13.52,242.61,107.08Z"/><polygon class="cls-5" points="409.42 145.28 412.15 144.27 414.4 145.28 418.32 148.39 420.09 145.94 422.14 146.1 422.14 149.07 423.5 151.93 422.95 156.7 421.45 159.29 423.36 163.24 423.77 170.46 428.44 175.07 431.12 177 431.81 180.95 434.58 184.8 436.57 188.44 439.57 188.3 440.39 187.08 443.52 188.71 445.56 190.76 451.88 190.97 455.37 191.44 454.96 199.88 452.6 205.1 451.01 209.55 447.33 212.28 446.78 215.21 444.28 219.16 441.89 221.68 442.16 224.54 443.42 226.17 443.63 228.36 443.68 230.69 442.84 235.84 440.68 235.84 436.1 232.3 433.11 230.82 428.2 230.07 424.28 231.92 421.44 234 413.3 233.71 410.83 231.92 404.56 231.42 401.53 229.74 400.47 228 398.34 226.6 397.8 224.36 400.07 223.09 401.97 215.96 402.05 210.2 397.89 201.93 391.21 192.94 391.76 186.12 394.62 183.13 392.17 180.54 392.98 174.95 398.98 169.78 399.52 164.47 404.56 153.43 408.1 149.48 409.42 145.28"/><g class="cls-9"><path class="cls-7" d="M127.6,28.12l10.45,9.68v20.91l2.32,3.87h3.1l5.03,5.81,10.07,9.29,3.87-1.55,8.91-7.36,14.33,.39,2.32,14.71v5.03l11.62,15.1,10.84-3.87,7.36,3.87s2.32,7.74,2.71,8.91,7.74,14.33,7.74,14.33l5.03-3.87,13.94,.39,6.2,.77,12.78,10.45s-3.48,4.65-3.87,5.81,0,8.91,0,8.91l3.87,4.26-6.2,12.39,1.99,2.49,8.37,2.3,12.08,.09,14.35-.62,6.58-4.65v-7.74l10.84-12.39,7.36,4.65-6.58,13.17,1.05,7.59,3.98,1.32,.65,6.31-2,8.81-.09,4.81h6.81l4.63-.54,1-1.36,3.81,.64,1.18,2.45,5.36,5.54,4.18,4.45,8.08,4.27,9.26,5.36,3.54,4.18,4.36,6.9,1.09,1.82h5.36l5.99-1.82,6.18-1.09,6.9-.18,1.45,1.27,2.27-1.27,1.91-7.13v-5.45l-4.09-8.58-6.67-8.99,.54-6.81,2.86-3-2.45-2.59,.82-5.58,5.99-5.18,.54-5.31,2.45-5.31,2.59-5.72,3.54-3.95,1.5-4.77,3.13-.54,4.5,3,1.09,1.23,1.77-2.45,3.54,.27,1.09-.82v-2.59l-1.91-.95,.54-2.59,5.18-2.32,2.45-2.59,1.63-4.36,3-.14,2.18,1.36,2.04-1.36,2.18-3.68v-1.36l-5.45-3.13-.41-2.45,3.27-3.41-.54-5.31-5.86-2.32-3.41-2.45-2.72-1.36-.95-1.63,.68-3.81,1.36-4.5,.54-3.68-1.23-2.32-2.04-1.09-6.67-6.95-.27-3.41-4.22-1.77-11.85-.14-3.54-2.04-4.77-1.23-4.63,2.72-1.77,.95-2.04-3.54-2.18-5.45-1.77-3.81,3.95-7.08,3-3.95-.68-4.36,.68-3.41,6.13-7.49,.41-5.99,2.32-2.31-2.18-3.55-5.86-3.54-7.08-1.36-5.31-1.5-.82-4.36L370.64,.19"/><path class="cls-7" d="M415.59,14.35v4.9h1.63l1.63-1.23,3.27,1.23,1.77,.54v4.22l-1.36,2.86-5.04,1.91-5.58,5.04-4.09,1.77-4.09,1.77-.54,3,2.32,2.86,7.22,2.45,5.04,7.63-2.04,7.36-4.36,2.59s-1.77,1.5-1.5,2.18,4.9,4.09,4.9,4.09l-.68,5.72"/><path class="cls-7" d="M422.14,146.1v2.98l1.35,2.86-.54,4.77-1.5,2.59,1.91,3.95,.41,7.22,3.95,4.09,3.41,2.45,.68,3.95,2.45,3.27,2.32,4.22,3-.14,.82-1.23,3.13,1.63,2.04,2.04,7.9,.27,1.91,.41-.41,8.45-1.91,3.95-2.04,5.72-3.68,2.72-.27,2.45-2.45,4.09-2.72,2.86,.27,2.86,1.23,1.23,.41,4.22-.95,5.86,2.59-.27,4.09-.82,4.09,1.63,4.5,4.36-.27,3.27,1.77,1.23-.27,3.27-1.36,2.18,1.77,2.18,5.45,3.81,2.04,3.81-.68,3,1.23,3.13,4.22,3.27,2.86,3.95h4.09l.27-3.54-.54-4.22,1.77-1.09,5.31,.41,5.18,1.5,3.41,3.68,.14,2.86,2.18,1.5,3.95-.41,2.32,.82,2.04,.82h6.81l3.41-.54,4.09-3.68,1.5-2.04,6.54-.41,2.86,1.77,.14,4.5,3.68,3,2.32,2.32,6.54,2.04,.95,1.36,11.03,.95,7.49-.27,7.49,3,5.45,3,6.54,1.5,3.81-.27-.27,2.32-2.32,3.41-1.09,3.95-4.09,5.04-.82,3.95-1.5,1.23-.54,3.68-3.95,1.5-3.95,3.68-.54,3.27-3.68,2.59-4.9,4.77-3.41,3.41,.68,9.4-2.59,6.67-3,4.63-.82,12.4-1.5,4.36-2.86,2.18-2.18,8.58-4.5,6.95-2.04,3,.68,7.63,2.45,3.54,1.91,5.72-1.5,3.13-4,8.45-3.27,7.81,.36,8.17-2.18,6.54,2.72,3.27,3.09,7.45,2,.73,2.91-1.63,2,.18-.18,4.54-1.63,3.81,5.27,.18,6.9-3.27,5.09-4.18,6.54,3.45,5.45,2.54,9.44-4.72,8.72-4.36,8.17,5.27,8.17-2.18,.73-4.36,3.81-.54,3.27,3.09,2.72-1.09s2.54-2.36,2.36-2.91-1.45-2.36-1.45-2.36l-4.36-.36-2,1.27-4.54-.18-6.54-1.27v-1.45l3.09-3.81,2.72-5.27,2.36-3.63h7.81l1.09-1.45h4.9l1.27,2.36,1.63,3.09,2.18,.54,.18,1.82-1.27,2.18-.73,2.18,3.27,.54,4.54-.54-.73-3.81,2.72-.18,2.54,2.54,7.27-3.45"/><polyline class="cls-7" points="542.19 462.83 540.37 467.73 536.38 471.37 532.58 475.91 534.01 479.72 528.38 484.63 522.57 486.62 513.13 486.62 509.86 485.72 508.41 481.9 507.32 478.09"/><path class="cls-7" d="M397.8,224.36l.54,2.24,2.13,1.4,1.06,1.74,3.03,1.68,6.27,.5,2.47,1.79h8.46l2.52-1.79s3.64-1.85,3.92-1.85,3.87,.28,3.87,.28l3.47,1.57,4.03,2.76,3.27,1.16"/></g><g class="cls-9"><path class="cls-4" d="M262.15,83.06h9c1.73,0,3.08,.4,4.06,1.2,.98,.8,1.46,1.8,1.46,3,0,.54-.09,1.03-.28,1.46-.18,.43-.4,.77-.66,1.01s-.51,.44-.77,.6-.47,.26-.65,.31l-.29,.1v.12c.08,.02,.2,.04,.35,.08s.41,.16,.78,.35c.37,.19,.7,.42,.98,.7,.29,.27,.55,.67,.78,1.19,.23,.52,.35,1.11,.35,1.76,0,1.44-.55,2.62-1.66,3.54-1.1,.92-2.67,1.38-4.71,1.38h-8.76v-16.8Zm8.04,6.48c.58,0,1.02-.13,1.33-.4,.31-.26,.47-.61,.47-1.04s-.16-.78-.47-1.04c-.31-.26-.76-.4-1.33-.4h-3.6v2.88h3.6Zm.24,6.72c.75,0,1.32-.15,1.71-.46,.38-.3,.58-.71,.58-1.22s-.19-.92-.58-1.22c-.38-.3-.95-.46-1.71-.46h-3.84v3.36h3.84Z"/><path class="cls-4" d="M280.7,88.96c1.33-1.3,2.95-1.94,4.85-1.94s3.58,.64,4.88,1.93,1.96,2.84,1.96,4.67v.72h-9.48c.13,.85,.42,1.5,.88,1.96,.46,.46,1.04,.68,1.76,.68,.35,0,.68-.04,.97-.13,.3-.09,.53-.2,.7-.34s.31-.27,.43-.4c.12-.13,.2-.24,.25-.34l.05-.12h4.32c-.03,.13-.09,.29-.17,.49-.08,.2-.29,.56-.62,1.09-.34,.53-.73,.99-1.18,1.39-.45,.4-1.1,.76-1.94,1.09-.85,.33-1.78,.49-2.81,.49-1.9,0-3.52-.65-4.85-1.94-1.33-1.3-1.99-2.85-1.99-4.66s.66-3.36,1.99-4.66Zm7.37,3.34c-.13-.56-.42-1.04-.88-1.44s-1-.6-1.64-.6-1.19,.2-1.64,.6c-.46,.4-.75,.88-.88,1.44h5.04Z"/><path class="cls-4" d="M294.31,83.06h4.08v13.56h2.76v3.24h-6.84v-16.8Z"/><path class="cls-4" d="M303.72,88.79c1.07-1.18,2.38-1.78,3.91-1.78,.78,0,1.48,.16,2.1,.48,.62,.32,1.04,.64,1.26,.96l.36,.48h.24v-1.56h4.08v17.04h-11.88v-3.24h7.8v-3.24h-.24s-.08,.11-.13,.19-.2,.22-.42,.43-.46,.39-.72,.55-.6,.3-1.04,.43c-.44,.13-.91,.19-1.4,.19-1.54,0-2.84-.59-3.91-1.78-1.07-1.18-1.61-2.71-1.61-4.58s.54-3.4,1.61-4.58Zm3.32,6.7c.49,.51,1.12,.77,1.91,.77s1.42-.26,1.91-.77c.49-.51,.73-1.22,.73-2.11s-.24-1.6-.73-2.11c-.49-.51-1.12-.77-1.91-.77s-1.42,.26-1.91,.77c-.49,.51-.73,1.22-.73,2.11s.24,1.6,.73,2.11Z"/><path class="cls-4" d="M318.6,82.58c.43-.4,.98-.6,1.63-.6s1.2,.2,1.63,.6c.43,.4,.65,.88,.65,1.44s-.22,1.02-.66,1.43c-.44,.41-.98,.61-1.62,.61s-1.18-.2-1.62-.61c-.44-.41-.66-.88-.66-1.43s.22-1.04,.65-1.44Zm-.41,4.8h4.08v12.48h-4.08v-12.48Z"/><path class="cls-4" d="M324.79,87.38h4.08v7.08c0,.72,.19,1.28,.58,1.68,.38,.4,.91,.6,1.58,.6s1.24-.26,1.71-.77c.46-.51,.7-1.18,.7-1.99v-6.6h4.08v12.48h-4.08v-1.68h-.24s-.08,.12-.13,.22c-.06,.1-.2,.26-.42,.49-.22,.23-.46,.44-.72,.62-.26,.18-.6,.35-1.04,.49-.44,.14-.91,.22-1.4,.22-1.46,0-2.6-.44-3.43-1.33-.83-.89-1.25-2.16-1.25-3.83v-7.68Z"/><path class="cls-4" d="M339.91,87.38h4.08v1.68h.24s.07-.12,.12-.22c.05-.1,.18-.26,.38-.49,.21-.23,.44-.44,.68-.62,.25-.18,.59-.35,1.02-.49,.43-.14,.9-.22,1.39-.22,.58,0,1.11,.08,1.6,.24,.49,.16,.87,.35,1.15,.56,.28,.22,.52,.44,.71,.66,.19,.22,.32,.42,.38,.58l.12,.24h.24c.02-.06,.05-.15,.11-.25,.06-.1,.18-.28,.38-.54s.43-.48,.7-.68,.63-.38,1.1-.55c.47-.17,.99-.25,1.55-.25,1.46,0,2.6,.44,3.43,1.33,.83,.89,1.25,2.16,1.25,3.83v7.68h-4.08v-7.08c0-1.52-.64-2.28-1.92-2.28-.67,0-1.22,.24-1.64,.71-.42,.47-.64,1.12-.64,1.93v6.72h-4.08v-7.08c0-1.52-.64-2.28-1.92-2.28-.67,0-1.22,.24-1.64,.71-.42,.47-.64,1.12-.64,1.93v6.72h-4.08v-12.48Z"/></g><g class="cls-9"><path class="cls-4" d="M564.32,85.11c1.75-1.69,4-2.53,6.73-2.53,.99,0,1.92,.12,2.79,.35,.86,.23,1.58,.54,2.16,.91,.58,.38,1.1,.79,1.57,1.24,.47,.45,.84,.9,1.1,1.36,.26,.46,.49,.87,.67,1.25,.18,.38,.31,.68,.37,.9l.1,.36h-4.56c-.03-.06-.08-.15-.13-.25-.06-.1-.2-.28-.42-.54-.22-.26-.48-.48-.77-.68-.29-.2-.69-.38-1.2-.55s-1.07-.25-1.68-.25c-1.39,0-2.52,.44-3.38,1.32-.86,.88-1.3,2.04-1.3,3.48s.43,2.6,1.3,3.48c.86,.88,1.99,1.32,3.38,1.32,.62,0,1.2-.08,1.72-.25,.52-.17,.93-.37,1.22-.6,.3-.23,.54-.46,.74-.7s.34-.44,.42-.61l.1-.24h-2.28v-3.36h8.76v3.36h-1.9c-.05,.18-.12,.41-.23,.7-.1,.29-.38,.8-.83,1.55-.45,.74-.97,1.4-1.57,1.98-.6,.58-1.44,1.1-2.53,1.56s-2.3,.7-3.62,.7c-2.74,0-4.98-.84-6.73-2.53-1.75-1.69-2.63-3.8-2.63-6.35s.88-4.66,2.63-6.35Z"/><path class="cls-4" d="M584.44,88.96c1.33-1.3,2.94-1.95,4.85-1.95s3.58,.64,4.88,1.93c1.3,1.29,1.96,2.84,1.96,4.67v.72h-9.48c.13,.85,.42,1.5,.88,1.96s1.04,.68,1.76,.68c.35,0,.68-.04,.97-.13,.3-.09,.53-.2,.7-.34,.17-.14,.31-.27,.43-.4,.12-.13,.2-.24,.25-.34l.05-.12h4.32c-.03,.13-.09,.29-.17,.49-.08,.2-.29,.56-.62,1.09s-.73,.99-1.18,1.39c-.45,.4-1.1,.76-1.94,1.09-.85,.33-1.78,.49-2.81,.49-1.9,0-3.52-.65-4.85-1.94-1.33-1.3-1.99-2.85-1.99-4.66s.66-3.36,1.99-4.66Zm7.37,3.34c-.13-.56-.42-1.04-.88-1.44-.46-.4-1-.6-1.64-.6s-1.19,.2-1.64,.6c-.46,.4-.75,.88-.88,1.44h5.04Z"/><path class="cls-4" d="M598.05,87.38h3.96v1.8h.24s.04-.12,.08-.21c.04-.1,.14-.26,.31-.49s.36-.44,.56-.62c.21-.18,.5-.35,.88-.49s.78-.22,1.21-.22h1.27v3.96h-2.04c-.72,0-1.3,.22-1.74,.66-.44,.44-.66,1.02-.66,1.74v6.36h-4.08v-12.48Z"/><path class="cls-4" d="M608.13,87.38h4.08v1.68h.24s.07-.12,.12-.22c.05-.1,.18-.26,.38-.49,.21-.23,.44-.44,.68-.62s.59-.35,1.02-.49c.43-.14,.9-.22,1.39-.22,.58,0,1.11,.08,1.6,.24s.87,.35,1.15,.56c.28,.22,.52,.44,.71,.66,.19,.22,.32,.42,.38,.58l.12,.24h.24c.02-.06,.05-.15,.11-.25,.06-.1,.18-.29,.38-.54,.2-.26,.43-.48,.7-.68,.26-.2,.63-.38,1.1-.55,.47-.17,.99-.25,1.55-.25,1.46,0,2.6,.45,3.43,1.33s1.25,2.16,1.25,3.83v7.68h-4.08v-7.08c0-1.52-.64-2.28-1.92-2.28-.67,0-1.22,.24-1.64,.71-.42,.47-.64,1.12-.64,1.93v6.72h-4.08v-7.08c0-1.52-.64-2.28-1.92-2.28-.67,0-1.22,.24-1.64,.71-.42,.47-.64,1.12-.64,1.93v6.72h-4.08v-12.48Z"/><path class="cls-4" d="M632.16,88.83c1.06-1.21,2.37-1.81,3.92-1.81,.75,0,1.44,.17,2.05,.52,.62,.34,1.05,.68,1.31,1.02l.36,.5h.24v-1.68h4.08v12.48h-4.08v-1.68h-.24l-.14,.21c-.06,.1-.21,.26-.44,.49s-.48,.44-.74,.62c-.26,.18-.61,.35-1.04,.49-.43,.14-.88,.21-1.34,.21-1.55,0-2.86-.6-3.92-1.81-1.06-1.21-1.6-2.8-1.6-4.79s.53-3.58,1.6-4.79Zm3.32,7.09c.48,.54,1.12,.82,1.92,.82s1.44-.27,1.92-.82c.48-.54,.72-1.31,.72-2.3s-.24-1.76-.72-2.3c-.48-.54-1.12-.82-1.92-.82s-1.44,.27-1.92,.82c-.48,.54-.72,1.31-.72,2.3s.24,1.76,.72,2.3Z"/><path class="cls-4" d="M646.53,87.38h4.08v1.68h.24s.08-.12,.13-.22c.06-.1,.2-.26,.42-.49,.22-.23,.46-.44,.72-.62s.6-.35,1.04-.49,.91-.22,1.4-.22c1.46,0,2.6,.45,3.43,1.33,.83,.89,1.25,2.16,1.25,3.83v7.68h-4.08v-7.08c0-.72-.19-1.28-.58-1.68-.38-.4-.91-.6-1.58-.6s-1.24,.26-1.7,.77-.7,1.18-.7,1.99v6.6h-4.08v-12.48Z"/><path class="cls-4" d="M664.77,87.38l2.16,9h.72l2.4-9h4.2l-4.8,17.04h-4.2l1.32-4.56h-2.76l-3.24-12.48h4.2Z"/></g><g class="cls-9"><path class="cls-4" d="M179.83,287.66h12.72v4.08h-8.28v3.24h6.36v3.84h-6.36v5.64h-4.44v-16.8Z"/><path class="cls-4" d="M193.15,291.98h3.96v1.8h.24s.04-.12,.08-.22c.04-.1,.14-.26,.31-.49,.17-.23,.36-.44,.56-.62,.21-.18,.5-.35,.88-.49,.38-.14,.78-.22,1.21-.22h1.27v3.96h-2.04c-.72,0-1.3,.22-1.74,.66-.44,.44-.66,1.02-.66,1.74v6.36h-4.08v-12.48Z"/><path class="cls-4" d="M203.63,293.44c1.06-1.21,2.37-1.81,3.92-1.81,.75,0,1.44,.17,2.05,.52,.62,.34,1.05,.68,1.31,1.02l.36,.5h.24v-1.68h4.08v12.48h-4.08v-1.68h-.24l-.14,.22c-.06,.1-.21,.26-.44,.49-.23,.23-.48,.44-.74,.62-.26,.18-.61,.35-1.04,.49-.43,.14-.88,.22-1.34,.22-1.55,0-2.86-.6-3.92-1.81-1.06-1.21-1.6-2.8-1.6-4.79s.53-3.58,1.6-4.79Zm3.32,7.09c.48,.54,1.12,.82,1.92,.82s1.44-.27,1.92-.82c.48-.54,.72-1.31,.72-2.3s-.24-1.76-.72-2.3c-.48-.54-1.12-.82-1.92-.82s-1.44,.27-1.92,.82c-.48,.54-.72,1.31-.72,2.3s.24,1.76,.72,2.3Z"/><path class="cls-4" d="M217.99,291.98h4.08v1.68h.24s.08-.12,.13-.22c.06-.1,.2-.26,.42-.49,.22-.23,.46-.44,.72-.62,.26-.18,.6-.35,1.04-.49s.91-.22,1.4-.22c1.46,0,2.6,.44,3.43,1.33,.83,.89,1.25,2.16,1.25,3.83v7.68h-4.08v-7.08c0-.72-.19-1.28-.58-1.68-.38-.4-.91-.6-1.58-.6s-1.24,.26-1.7,.77-.7,1.18-.7,1.99v6.6h-4.08v-12.48Z"/><path class="cls-4" d="M234.36,293.57c1.31-1.29,2.9-1.94,4.75-1.94,1.07,0,2.03,.18,2.88,.53,.85,.35,1.5,.78,1.94,1.29,.45,.5,.82,1.01,1.1,1.52s.47,.94,.55,1.3l.12,.53h-4.2s-.04-.11-.07-.18c-.03-.07-.12-.2-.25-.4-.14-.19-.29-.36-.46-.52s-.4-.29-.68-.41-.6-.18-.94-.18c-.69,0-1.28,.29-1.78,.86s-.74,1.33-.74,2.26,.25,1.68,.74,2.26,1.09,.86,1.78,.86c.35,0,.68-.06,.97-.17,.3-.11,.53-.25,.7-.42s.31-.34,.43-.5,.2-.31,.23-.42l.07-.17h4.2c-.02,.06-.04,.16-.06,.29-.02,.13-.1,.37-.24,.73-.14,.36-.3,.7-.48,1.02-.18,.32-.45,.68-.8,1.08-.35,.4-.75,.74-1.19,1.03-.44,.29-.99,.53-1.66,.72-.66,.19-1.39,.29-2.17,.29-1.86,0-3.44-.65-4.75-1.94s-1.97-2.85-1.97-4.66,.66-3.36,1.97-4.66Z"/><path class="cls-4" d="M248.9,293.57c1.33-1.29,2.94-1.94,4.85-1.94s3.58,.64,4.88,1.93c1.3,1.29,1.96,2.84,1.96,4.67v.72h-9.48c.13,.85,.42,1.5,.88,1.96s1.04,.68,1.76,.68c.35,0,.68-.04,.97-.13,.3-.09,.53-.2,.7-.34,.17-.14,.31-.27,.43-.4,.12-.13,.2-.24,.25-.34l.05-.12h4.32c-.03,.13-.09,.29-.17,.49-.08,.2-.29,.56-.62,1.09s-.73,.99-1.18,1.39c-.45,.4-1.1,.76-1.94,1.09-.85,.33-1.78,.49-2.81,.49-1.9,0-3.52-.65-4.85-1.94s-1.99-2.85-1.99-4.66,.66-3.36,1.99-4.66Zm7.37,3.34c-.13-.56-.42-1.04-.88-1.44s-1-.6-1.64-.6-1.19,.2-1.64,.6-.75,.88-.88,1.44h5.04Z"/></g><g class="cls-9"><path class="cls-4" d="M518.28,516.11s.04,.12,.08,.22,.14,.26,.31,.49c.17,.23,.37,.44,.61,.62,.24,.18,.58,.35,1.01,.49,.43,.14,.92,.22,1.46,.22,.83,0,1.46-.14,1.88-.42,.42-.28,.64-.62,.64-1.02,0-.48-.34-.87-1.02-1.16-.68-.3-1.51-.56-2.48-.78-.98-.22-1.96-.5-2.94-.83s-1.82-.86-2.5-1.61c-.68-.74-1.02-1.68-1.02-2.82,0-1.46,.63-2.7,1.88-3.73,1.26-1.03,2.95-1.55,5.08-1.55,.88,0,1.69,.1,2.44,.29,.74,.19,1.36,.44,1.85,.76,.49,.31,.92,.66,1.31,1.03,.38,.38,.68,.75,.89,1.13s.38,.72,.52,1.03c.14,.31,.22,.56,.25,.76l.07,.29h-4.56s-.04-.08-.06-.16c-.02-.07-.1-.19-.23-.35-.13-.16-.28-.3-.47-.43-.18-.13-.45-.24-.8-.35-.35-.1-.75-.16-1.2-.16-.78,0-1.36,.12-1.73,.35-.37,.23-.55,.52-.55,.85,0,.48,.34,.87,1.02,1.16,.68,.3,1.51,.56,2.48,.78,.98,.22,1.96,.5,2.94,.83s1.82,.86,2.5,1.61c.68,.74,1.02,1.68,1.02,2.82,0,1.54-.63,2.84-1.88,3.91-1.26,1.07-3.03,1.61-5.32,1.61-.93,0-1.79-.11-2.59-.32-.8-.22-1.47-.5-2-.84-.54-.34-1.02-.72-1.44-1.14s-.76-.84-1-1.26c-.24-.42-.44-.81-.6-1.15-.16-.34-.27-.63-.34-.85l-.07-.31h4.56Z"/><path class="cls-4" d="M534.24,509.03l1.44,8.16h.36l1.56-8.16h4.8l1.56,8.16h.36l1.44-8.16h4.2l-2.52,12.48h-5.76l-1.56-8.16h-.24l-1.56,8.16h-5.76l-2.52-12.48h4.2Z"/><path class="cls-4" d="M552.05,504.23c.43-.4,.98-.6,1.63-.6s1.2,.2,1.63,.6c.43,.4,.65,.88,.65,1.44s-.22,1.02-.66,1.43c-.44,.41-.98,.61-1.62,.61s-1.18-.2-1.62-.61c-.44-.41-.66-.88-.66-1.43s.22-1.04,.65-1.44Zm-.41,4.8h4.08v12.48h-4.08v-12.48Z"/><path class="cls-4" d="M557.4,509.03h1.56v-2.64h4.08v2.64h3.24v3.24h-3.24v6h3.48v3.24h-7.56v-9.24h-1.56v-3.24Z"/><path class="cls-4" d="M567.72,518.03l5.88-5.28v-.24h-5.64v-3.48h10.92v3.48l-5.88,5.28v.24h6.12v3.48h-11.4v-3.48Z"/><path class="cls-4" d="M581.95,510.61c1.33-1.3,2.94-1.94,4.85-1.94s3.58,.64,4.88,1.93c1.3,1.29,1.96,2.84,1.96,4.67v.72h-9.48c.13,.85,.42,1.5,.88,1.96s1.04,.68,1.76,.68c.35,0,.68-.04,.97-.13s.53-.2,.7-.34,.31-.27,.43-.4c.12-.13,.2-.24,.25-.34l.05-.12h4.32c-.03,.13-.09,.29-.17,.49-.08,.2-.29,.56-.62,1.09-.34,.53-.73,.99-1.18,1.39-.45,.4-1.1,.76-1.94,1.09-.85,.33-1.78,.49-2.81,.49-1.9,0-3.52-.65-4.85-1.94-1.33-1.3-1.99-2.85-1.99-4.66s.66-3.36,1.99-4.66Zm7.37,3.34c-.13-.56-.42-1.04-.88-1.44s-1-.6-1.64-.6-1.19,.2-1.64,.6-.75,.88-.88,1.44h5.04Z"/><path class="cls-4" d="M595.56,509.03h3.96v1.8h.24s.04-.12,.08-.22c.04-.1,.14-.26,.31-.49,.17-.23,.36-.44,.56-.62,.21-.18,.5-.35,.88-.49,.38-.14,.78-.22,1.21-.22h1.27v3.96h-2.04c-.72,0-1.3,.22-1.74,.66s-.66,1.02-.66,1.74v6.36h-4.08v-12.48Z"/><path class="cls-4" d="M605.64,504.71h4.08v13.56h2.76v3.24h-6.84v-16.8Z"/><path class="cls-4" d="M615.04,510.48c1.06-1.21,2.37-1.81,3.92-1.81,.75,0,1.44,.17,2.05,.52,.62,.34,1.05,.68,1.31,1.02l.36,.5h.24v-1.68h4.08v12.48h-4.08v-1.68h-.24l-.14,.22c-.06,.1-.21,.26-.44,.49s-.48,.44-.74,.62c-.26,.18-.61,.35-1.04,.49-.43,.14-.88,.22-1.34,.22-1.55,0-2.86-.6-3.92-1.81-1.06-1.21-1.6-2.8-1.6-4.79s.53-3.58,1.6-4.79Zm3.32,7.09c.48,.54,1.12,.82,1.92,.82s1.44-.27,1.92-.82c.48-.54,.72-1.31,.72-2.3s-.24-1.76-.72-2.3c-.48-.54-1.12-.82-1.92-.82s-1.44,.27-1.92,.82c-.48,.54-.72,1.31-.72,2.3s.24,1.76,.72,2.3Z"/><path class="cls-4" d="M629.4,509.03h4.08v1.68h.24s.08-.12,.13-.22c.06-.1,.2-.26,.42-.49,.22-.23,.46-.44,.72-.62,.26-.18,.6-.35,1.04-.49,.44-.14,.91-.22,1.4-.22,1.46,0,2.6,.44,3.43,1.33,.83,.89,1.25,2.16,1.25,3.83v7.68h-4.08v-7.08c0-.72-.19-1.28-.58-1.68-.38-.4-.91-.6-1.58-.6s-1.24,.26-1.7,.77c-.46,.51-.7,1.18-.7,1.99v6.6h-4.08v-12.48Z"/><path class="cls-4" d="M645.52,510.48c1.06-1.21,2.37-1.81,3.92-1.81,.75,0,1.44,.17,2.05,.52s1.05,.68,1.31,1.02l.36,.5h.24v-6h4.08v16.8h-4.08v-1.68h-.24l-.14,.22c-.06,.1-.21,.26-.44,.49-.23,.23-.48,.44-.74,.62-.26,.18-.61,.35-1.04,.49-.43,.14-.88,.22-1.34,.22-1.55,0-2.86-.6-3.92-1.81s-1.6-2.8-1.6-4.79,.53-3.58,1.6-4.79Zm3.32,7.09c.48,.54,1.12,.82,1.92,.82s1.44-.27,1.92-.82c.48-.54,.72-1.31,.72-2.3s-.24-1.76-.72-2.3c-.48-.54-1.12-.82-1.92-.82s-1.44,.27-1.92,.82c-.48,.54-.72,1.31-.72,2.3s.24,1.76,.72,2.3Z"/></g><g><rect x="373.02" y="91.79" width="90.67" height="33.84" rx="2.17" ry="2.17"/><g><path class="cls-4" d="M382.46,95.38c1.3,0,2.59,0,3.89,0,0,1.29,0,2.59,0,3.88-1.3,0-2.6,0-3.9,0,.01-1.29,0-2.58,0-3.88Z"/><path class="cls-3" d="M378.46,99.27c1.28,.02,2.56,0,3.84,0,0,2.56,0,3.2,0,3.85-1.28-.01-2.55-.02-3.83,0,.01-1.28,.02-2.57,0-3.85Z"/><path class="cls-4" d="M382.27,103.2c1.94,0,3.88,0,5.83,0,0,1.94,0,3.88,0,5.82,1.94,0,3.88,0,5.83,0-.01,1.94,0,3.88,0,5.82-1.92,0-3.83,0-5.75,0,0,2.35-.01,4.7,0,7.05-2.38,0-4.77,0-7.16,0,0-2.38,0-4.76,0-7.14,2.35,0,4.71,0,7.06,0,0-1.91,0-3.82,0-5.72-1.94,0-3.88,0-5.82,0,.01-1.94,0-3.89,0-5.83Z"/><path class="cls-4" d="M415.48,108.93c.38,0,.75,0,1.13,0,0,1.3-.03,2.6,.02,3.9,.02,.76,1.03,1.12,1.59,.66,.27-.2,.38-.54,.37-.86,0-1.23,0-2.46,0-3.69,.37,0,.74,0,1.11,0-.02,1.36,.03,2.72-.02,4.08-.16,1.45-2.01,2.09-3.19,1.4-.59-.32-.98-.95-.99-1.61-.02-1.29,0-2.58-.01-3.86Z"/><path class="cls-4" d="M398.96,109.95c.66-1.26,2.5-1.37,3.48-.42-.25,.25-.49,.49-.73,.75-.49-.45-1.38-.59-1.72,.11-.23,.88-.19,1.83-.03,2.72,.26,.77,1.26,.68,1.77,.21,.24,.25,.48,.51,.72,.76-.47,.32-.99,.64-1.58,.6-1.05,.06-2.1-.78-2.1-1.87-.04-.95-.16-1.96,.21-2.86Z"/><path class="cls-4" d="M403.4,108.94h1.13c0,1.9,0,3.8,0,5.7-.38,0-.75,0-1.13,0,0-1.9,0-3.8,0-5.7Z"/><path class="cls-4" d="M407.49,108.92c-.55,0-1.1,.06-1.64,.02,0,1.9,.01,3.8,0,5.7h1.11c0-.76,0-1.51,0-2.26,.26,0,.53,0,.8-.01,.37,.76,.74,1.53,1.12,2.28,.43,0,.87,0,1.31,0-.44-.8-.84-1.61-1.27-2.41,1.27-.49,1.37-2.42,.17-3.04-.51-.22-1.05-.26-1.59-.26Zm-.5,.99c.47,.02,.95-.02,1.41,.11,.59,.24,.53,1.2-.08,1.37-.45,.07-.91,.04-1.37,.04,0-.51,.01-1.01,.04-1.52Z"/><path class="cls-4" d="M411.5,109.47c.85-.83,2.27-.71,3.12,.06-.25,.24-.5,.49-.74,.74-.38-.26-.85-.54-1.3-.29-.66,.29-.53,1.12-.57,1.7,.05,.65-.14,1.56,.56,1.92,.46,.24,.93-.02,1.31-.29,.24,.25,.49,.49,.73,.74-.87,.83-2.41,.87-3.22-.06-.58-.63-.48-1.54-.49-2.32,0-.76,0-1.65,.61-2.19Z"/><path class="cls-4" d="M420.93,108.93c.37,0,.74,0,1.12,0,0,1.9,0,3.8,0,5.7-.37,0-.75,0-1.12,0,0-1.9,0-3.8,0-5.7Z"/><path class="cls-4" d="M422.95,108.94c1.37,0,2.73,0,4.1,0,0,.33,0,.66,0,.99-.5,0-1,0-1.49,0,0,1.57,0,3.14,0,4.71-.38,0-.76,0-1.14,0,0-1.56,0-3.12,0-4.68-.49-.02-.98-.03-1.47-.04,0-.32,0-.65,0-.98Z"/><path class="cls-4" d="M431.65,108.92c-.62-.01-1.27,.07-1.86,.02,0,1.9,0,3.8,0,5.7,.9-.02,1.81,.07,2.71-.07,.9-.17,1.48-1.08,1.44-1.97-.03-1.04,.24-2.31-.58-3.13-.49-.43-1.09-.54-1.71-.56Zm-.73,1c.61,.02,1.48-.13,1.79,.56,.18,.84,.17,1.74,0,2.58-.28,.72-1.18,.57-1.8,.59,0-1.24,0-2.49,0-3.73Z"/><path class="cls-4" d="M435.07,114.64c0-1.9,0-3.8,0-5.7,1.26,0,2.51,0,3.78,0,0,.33,0,.66,0,.99-.88,0-1.77,0-2.65,.03,0,.43,0,.87,0,1.3,.75,0,1.51,0,2.26,0,0,.34,0,.68,0,1.01-.75,0-1.51,0-2.26,0,0,.46,0,.92,0,1.38,.89,0,1.77,0,2.66,0,0,.33,0,.66,0,.99-1.26,0-2.52,0-3.78,0Z"/><path class="cls-4" d="M442.27,109.19c.97-.53,2.23-.34,3.08,.35-.24,.23-.47,.47-.71,.7-.51-.31-1.18-.54-1.74-.24-.43,.2-.49,.87-.05,1.09,.67,.26,1.47,.14,2.07,.57,.8,.67,.71,2.13-.2,2.66-1.09,.62-2.55,.43-3.51-.36,.24-.24,.48-.49,.72-.73,.59,.38,1.33,.6,2.02,.35,.51-.15,.57-.99,.07-1.18-.69-.23-1.51-.11-2.09-.62-.76-.7-.57-2.11,.33-2.6Z"/><path class="cls-4" d="M447.99,108.92c-.5,0-.99,.04-1.48,.01,0,1.9,0,3.8,0,5.7h1.11c0-.71,0-1.42,0-2.13,.83-.02,1.81,.14,2.47-.51,.92-.83,.57-2.57-.63-2.94-.48-.12-.97-.14-1.47-.13Zm.37,1c.25,0,.5,.02,.74,.11,.53,.24,.54,1.12,0,1.37-.46,.17-.97,.09-1.45,.11-.03-.52-.03-1.03-.04-1.55,.24,0,.49-.03,.74-.04Z"/><path class="cls-4" d="M453.46,108.94c-.29,0-.58,0-.88,0-.7,1.9-1.38,3.8-2.1,5.7,.39,0,.8,.03,1.19-.04,.14-.32,.23-.65,.35-.97,.67,0,1.34,0,2.01,0,.12,.33,.23,.67,.34,1,.39,0,.79,0,1.19,0-.72-1.89-1.39-3.81-2.1-5.7Zm-.43,1.7c.25,.68,.46,1.38,.71,2.05-.47,0-.95,0-1.42,0,.25-.68,.49-1.37,.71-2.06Z"/><path class="cls-4" d="M398.96,117.04c1.03,0,2.06,0,3.09,0,0,.12,0,.35,0,.46-.86,0-1.71,0-2.56,0,0,.62,0,1.23,.03,1.85,.7,0,1.41-.08,2.11,0,.02,.11,.07,.33,.09,.44-.74,.02-1.49,0-2.24,0,0,.72,0,1.44,0,2.17-.13,0-.39,0-.53,.01,0-1.65,0-3.3,0-4.95Z"/><path class="cls-4" d="M404.22,117.04c-.41,0-.81,.02-1.22,0,0,1.65,0,3.29,0,4.94,.14,0,.41-.02,.55-.02,0-.72-.03-1.45-.04-2.17h1.2c.38,.73,.75,1.46,1.13,2.19,.16,0,.48-.01,.64-.01-.4-.72-.76-1.46-1.17-2.18,.28-.16,.61-.28,.81-.55,.52-.71,.22-1.94-.69-2.14-.4-.06-.81-.07-1.22-.07Zm.18,.46c.29,0,.58,.02,.87,.07,.76,.22,.75,1.48,0,1.7-.56,.07-1.13,.05-1.69,.09-.04-.61-.07-1.23-.05-1.85,.29,0,.59-.01,.88-.01Z"/><path class="cls-4" d="M409.22,117.05c-.12,0-.36,0-.48,.01-.6,1.65-1.2,3.29-1.82,4.94,.15,0,.44-.02,.59-.03,.12-.36,.25-.72,.38-1.08,.72,0,1.45,0,2.17,0,.13,.37,.25,.73,.38,1.1h.59c-.61-1.65-1.22-3.29-1.82-4.94Zm-.25,.81c.36,.83,.62,1.71,.94,2.55-.62,0-1.24,0-1.86,0,.32-.84,.61-1.7,.92-2.55Z"/><path class="cls-4" d="M411.82,117.02c.57-.11,.78,.45,1.06,.83,.68,1.05,1.39,2.07,2.06,3.12,0-1.32,0-2.64,0-3.95,.14,0,.4,0,.54,0,0,1.67,0,3.34,0,5.02-.13-.03-.4-.09-.53-.12-.91-1.27-1.72-2.61-2.62-3.9,.02,1.32,0,2.64,.01,3.96-.13,0-.39,.01-.52,.02,0-1.66,0-3.32,0-4.98Z"/><path class="cls-4" d="M417.32,117.38c.75-.65,1.88-.46,2.56,.19-.09,.09-.26,.27-.35,.37-.47-.42-1.19-.68-1.75-.27-.62,.39-.51,1.22-.53,1.85,.02,.63-.08,1.45,.55,1.84,.56,.41,1.26,.11,1.73-.28,.09,.1,.26,.29,.35,.38-.55,.42-1.26,.75-1.95,.5-.83-.19-1.28-1.05-1.21-1.86,.04-.91-.22-2.07,.6-2.71Z"/><path class="cls-4" d="M422.42,116.98c-.27,0-.54,.05-.78,.17-.71,.28-1.02,1.07-.97,1.79,.04,.88-.21,1.99,.54,2.65,.86,.83,2.55,.46,2.85-.74,.13-.81,.11-1.65,.04-2.47-.08-.84-.89-1.39-1.69-1.4Zm.15,.5c.53,.08,1.01,.52,1.01,1.08,.03,.76,.11,1.57-.1,2.31-.34,.9-1.78,.91-2.14,.02-.22-.75-.13-1.56-.1-2.33,.01-.47,.35-.89,.8-1.03,.17-.06,.35-.07,.53-.05Z"/><path class="cls-4" d="M426.74,117.03c-.46,0-.92,.05-1.37,.02,0,1.64,0,3.28,0,4.92,.14,0,.42,.01,.56,.01,0-.73,0-1.46,0-2.19,.39,0,.79,0,1.18,0,.38,.73,.75,1.47,1.14,2.2,.16,0,.47-.01,.63-.02-.41-.71-.76-1.45-1.16-2.17,1.16-.29,1.47-2.03,.37-2.59-.43-.16-.88-.19-1.34-.18Zm.07,.47c.3,0,.6,.01,.89,.09,.71,.24,.71,1.42-.01,1.65-.58,.12-1.18,.05-1.77,.06,0-.6,0-1.2,0-1.8,.3,.01,.59,0,.89,0Z"/><path class="cls-4" d="M430.35,117.39c.76-.66,1.89-.46,2.59,.18-.13,.12-.26,.25-.39,.37-.44-.43-1.16-.67-1.71-.28-.64,.39-.52,1.23-.54,1.86,.02,.63-.08,1.44,.53,1.83,.56,.41,1.27,.14,1.73-.28,.09,.1,.28,.29,.37,.38-.51,.37-1.14,.72-1.8,.54-.81-.12-1.41-.89-1.36-1.71,.04-.96-.27-2.18,.57-2.89Z"/><path class="cls-4" d="M434.05,117.05h.52c0,.73,0,1.47,0,2.2,.79,0,1.57,0,2.36,0,0-.74,0-1.47,0-2.21,.13,0,.39,0,.53,0,0,1.65,0,3.29,.01,4.93-.13,0-.4,0-.54,0,0-.75,0-1.5,0-2.24-.79,0-1.57,0-2.36,0,0,.75,0,1.5,0,2.24-.13,0-.39,0-.53,0,.01-1.65,0-3.29,0-4.93Z"/><path class="cls-4" d="M440.53,117.03c-.12,0-.35,.03-.47,.04-.59,1.64-1.2,3.28-1.8,4.92h.58c.13-.37,.26-.73,.38-1.1,.73,0,1.44,0,2.17,0,.13,.36,.26,.73,.38,1.09,.15,0,.45,.02,.59,.02-.61-1.65-1.22-3.31-1.83-4.97Zm-.2,.77c.28,.88,.59,1.74,.9,2.61-.62,0-1.24,0-1.86,0,.33-.86,.62-1.74,.95-2.6Z"/><path class="cls-4" d="M443.13,117c.14,.02,.43,.05,.57,.07,.52,1.16,1.04,2.31,1.6,3.45,.5-1.17,1.04-2.32,1.55-3.48,.14,0,.41,0,.54,0,0,1.65,0,3.29,0,4.94-.14,0-.41,0-.55,0,0-1.24,.02-2.47,0-3.7-.44,.98-.88,1.96-1.34,2.94-.12,0-.35-.02-.47-.02-.44-.97-.88-1.94-1.35-2.9-.01,1.23,0,2.46,0,3.7-.14,0-.41,0-.54,0,0-1.66,0-3.32,0-4.98Z"/><path class="cls-4" d="M450.04,117.04c-.41,0-.82,.03-1.22,.02,0,1.64,0,3.28,0,4.93,.13,0,.39,0,.52,0,0-.67,0-1.35,0-2.03,.76-.06,1.61,.17,2.29-.28,.9-.62,.71-2.25-.37-2.55-.4-.08-.81-.09-1.22-.09Zm.41,.46c.37,0,.72,.07,1.01,.33,.37,.48,.26,1.36-.37,1.57-.57,.12-1.16,.05-1.74,.06,0-.65,0-1.3,0-1.95,.35,.03,.73-.02,1.1-.01Z"/><path class="cls-4" d="M453.66,117.16c.77-.36,1.65-.14,2.33,.31-.08,.1-.23,.29-.3,.39-.51-.33-1.17-.55-1.76-.3-.54,.22-.68,1.07-.2,1.42,.59,.36,1.36,.21,1.95,.57,.75,.5,.69,1.76-.08,2.21-.89,.51-2.07,.31-2.84-.34,.09-.1,.26-.29,.34-.38,.59,.47,1.44,.72,2.14,.35,.55-.26,.6-1.15,.07-1.46-.63-.25-1.38-.14-1.95-.56-.72-.56-.53-1.87,.32-2.21Z"/></g></g><g><rect x="450.63" y="129.37" width="91.16" height="53" rx="3.73" ry="3.73"/><g><path class="cls-4" d="M480.08,137.26h4.14c.15,.13,.33,.26,.34,.48,.07,.74,0,1.49,.04,2.24,0,.24,.19,.42,.36,.58,.51,.47,.99,.97,1.5,1.44,.25,.23,.46,.5,.75,.68,.25,.09,.52,.04,.78,.05,1.25-.01,2.51,0,3.76,0,.29,.01,.61,0,.85,.17,.42,.33,.72,.79,1.16,1.1,.26,.16,.52-.08,.7-.26,.94-.97,1.9-1.93,2.86-2.88,.35-.37,1.01-.38,1.37,0,.95,.92,1.88,1.86,2.83,2.77,.13,.13,.26,.29,.28,.48,.04,.36,0,.73,.02,1.09,0,.32,.03,.64,0,.96,0-.09,0-.18,0-.27-.13,.13-.25,.32-.45,.36-.45,.08-.93-.05-1.37,.07-.13,.12-.1,.31-.09,.47,.05,.45,.02,.9,.03,1.35,0,.37,.03,.73-.03,1.1,0-.09,0-.18,0-.28-.14,.18-.29,.36-.45,.51-.55,.54-1.1,1.09-1.64,1.64-.26,.26-.52,.56-.87,.7-.25,.11-.53,.09-.8,.1-.36,0-.72,0-1.08,0-.1,0-.2,0-.3-.01,.23-.3,.52-.55,.78-.81,.44-.45,.89-.89,1.34-1.33,.14-.15,.3-.3,.31-.52,.04-.5-.03-1,.02-1.5,.01-.15,.09-.33,.26-.35,.44-.07,.9,.01,1.34-.05,.21-.02,.3-.25,.29-.43,.01-.63,0-1.26-.01-1.9,.02-.19-.02-.39-.18-.52-.48-.45-.92-.95-1.39-1.41-.17-.16-.36-.33-.6-.33-.26,0-.47,.19-.64,.36-.92,.93-1.85,1.85-2.77,2.77-.16,.16-.37,.23-.57,.32-.58-.44-1.05-1-1.58-1.49-.09-.1-.17-.21-.29-.29-.14-.06-.29-.05-.43-.05-.91,0-1.83,0-2.74,0-.4,0-.81-.03-1.21,.05-.83-.79-1.63-1.61-2.45-2.41-.17-.17-.39-.34-.41-.61-.04-.39,0-.79,0-1.19,0-.15,.02-.32-.1-.43-.17-.19-.44-.26-.69-.25-.73,0-1.46,0-2.19,0-.16,0-.33,0-.49,.05-.55,.25-.8,.92-1.38,1.12-.75,.1-1.52-.07-2.27,.09-.26-.22-.52-.44-.75-.69-.17-.2-.37-.37-.64-.4,.05-.04,.1-.08,.14-.12-.11-.02-.22-.06-.33-.05-.17,.07-.3,.21-.43,.33-.84,.85-1.69,1.69-2.53,2.53-.25,.23-.28,.58-.23,.9,.04,.54,.03,1.07,.02,1.61-.06,.21-.16,.42-.32,.57-1.42,1.4-2.8,2.85-4.24,4.24-.27,.24-.6,.57-.47,.97,.36,.5,.87,.87,1.27,1.34,.14,.17,.14,.4,.14,.61-.01,1.37,0,2.74,0,4.1,0,.25-.01,.5,.02,.74,.04,.29,.24,.51,.44,.71,.92,.91,1.82,1.82,2.74,2.73,.19,.19,.42,.39,.7,.39,1.25,.02,2.51-.02,3.75,.02,.25-.01,.28,.26,.29,.45-.57,.44-1.01,1.01-1.55,1.49-.29,.26-.72,.13-1.05,.3-.07-.05-.14-.09-.22-.14,.29-.32,.61-.61,.91-.92,.1-.09,.11-.22,.12-.35-1.35-.06-2.71,.02-4.06-.05-.2-.17-.4-.34-.58-.53-.98-.98-1.96-1.96-2.94-2.94-.26-.27-.57-.51-.71-.86-.09-.2-.1-.41-.1-.63,.01-1.85,0-3.69,0-5.54-.01-.23,.02-.51-.16-.69-.3-.34-.67-.61-.94-.97-.2-.25-.2-.62-.04-.89,.18-.31,.47-.53,.72-.79,1.49-1.5,2.99-2.98,4.49-4.47,.16-.17,.35-.35,.35-.6,.03-.64-.02-1.28,0-1.92,.01-.34,.19-.64,.43-.86,.89-.87,1.75-1.76,2.64-2.62,.17-.16,.36-.37,.62-.35,.22,0,.39,.15,.54,.29,.39,.39,.76,.79,1.17,1.17,.22,.21,.55,.18,.83,.19,.38,0,.76,.02,1.14-.03,.21-.02,.36-.18,.5-.31,.35-.36,.7-.71,1.05-1.07,.19-.2,.43-.34,.69-.43Z"/><path class="cls-6" d="M484.34,153.17c.36-.27,.84-.14,1.25-.16-.09,.42-.2,.83-.32,1.24-.46,.11-.97,.04-1.44,.02,.11-.38,.15-.85,.51-1.1Z"/><path class="cls-6" d="M486.69,153.13c.37-.21,.81-.1,1.21-.12-.11,.42-.23,.85-.34,1.27-.47,.03-.95,.03-1.42,0,.08-.42,.16-.91,.55-1.16Z"/><path class="cls-6" d="M494.29,153c-.47,0-.95,0-1.42,0-.34,1.36-.72,2.72-1.08,4.08-.22,.86-.48,1.71-.67,2.58,.85,0,1.69,0,2.54,0,.65,.01,1.33-.25,1.72-.8,.38-.47,.46-1.09,.62-1.65,.1-.38,.23-.76,.26-1.16,.03-.39-.12-.83-.5-1.01-.59-.3-1.27-.14-1.9-.2,.06-.64,.34-1.22,.43-1.85Zm-.24,3.01c.18,0,.36,.02,.52,.09,.21,.09,.18,.37,.14,.56-.12,.44-.23,.89-.37,1.32-.08,.29-.34,.52-.64,.54-.28,.02-.56,0-.85,.01,0-.19,.07-.37,.12-.55,.18-.65,.35-1.3,.53-1.95,.18,0,.36-.01,.54-.01Z"/><path class="cls-6" d="M516.25,153.16c.36-.26,.84-.12,1.26-.15-.09,.43-.23,.84-.34,1.27-.47,.03-.95,.03-1.42,0,.08-.4,.15-.85,.5-1.12Z"/><path class="cls-6" d="M477.95,154.86c.88,.02,1.77,0,2.65,.01,.37,.03,.79,.12,1.02,.44,.24,.33,.21,.77,.13,1.15-.26,1.07-.57,2.13-.84,3.2-.47,.01-.94,0-1.41,0,.19-.9,.46-1.78,.68-2.67,.06-.27,.24-.63,0-.86-.34-.2-.75-.09-1.13-.11-.32,1.21-.65,2.42-.97,3.64-.47,.02-.95,0-1.42,.01,.04-.29,.13-.56,.2-.84,.36-1.32,.69-2.65,1.07-3.96Z"/><path class="cls-6" d="M483.42,154.86c.47,0,.94,0,1.41,0-.25,1.02-.55,2.03-.8,3.05-.07,.21-.02,.52,.23,.57,.32,.06,.66,.02,.99,.02,.34-1.21,.65-2.43,.99-3.65,.47,0,.94,0,1.41,0-.05,.37-.18,.71-.27,1.07-.33,1.25-.66,2.49-.99,3.74-.83,.01-1.67,0-2.5,0-.37,0-.77-.05-1.06-.29-.34-.3-.38-.8-.28-1.21,.2-.85,.44-1.69,.67-2.54,.06-.26,.12-.51,.21-.76Z"/><path class="cls-6" d="M510.83,154.86c-.83,0-1.65,0-2.48,0-.61,0-1.27,.19-1.67,.68-.43,.46-.54,1.11-.7,1.7-.11,.48-.32,.97-.19,1.47,.08,.4,.46,.67,.85,.72,.51,.08,1.03,0,1.55,.05-.05,.42-.43,.75-.85,.76-.58,.02-1.16,0-1.74,0-.11,.4-.23,.79-.31,1.19,.39,.03,.78,0,1.16,.02,.73,0,1.52,.05,2.17-.37,.59-.37,.87-1.05,1.03-1.7,.37-1.36,.73-2.73,1.1-4.09,.04-.15,.08-.3,.09-.45Zm-2.31,1.15c.2,0,.4,.01,.59,0-.13,.69-.36,1.35-.53,2.03-.04,.11-.05,.3-.22,.28-.32,0-.67,.06-.97-.08-.25-.22-.09-.58-.03-.85,.14-.44,.16-.99,.58-1.27,.18-.09,.37-.12,.57-.12Z"/><path class="cls-6" d="M518.24,154.87c.79,0,1.57,0,2.36,0,.43,0,.92,.03,1.25,.35,.32,.34,.31,.84,.21,1.26-.28,1.06-.57,2.12-.85,3.19-.48,0-.95,0-1.43,0,.25-1.05,.57-2.08,.81-3.14,.06-.21-.08-.46-.3-.49-.3-.05-.61-.02-.92-.02-.34,1.21-.65,2.44-.99,3.65-.47,0-.95,.01-1.42,0,.4-1.6,.85-3.2,1.27-4.8Z"/><path class="cls-6" d="M489.63,155.05c.6-.26,1.27-.18,1.91-.18-.07,.42-.2,.82-.3,1.23-.38,.03-.8-.08-1.13,.16-.26,.18-.3,.52-.38,.8-.23,.86-.46,1.72-.69,2.59-.47,.02-.94,0-1.41,0,.04-.3,.13-.59,.21-.88,.22-.78,.41-1.58,.63-2.36,.18-.59,.58-1.13,1.16-1.37Z"/><path class="cls-6" d="M496.98,157.74c.27-.96,.5-1.92,.77-2.87,.47,0,.94,0,1.41,0-.24,1.07-.58,2.11-.82,3.18-.04,.2,.1,.43,.32,.45,.31,.03,.62,.01,.93,.01,.32-1.21,.65-2.43,.97-3.64,.47,0,.94,0,1.41,0-.38,1.6-.84,3.19-1.25,4.78-.85,.03-1.71,0-2.56,.01-.44,.01-.94-.11-1.19-.5-.25-.44-.13-.97,0-1.43Z"/><path class="cls-6" d="M504.08,155.01c.58-.2,1.21-.14,1.81-.14-.09,.41-.22,.82-.31,1.23-.36,.03-.76-.07-1.09,.13-.26,.16-.34,.47-.41,.74-.2,.82-.45,1.62-.64,2.44-.04,.08-.03,.26-.16,.25-.45,0-.89,0-1.34,0,.31-1.12,.58-2.24,.91-3.36,.19-.58,.64-1.1,1.23-1.3Z"/><path class="cls-6" d="M512.59,155.17c.65-.38,1.44-.31,2.16-.3-.08,.42-.21,.83-.32,1.24-.32,.01-.66-.04-.97,.06-.29,.13-.42,.45-.49,.74-.23,.92-.49,1.83-.73,2.75-.47,0-.95,0-1.42,0,.25-1.05,.54-2.08,.82-3.12,.13-.55,.47-1.06,.95-1.37Z"/><path class="cls-6" d="M514.31,159.66c.41-1.6,.84-3.2,1.28-4.8,.46,0,.93,0,1.39,0-.04,.27-.11,.53-.19,.79-.34,1.32-.7,2.64-1.05,3.96l-.03,.03c-.47,.02-.94,0-1.4,0Z"/><path class="cls-6" d="M525.45,154.87c-.37,0-.74,.03-1.08,.18-.4,.17-.72,.48-.94,.84-.27,.46-.34,1-.49,1.5-.13,.45-.28,.93-.14,1.4,.09,.34,.41,.56,.74,.64,.54,.1,1.1,0,1.64,.07-.06,.43-.46,.77-.9,.76-.56,0-1.11,0-1.66,0-.16,.38-.24,.8-.34,1.2,.67,.02,1.35,.02,2.02,0,.59-.02,1.22-.17,1.63-.6,.49-.5,.64-1.19,.82-1.84,.36-1.38,.75-2.75,1.09-4.14-.8,0-1.6,0-2.39,0Zm.11,1.14c.19,0,.38,.01,.56,0-.19,.77-.41,1.53-.62,2.3-.29,.03-.58,.03-.87,.01-.18-.01-.37-.15-.37-.35,0-.36,.15-.7,.23-1.05,.08-.32,.19-.69,.53-.83,.18-.07,.36-.09,.54-.09Z"/><path class="cls-4" d="M481.51,161.75c.19-.07,.4-.03,.59-.04,.56,.02,1.12-.04,1.67,.04-1.09,1.15-2.25,2.22-3.36,3.35-1.21,1.18-2.4,2.38-3.6,3.58-.15,.17-.37,.23-.59,.22-1.23,0-2.47,0-3.7,0-.29,.01-.54-.16-.76-.33,0,.09,0,.18-.01,.27-.05-.43,0-.87-.02-1.3,.01-.33-.03-.66,.03-.98,.16-.22,.47-.12,.7-.14,.51,.04,1.03-.07,1.53,.06,.02,.25,.05,.5,.07,.76,.47,.06,.93,.02,1.4,.03,.21,0,.46,.03,.61-.14,1.04-1.04,2.07-2.08,3.11-3.11,.59-.55,1.15-1.13,1.72-1.7,.2-.19,.37-.41,.6-.57Z"/><path class="cls-4" d="M470.3,164.15c.33-.1,.67-.07,1.01-.07-.06,.1-.12,.2-.19,.3,.1,.03,.19,.07,.28,.11h-.07c-.1-.02-.21-.04-.31-.05-.39,.33-.72,.71-1.09,1.06-.17,.17-.36,.33-.49,.53-.08,.13-.05,.3-.05,.44-.02,1.33,0,2.65-.01,3.98-.82,.79-1.61,1.6-2.41,2.4-.15,.16-.39,.41-.18,.61,.2,.13,.45,.09,.68,.1,.59-.01,1.19,.01,1.78,0,.32,0,.57-.21,.83-.37,.12,.16,.13,.35,.14,.55-.5,.45-.96,.94-1.44,1.41-.29,.28-.55,.62-.93,.78-.34,.14-.71,.11-1.07,.11-.91-.01-1.83-.01-2.74,0-.25,.01-.48-.09-.7-.2,.01-.18-.02-.39,.08-.55,.16-.24,.39-.43,.6-.63,.88-.88,1.78-1.73,2.63-2.64,.22-.19,.17-.5,.18-.76-.02-1.09,0-2.19-.01-3.28,0-.22,0-.46,.15-.63,.18-.23,.41-.41,.61-.62,.67-.67,1.35-1.34,2.02-2.02,.21-.21,.41-.45,.7-.54Z"/></g></g><g><path class="cls-2" d="M3.07,450h1.92c.07,.33,.22,.62,.43,.88,.48,.59,1.16,.88,2.05,.88,.74,0,1.32-.18,1.75-.55,.43-.37,.65-.82,.65-1.37,0-.62-.2-1.11-.58-1.46-.39-.36-.94-.54-1.66-.54h-2.72v-1.6l3.36-2.4v-.08H3.63v-1.76h7.36v1.74l-2.88,2.1-.8,.32v.08l.26-.03c.35-.03,.56-.05,.62-.05,1,0,1.84,.35,2.51,1.04s1.01,1.57,1.01,2.64-.39,1.89-1.18,2.61c-.79,.71-1.81,1.07-3.06,1.07-1.65,0-2.88-.59-3.66-1.76-.34-.5-.59-1.09-.74-1.76Z"/><path class="cls-2" d="M14.51,451.85c-1.01-1.11-1.52-2.53-1.52-4.26s.51-3.15,1.52-4.26c1.01-1.11,2.24-1.66,3.68-1.66s2.67,.55,3.68,1.66c1.01,1.11,1.52,2.53,1.52,4.26s-.51,3.15-1.52,4.26c-1.01,1.11-2.24,1.66-3.68,1.66s-2.67-.55-3.68-1.66Zm1.32-7.33c-.61,.73-.92,1.75-.92,3.07s.31,2.35,.92,3.07c.61,.72,1.4,1.09,2.36,1.09s1.75-.36,2.36-1.09c.61-.73,.92-1.75,.92-3.07s-.31-2.35-.92-3.07c-.61-.73-1.4-1.09-2.36-1.09s-1.75,.36-2.36,1.09Z"/><path class="cls-2" d="M26.35,451.85c-1.01-1.11-1.52-2.53-1.52-4.26s.51-3.15,1.52-4.26c1.01-1.11,2.24-1.66,3.68-1.66s2.67,.55,3.68,1.66c1.01,1.11,1.52,2.53,1.52,4.26s-.51,3.15-1.52,4.26c-1.01,1.11-2.24,1.66-3.68,1.66s-2.67-.55-3.68-1.66Zm1.32-7.33c-.61,.73-.92,1.75-.92,3.07s.31,2.35,.92,3.07c.61,.72,1.4,1.09,2.36,1.09s1.75-.36,2.36-1.09c.61-.73,.92-1.75,.92-3.07s-.31-2.35-.92-3.07c-.61-.73-1.4-1.09-2.36-1.09s-1.75,.36-2.36,1.09Z"/><path class="cls-2" d="M37.07,453.2v-11.2h1.84v4.64h1.84l3.36-4.64h2.16l-3.92,5.36,4.08,5.84h-2.24l-3.36-4.8h-1.92v4.8h-1.84Z"/><path class="cls-2" d="M47.47,453.2v-8.16h1.68v1.12h.08c.14-.23,.32-.45,.54-.64,.51-.43,1.13-.64,1.86-.64,.86,0,1.56,.26,2.1,.77,.22,.21,.41,.46,.54,.75h.08c.15-.28,.36-.53,.62-.75,.58-.51,1.3-.77,2.18-.77,.95,0,1.69,.3,2.23,.89,.54,.59,.81,1.44,.81,2.55v4.88h-1.68v-4.8c0-1.33-.59-2-1.76-2-.57,0-1.05,.22-1.46,.66-.41,.44-.62,1-.62,1.66v4.48h-1.68v-4.8c0-1.33-.59-2-1.76-2-.57,0-1.05,.22-1.46,.66s-.62,1-.62,1.66v4.48h-1.68Z"/><path class="cls-2" d="M3.07,467h1.92c.07,.33,.22,.62,.43,.88,.48,.59,1.16,.88,2.05,.88,.74,0,1.32-.18,1.75-.55,.43-.37,.65-.82,.65-1.37,0-.62-.2-1.11-.58-1.46-.39-.36-.94-.54-1.66-.54h-2.72v-1.6l3.36-2.4v-.08H3.63v-1.76h7.36v1.74l-2.88,2.1-.8,.32v.08l.26-.03c.35-.03,.56-.05,.62-.05,1,0,1.84,.35,2.51,1.04s1.01,1.57,1.01,2.64-.39,1.89-1.18,2.61c-.79,.71-1.81,1.07-3.06,1.07-1.65,0-2.88-.59-3.66-1.76-.34-.5-.59-1.09-.74-1.76Z"/><path class="cls-2" d="M13.23,470.2v-11.2h1.68v4.16h.08c.13-.21,.33-.43,.59-.64,.58-.43,1.23-.64,1.97-.64,1.01,0,1.8,.29,2.36,.88,.56,.59,.84,1.44,.84,2.56v4.88h-1.68v-4.72c0-.71-.16-1.24-.47-1.58s-.8-.5-1.45-.5-1.19,.22-1.61,.66c-.42,.44-.63,1.02-.63,1.74v4.4h-1.68Z"/><path class="cls-2" d="M27.23,470.2v-11.2h3.76c1.74,0,3.17,.54,4.3,1.62,1.13,1.08,1.7,2.41,1.7,3.98s-.57,2.91-1.7,3.98c-1.13,1.08-2.57,1.62-4.3,1.62h-3.76Zm1.84-1.76h1.92c1.23,0,2.21-.36,2.96-1.07,.75-.71,1.12-1.64,1.12-2.77s-.37-2.05-1.12-2.77c-.75-.71-1.73-1.07-2.96-1.07h-1.92v7.68Z"/><path class="cls-2" d="M38.59,470.2v-8.16h1.68v1.2h.08c.12-.22,.29-.44,.51-.64,.49-.43,1.07-.64,1.73-.64h.96v1.6h-1.04c-.65,0-1.19,.21-1.61,.62-.42,.41-.63,.95-.63,1.62v4.4h-1.68Z"/><path class="cls-2" d="M44.96,460.55c-.19-.19-.29-.43-.29-.7s.1-.51,.29-.71c.19-.2,.43-.3,.7-.3s.51,.1,.71,.3,.3,.43,.3,.71-.1,.51-.3,.7c-.2,.19-.43,.29-.71,.29s-.51-.1-.7-.29Zm-.13,9.65v-8.16h1.68v8.16h-1.68Z"/><path class="cls-2" d="M47.63,462.04h1.76l1.76,6.64h1.04l1.76-6.64h1.76l-2.24,8.16h-3.6l-2.24-8.16Z"/><path class="cls-2" d="M57.56,469.13c-.81-.82-1.21-1.82-1.21-3.02s.4-2.2,1.21-3.02c.8-.82,1.79-1.22,2.95-1.22s2.15,.41,2.95,1.22,1.21,1.82,1.21,3.02v.56h-6.64c.13,.67,.42,1.2,.88,1.58,.46,.38,.99,.58,1.6,.58,.75,0,1.34-.19,1.79-.56,.2-.15,.38-.34,.53-.56h1.76c-.22,.52-.51,.96-.85,1.33-.88,.87-1.95,1.31-3.23,1.31-1.16,0-2.15-.41-2.95-1.22Zm.55-3.82h4.8c-.1-.53-.35-.99-.76-1.36-.41-.37-.96-.56-1.64-.56-.58,0-1.09,.17-1.54,.52-.45,.35-.74,.81-.86,1.4Z"/><path class="cls-2" d="M69.95,463.56v-1.52h.96v-1.76h1.68v1.76h2.48v1.52h-2.48v5.12h2.56v1.52h-4.24v-6.64h-.96Z"/><path class="cls-2" d="M76.72,460.55c-.19-.19-.29-.43-.29-.7s.1-.51,.29-.71c.19-.2,.43-.3,.7-.3s.51,.1,.71,.3,.3,.43,.3,.71-.1,.51-.3,.7c-.2,.19-.43,.29-.71,.29s-.51-.1-.7-.29Zm-.13,9.65v-8.16h1.68v8.16h-1.68Z"/><path class="cls-2" d="M80.19,470.2v-8.16h1.68v1.12h.08c.14-.23,.32-.45,.54-.64,.51-.43,1.13-.64,1.86-.64,.86,0,1.56,.26,2.1,.77,.22,.21,.41,.46,.54,.75h.08c.15-.28,.36-.53,.62-.75,.58-.51,1.3-.77,2.18-.77,.95,0,1.69,.3,2.23,.89,.54,.59,.81,1.44,.81,2.55v4.88h-1.68v-4.8c0-1.33-.59-2-1.76-2-.57,0-1.05,.22-1.46,.66-.41,.44-.62,1-.62,1.66v4.48h-1.68v-4.8c0-1.33-.59-2-1.76-2-.57,0-1.05,.22-1.46,.66s-.62,1-.62,1.66v4.48h-1.68Z"/><path class="cls-2" d="M95.48,469.13c-.81-.82-1.21-1.82-1.21-3.02s.4-2.2,1.21-3.02c.8-.82,1.79-1.22,2.95-1.22s2.15,.41,2.95,1.22,1.21,1.82,1.21,3.02v.56h-6.64c.13,.67,.42,1.2,.88,1.58,.46,.38,.99,.58,1.6,.58,.75,0,1.34-.19,1.79-.56,.2-.15,.38-.34,.53-.56h1.76c-.22,.52-.51,.96-.85,1.33-.88,.87-1.95,1.31-3.23,1.31-1.16,0-2.15-.41-2.95-1.22Zm.55-3.82h4.8c-.1-.53-.35-.99-.76-1.36-.41-.37-.96-.56-1.64-.56-.58,0-1.09,.17-1.54,.52-.45,.35-.74,.81-.86,1.4Z"/></g><g><path class="cls-2" d="M2.41,397.64v-1.76l3.82-2.7c.83-.6,1.43-1.15,1.79-1.66,.36-.51,.54-1.06,.54-1.63,0-.61-.19-1.09-.56-1.46-.37-.36-.88-.54-1.52-.54-.79,0-1.38,.32-1.78,.96-.17,.28-.3,.6-.38,.96h-1.92c.1-.68,.3-1.3,.62-1.84,.76-1.23,1.91-1.84,3.46-1.84,1.18,0,2.15,.35,2.89,1.05,.74,.7,1.11,1.58,1.11,2.63,0,.92-.23,1.74-.7,2.47-.47,.73-1.22,1.45-2.26,2.17l-1.6,1.12-.72,.32v.08l.96-.08h4.32v1.76H2.41Z"/><path class="cls-2" d="M13.37,396.29c-1.01-1.11-1.52-2.53-1.52-4.26s.51-3.15,1.52-4.26c1.01-1.11,2.24-1.66,3.68-1.66s2.67,.55,3.68,1.66c1.01,1.11,1.52,2.53,1.52,4.26s-.51,3.15-1.52,4.26c-1.01,1.11-2.24,1.66-3.68,1.66s-2.67-.55-3.68-1.66Zm1.32-7.33c-.61,.73-.92,1.75-.92,3.07s.31,2.35,.92,3.07,1.4,1.09,2.36,1.09,1.75-.36,2.36-1.09c.61-.73,.92-1.75,.92-3.07s-.31-2.35-.92-3.07c-.61-.73-1.4-1.09-2.36-1.09s-1.75,.36-2.36,1.09Z"/><path class="cls-2" d="M25.21,396.29c-1.01-1.11-1.52-2.53-1.52-4.26s.51-3.15,1.52-4.26c1.01-1.11,2.24-1.66,3.68-1.66s2.67,.55,3.68,1.66c1.01,1.11,1.52,2.53,1.52,4.26s-.51,3.15-1.52,4.26c-1.01,1.11-2.24,1.66-3.68,1.66s-2.67-.55-3.68-1.66Zm1.32-7.33c-.61,.73-.92,1.75-.92,3.07s.31,2.35,.92,3.07,1.4,1.09,2.36,1.09,1.75-.36,2.36-1.09c.61-.73,.92-1.75,.92-3.07s-.31-2.35-.92-3.07c-.61-.73-1.4-1.09-2.36-1.09s-1.75,.36-2.36,1.09Z"/><path class="cls-2" d="M35.93,397.64v-11.2h1.84v4.64h1.84l3.36-4.64h2.16l-3.92,5.36,4.08,5.84h-2.24l-3.36-4.8h-1.92v4.8h-1.84Z"/><path class="cls-2" d="M46.33,397.64v-8.16h1.68v1.12h.08c.14-.23,.32-.45,.54-.64,.51-.43,1.13-.64,1.86-.64,.86,0,1.56,.26,2.1,.77,.22,.21,.41,.46,.54,.75h.08c.15-.28,.36-.53,.62-.75,.58-.51,1.3-.77,2.18-.77,.95,0,1.69,.3,2.23,.89,.54,.59,.81,1.44,.81,2.55v4.88h-1.68v-4.8c0-1.33-.59-2-1.76-2-.57,0-1.05,.22-1.46,.66-.41,.44-.62,1-.62,1.66v4.48h-1.68v-4.8c0-1.33-.59-2-1.76-2-.57,0-1.05,.22-1.46,.66-.41,.44-.62,1-.62,1.66v4.48h-1.68Z"/><path class="cls-2" d="M2.41,414.64v-1.76l3.82-2.7c.83-.6,1.43-1.15,1.79-1.66,.36-.51,.54-1.06,.54-1.63,0-.61-.19-1.09-.56-1.46-.37-.36-.88-.54-1.52-.54-.79,0-1.38,.32-1.78,.96-.17,.28-.3,.6-.38,.96h-1.92c.1-.68,.3-1.3,.62-1.84,.76-1.23,1.91-1.84,3.46-1.84,1.18,0,2.15,.35,2.89,1.05,.74,.7,1.11,1.58,1.11,2.63,0,.92-.23,1.74-.7,2.47-.47,.73-1.22,1.45-2.26,2.17l-1.6,1.12-.72,.32v.08l.96-.08h4.32v1.76H2.41Z"/><path class="cls-2" d="M12.09,414.64v-11.2h1.68v4.16h.08c.13-.21,.33-.43,.59-.64,.58-.43,1.23-.64,1.97-.64,1.01,0,1.8,.29,2.36,.88,.56,.59,.84,1.44,.84,2.56v4.88h-1.68v-4.72c0-.71-.16-1.24-.47-1.58s-.8-.5-1.45-.5-1.19,.22-1.61,.66c-.42,.44-.63,1.02-.63,1.74v4.4h-1.68Z"/><path class="cls-2" d="M26.09,414.64v-11.2h3.76c1.74,0,3.17,.54,4.3,1.62,1.13,1.08,1.7,2.41,1.7,3.98s-.57,2.91-1.7,3.98c-1.13,1.08-2.57,1.62-4.3,1.62h-3.76Zm1.84-1.76h1.92c1.23,0,2.21-.36,2.96-1.07s1.12-1.64,1.12-2.77-.37-2.05-1.12-2.77-1.73-1.07-2.96-1.07h-1.92v7.68Z"/><path class="cls-2" d="M37.45,414.64v-8.16h1.68v1.2h.08c.12-.22,.29-.44,.51-.64,.49-.43,1.07-.64,1.73-.64h.96v1.6h-1.04c-.65,0-1.19,.21-1.61,.62-.42,.41-.63,.95-.63,1.62v4.4h-1.68Z"/><path class="cls-2" d="M43.82,404.99c-.19-.19-.29-.43-.29-.7s.1-.51,.29-.71c.19-.2,.43-.3,.7-.3s.51,.1,.71,.3,.3,.43,.3,.71-.1,.51-.3,.7c-.2,.19-.43,.29-.71,.29s-.51-.1-.7-.29Zm-.13,9.65v-8.16h1.68v8.16h-1.68Z"/><path class="cls-2" d="M46.49,406.48h1.76l1.76,6.64h1.04l1.76-6.64h1.76l-2.24,8.16h-3.6l-2.24-8.16Z"/><path class="cls-2" d="M56.42,413.57c-.81-.82-1.21-1.82-1.21-3.02s.4-2.2,1.21-3.02c.8-.82,1.79-1.22,2.95-1.22s2.15,.41,2.95,1.22c.81,.82,1.21,1.82,1.21,3.02v.56h-6.64c.13,.67,.42,1.2,.88,1.58,.46,.38,.99,.58,1.6,.58,.75,0,1.34-.19,1.79-.56,.2-.15,.38-.34,.53-.56h1.76c-.22,.52-.51,.97-.85,1.33-.88,.88-1.95,1.31-3.23,1.31-1.16,0-2.15-.41-2.95-1.22Zm.55-3.82h4.8c-.1-.53-.35-.99-.76-1.36-.41-.37-.96-.56-1.64-.56-.58,0-1.09,.17-1.54,.52-.45,.35-.74,.81-.86,1.4Z"/><path class="cls-2" d="M68.81,408v-1.52h.96v-1.76h1.68v1.76h2.48v1.52h-2.48v5.12h2.56v1.52h-4.24v-6.64h-.96Z"/><path class="cls-2" d="M75.58,404.99c-.19-.19-.29-.43-.29-.7s.1-.51,.29-.71c.19-.2,.43-.3,.7-.3s.51,.1,.71,.3,.3,.43,.3,.71-.1,.51-.3,.7c-.2,.19-.43,.29-.71,.29s-.51-.1-.7-.29Zm-.13,9.65v-8.16h1.68v8.16h-1.68Z"/><path class="cls-2" d="M79.05,414.64v-8.16h1.68v1.12h.08c.14-.23,.32-.45,.54-.64,.51-.43,1.13-.64,1.86-.64,.86,0,1.56,.26,2.1,.77,.22,.21,.41,.46,.54,.75h.08c.15-.28,.36-.53,.62-.75,.58-.51,1.3-.77,2.18-.77,.95,0,1.69,.3,2.23,.89,.54,.59,.81,1.44,.81,2.55v4.88h-1.68v-4.8c0-1.33-.59-2-1.76-2-.57,0-1.05,.22-1.46,.66-.41,.44-.62,1-.62,1.66v4.48h-1.68v-4.8c0-1.33-.59-2-1.76-2-.57,0-1.05,.22-1.46,.66-.41,.44-.62,1-.62,1.66v4.48h-1.68Z"/><path class="cls-2" d="M94.34,413.57c-.81-.82-1.21-1.82-1.21-3.02s.4-2.2,1.21-3.02c.8-.82,1.79-1.22,2.95-1.22s2.15,.41,2.95,1.22c.81,.82,1.21,1.82,1.21,3.02v.56h-6.64c.13,.67,.42,1.2,.88,1.58,.46,.38,.99,.58,1.6,.58,.75,0,1.34-.19,1.79-.56,.2-.15,.38-.34,.53-.56h1.76c-.22,.52-.51,.97-.85,1.33-.88,.88-1.95,1.31-3.23,1.31-1.16,0-2.15-.41-2.95-1.22Zm.55-3.82h4.8c-.1-.53-.35-.99-.76-1.36-.41-.37-.96-.56-1.64-.56-.58,0-1.09,.17-1.54,.52-.45,.35-.74,.81-.86,1.4Z"/></g><polyline class="cls-8" points="284.72 304.46 165.83 423.36 0 423.36"/><polyline class="cls-8" points="202.11 442.41 165.83 478.69 0 478.69"/><circle class="cls-2" cx="279.46" cy="61.38" r="7.09"/><circle class="cls-2" cx="390.75" cy="59.93" r="7.09"/><circle class="cls-2" cx="227.06" cy="31.28" r="7.09"/><circle class="cls-2" cx="175.51" cy="88.54" r="7.09"/><circle class="cls-2" cx="252.76" cy="257.54" r="7.09"/><circle class="cls-2" cx="424.24" cy="274.86" r="7.09"/><circle class="cls-2" cx="613.4" cy="222.94" r="7.09"/><circle class="cls-2" cx="553.46" cy="237.82" r="7.38"/><circle class="cls-2" cx="543.81" cy="123.32" r="7.09"/><circle class="cls-2" cx="489.18" cy="44.03" r="7.09"/><circle class="cls-2" cx="645.81" cy="163.55" r="7.09"/><ellipse class="cls-2" cx="469.42" cy="199.09" rx="7.27" ry="6.7"/><circle class="cls-2" cx="426.9" cy="338.75" r="7.09"/><circle class="cls-2" cx="549.27" cy="348.35" r="7.09"/><circle class="cls-2" cx="329.91" cy="499.32" r="7.09"/><circle class="cls-2" cx="559.71" cy="482.11" r="7.09"/><circle class="cls-2" cx="116.13" cy="308.21" r="12.04"/><circle class="cls-2" cx="112.13" cy="176.87" r="7.09"/><circle class="cls-2" cx="670.88" cy="336.1" r="7.09"/><g><path class="cls-4" d="M219.17,64.11v-8.4h4.14c.79,0,1.42,.21,1.88,.62,.46,.41,.7,.93,.7,1.54s-.21,1.09-.64,1.42c-.18,.14-.38,.24-.62,.32v.06c.3,.06,.56,.17,.78,.32,.52,.38,.78,.95,.78,1.72,0,.71-.26,1.29-.77,1.73-.51,.44-1.24,.67-2.17,.67h-4.08Zm1.38-4.98h2.7c.38,0,.68-.1,.89-.29,.21-.19,.31-.46,.31-.8,0-.3-.1-.55-.31-.73s-.5-.28-.89-.28h-2.7v2.1Zm0,3.66h2.64c1.04,0,1.56-.4,1.56-1.2s-.52-1.2-1.56-1.2h-2.64v2.4Z"/><path class="cls-4" d="M227.51,64.11v-6.12h1.26v.9h.06c.09-.17,.22-.33,.38-.48,.37-.32,.8-.48,1.3-.48h.72v1.2h-.78c-.49,0-.89,.15-1.21,.46s-.47,.71-.47,1.22v3.3h-1.26Z"/><path class="cls-4" d="M232.19,61.65v-3.66h1.26v3.54c0,.54,.12,.93,.35,1.18,.24,.25,.6,.38,1.09,.38s.89-.17,1.21-.5c.32-.33,.47-.77,.47-1.3v-3.3h1.26v6.12h-1.26v-.84h-.06c-.1,.16-.24,.32-.44,.48-.43,.32-.92,.48-1.48,.48-.76,0-1.35-.22-1.77-.66-.42-.44-.63-1.08-.63-1.92Z"/><path class="cls-4" d="M238.85,62.19h1.38c.06,.16,.16,.31,.3,.46,.3,.3,.7,.44,1.2,.44,.44,0,.76-.07,.96-.2s.3-.31,.3-.52c0-.07-.02-.14-.05-.2-.03-.06-.09-.11-.17-.16s-.16-.09-.23-.13c-.07-.04-.18-.07-.32-.11-.14-.04-.26-.06-.35-.08-.09-.02-.22-.05-.4-.09s-.31-.07-.4-.08c-1.28-.29-1.92-.9-1.92-1.85,0-.48,.22-.9,.66-1.26,.44-.36,1.02-.54,1.74-.54,1,0,1.75,.32,2.24,.96,.22,.28,.38,.6,.46,.96h-1.32c-.06-.16-.15-.29-.26-.38-.28-.26-.65-.4-1.12-.4-.36,0-.63,.06-.81,.19-.18,.13-.27,.29-.27,.48,0,.07,.02,.14,.05,.2,.03,.06,.09,.11,.17,.16,.08,.05,.16,.09,.23,.12,.08,.03,.18,.07,.32,.1s.25,.06,.35,.08c.1,.02,.23,.05,.4,.08s.31,.07,.4,.09c1.28,.29,1.92,.9,1.92,1.85,0,.51-.23,.95-.69,1.31s-1.09,.55-1.89,.55c-1.04,0-1.84-.34-2.39-1.02-.25-.31-.41-.65-.49-1.02Z"/><path class="cls-4" d="M244.97,62.19h1.38c.06,.16,.16,.31,.3,.46,.3,.3,.7,.44,1.2,.44,.44,0,.76-.07,.96-.2,.2-.14,.3-.31,.3-.52,0-.07-.02-.14-.05-.2-.03-.06-.09-.11-.17-.16-.08-.05-.16-.09-.23-.13s-.18-.07-.32-.11c-.14-.04-.26-.06-.35-.08-.09-.02-.22-.05-.4-.09-.18-.04-.31-.07-.4-.08-1.28-.29-1.92-.9-1.92-1.85,0-.48,.22-.9,.66-1.26,.44-.36,1.02-.54,1.74-.54,1,0,1.75,.32,2.24,.96,.22,.28,.38,.6,.46,.96h-1.32c-.06-.16-.15-.29-.26-.38-.28-.26-.65-.4-1.12-.4-.36,0-.63,.06-.81,.19-.18,.13-.27,.29-.27,.48,0,.07,.02,.14,.05,.2,.03,.06,.09,.11,.17,.16,.08,.05,.16,.09,.23,.12,.08,.03,.18,.07,.32,.1,.14,.04,.25,.06,.35,.08,.1,.02,.23,.05,.4,.08s.31,.07,.4,.09c1.28,.29,1.92,.9,1.92,1.85,0,.51-.23,.95-.69,1.31s-1.09,.55-1.89,.55c-1.04,0-1.84-.34-2.39-1.02-.25-.31-.41-.65-.49-1.02Z"/><path class="cls-4" d="M252.06,63.31c-.6-.61-.91-1.37-.91-2.26s.3-1.65,.91-2.26c.6-.61,1.34-.92,2.21-.92s1.61,.31,2.21,.92c.6,.61,.91,1.37,.91,2.26v.42h-4.98c.1,.5,.32,.9,.66,1.19s.74,.43,1.2,.43c.56,0,1.01-.14,1.34-.42,.15-.11,.28-.25,.4-.42h1.32c-.17,.39-.38,.72-.64,1-.66,.66-1.46,.98-2.42,.98-.87,0-1.61-.31-2.21-.92Zm.41-2.86h3.6c-.07-.4-.26-.74-.57-1.02-.31-.28-.72-.42-1.23-.42-.43,0-.82,.13-1.15,.39-.34,.26-.55,.61-.65,1.05Z"/><path class="cls-4" d="M258.47,64.11v-8.4h1.26v7.26h1.38v1.14h-2.64Z"/><path class="cls-4" d="M261.53,62.19h1.38c.06,.16,.16,.31,.3,.46,.3,.3,.7,.44,1.2,.44,.44,0,.76-.07,.96-.2s.3-.31,.3-.52c0-.07-.02-.14-.05-.2-.03-.06-.09-.11-.17-.16s-.16-.09-.23-.13c-.07-.04-.18-.07-.32-.11-.14-.04-.26-.06-.35-.08-.09-.02-.22-.05-.4-.09s-.31-.07-.4-.08c-1.28-.29-1.92-.9-1.92-1.85,0-.48,.22-.9,.66-1.26,.44-.36,1.02-.54,1.74-.54,1,0,1.75,.32,2.24,.96,.22,.28,.38,.6,.46,.96h-1.32c-.06-.16-.15-.29-.26-.38-.28-.26-.65-.4-1.12-.4-.36,0-.63,.06-.81,.19-.18,.13-.27,.29-.27,.48,0,.07,.02,.14,.05,.2,.03,.06,.09,.11,.17,.16,.08,.05,.16,.09,.23,.12,.08,.03,.18,.07,.32,.1s.25,.06,.35,.08c.1,.02,.23,.05,.4,.08s.31,.07,.4,.09c1.28,.29,1.92,.9,1.92,1.85,0,.51-.23,.95-.69,1.31s-1.09,.55-1.89,.55c-1.04,0-1.84-.34-2.39-1.02-.25-.31-.41-.65-.49-1.02Z"/></g><g><path class="cls-4" d="M185.93,33.12c-.86-.84-1.3-1.9-1.3-3.18s.43-2.34,1.3-3.18c.86-.84,1.93-1.26,3.2-1.26,1.46,0,2.59,.51,3.41,1.54,.36,.44,.62,.95,.79,1.52h-1.38c-.14-.32-.34-.61-.6-.86-.58-.58-1.32-.88-2.22-.88s-1.64,.29-2.21,.86c-.57,.58-.85,1.33-.85,2.26s.28,1.68,.85,2.26c.57,.58,1.3,.86,2.21,.86s1.72-.34,2.32-1.02c.26-.31,.45-.65,.56-1.02h-1.5v-1.32h3.9v1.32h-1.02c-.18,.63-.46,1.19-.83,1.68-.86,1.12-2.01,1.68-3.43,1.68-1.27,0-2.34-.42-3.2-1.26Z"/><path class="cls-4" d="M195.71,33.38c-.55-.59-.82-1.35-.82-2.3s.27-1.71,.82-2.3,1.23-.88,2.06-.88c.52,0,1,.15,1.43,.46,.18,.13,.35,.28,.49,.44h.06v-.78h1.26v6.12h-1.26v-.84h-.06c-.12,.17-.28,.33-.49,.48-.43,.32-.91,.48-1.43,.48-.82,0-1.51-.29-2.06-.88Zm.98-3.81c-.32,.35-.48,.86-.48,1.51s.16,1.16,.48,1.51c.32,.35,.76,.53,1.32,.53,.53,0,.95-.18,1.27-.54,.32-.36,.47-.86,.47-1.51s-.16-1.15-.47-1.51c-.32-.36-.74-.53-1.27-.53-.56,0-1,.18-1.32,.53Z"/><path class="cls-4" d="M202.45,34.14v-6.12h1.26v.84h.06c.1-.16,.24-.32,.44-.48,.43-.32,.92-.48,1.48-.48,.76,0,1.35,.22,1.77,.66s.63,1.08,.63,1.92v3.66h-1.26v-3.54c0-.54-.12-.93-.35-1.18-.24-.25-.6-.38-1.09-.38s-.89,.17-1.21,.5c-.32,.33-.47,.77-.47,1.3v3.3h-1.26Z"/><path class="cls-4" d="M209.93,33.38c-.55-.59-.82-1.35-.82-2.3s.27-1.71,.82-2.3c.55-.59,1.23-.88,2.06-.88,.52,0,1,.15,1.43,.46,.18,.13,.35,.28,.49,.44h.06v-3.06h1.26v8.4h-1.26v-.78h-.06c-.14,.17-.3,.32-.49,.46-.42,.3-.9,.44-1.43,.44-.82,0-1.51-.29-2.06-.88Zm.98-3.81c-.32,.35-.48,.86-.48,1.51s.16,1.16,.48,1.51,.76,.53,1.32,.53c.53,0,.95-.18,1.27-.54,.32-.36,.47-.86,.47-1.51s-.16-1.15-.47-1.51c-.32-.36-.74-.53-1.27-.53-.56,0-1,.18-1.32,.53Z"/></g><g><path class="cls-4" d="M142.63,91.93v-8.4h1.38v7.08h4.26v1.32h-5.64Z"/><path class="cls-4" d="M149.08,84.69c-.14-.14-.22-.32-.22-.53s.07-.39,.22-.53c.14-.15,.32-.22,.53-.22s.39,.07,.53,.22c.15,.15,.22,.33,.22,.53s-.07,.38-.22,.53c-.15,.14-.33,.22-.53,.22s-.38-.07-.53-.22Zm-.1,7.24v-6.12h1.26v6.12h-1.26Z"/><path class="cls-4" d="M151.69,91.93v-8.4h1.26v7.26h1.38v1.14h-2.64Z"/><path class="cls-4" d="M155.17,91.93v-8.4h1.26v7.26h1.38v1.14h-2.64Z"/><path class="cls-4" d="M159.19,91.13c-.6-.61-.91-1.37-.91-2.26s.3-1.65,.91-2.26,1.34-.92,2.21-.92,1.61,.31,2.21,.92,.91,1.37,.91,2.26v.42h-4.98c.1,.5,.32,.9,.66,1.19s.74,.43,1.2,.43c.56,0,1.01-.14,1.34-.42,.15-.11,.28-.25,.4-.42h1.32c-.17,.39-.38,.72-.64,1-.66,.66-1.46,.98-2.42,.98-.87,0-1.61-.31-2.21-.92Zm.41-2.86h3.6c-.07-.4-.26-.74-.57-1.02-.31-.28-.72-.42-1.23-.42-.43,0-.82,.13-1.15,.39s-.55,.61-.65,1.05Z"/></g><g><path class="cls-4" d="M207.32,261.04v-8.4h3.66c.99,0,1.78,.26,2.36,.77,.58,.51,.88,1.16,.88,1.93,0,.62-.19,1.16-.57,1.63s-.91,.79-1.59,.95l2.1,3.12h-1.62l-1.98-3h-1.86v3h-1.38Zm1.38-4.32h2.28c1.2,0,1.8-.46,1.8-1.38s-.6-1.38-1.8-1.38h-2.28v2.76Z"/><path class="cls-4" d="M215.79,260.24c-.6-.61-.91-1.37-.91-2.26s.3-1.65,.91-2.26c.6-.61,1.34-.92,2.21-.92s1.61,.31,2.21,.92c.6,.61,.91,1.37,.91,2.26v.42h-4.98c.1,.5,.32,.9,.66,1.19,.34,.29,.74,.43,1.2,.43,.56,0,1.01-.14,1.34-.42,.15-.11,.28-.25,.4-.42h1.32c-.17,.39-.38,.72-.64,1-.66,.66-1.46,.98-2.42,.98-.87,0-1.61-.31-2.21-.92Zm.41-2.86h3.6c-.07-.4-.26-.74-.57-1.02-.31-.28-.72-.42-1.23-.42-.43,0-.82,.13-1.15,.39s-.55,.61-.65,1.05Z"/><path class="cls-4" d="M222.3,253.8c-.14-.14-.22-.32-.22-.53s.07-.39,.22-.53c.14-.15,.32-.22,.53-.22s.39,.07,.53,.22,.22,.33,.22,.53-.07,.38-.22,.53c-.15,.14-.33,.22-.53,.22s-.38-.07-.53-.22Zm-.1,7.24v-6.12h1.26v6.12h-1.26Z"/><path class="cls-4" d="M224.9,261.04v-6.12h1.26v.84h.06c.1-.18,.24-.34,.41-.48,.38-.32,.85-.48,1.39-.48,.65,0,1.17,.19,1.57,.58,.17,.16,.3,.35,.41,.56h.06c.11-.21,.27-.4,.47-.56,.43-.38,.98-.58,1.63-.58,.71,0,1.27,.22,1.67,.67,.4,.44,.61,1.08,.61,1.91v3.66h-1.26v-3.6c0-1-.44-1.5-1.32-1.5-.42,0-.79,.17-1.1,.5-.31,.33-.46,.75-.46,1.24v3.36h-1.26v-3.6c0-1-.44-1.5-1.32-1.5-.42,0-.79,.17-1.1,.5-.31,.33-.46,.75-.46,1.24v3.36h-1.26Z"/><path class="cls-4" d="M235.4,259.12h1.38c.06,.16,.16,.31,.3,.46,.3,.3,.7,.44,1.2,.44,.44,0,.76-.07,.96-.2,.2-.14,.3-.31,.3-.52,0-.07-.02-.14-.05-.2-.03-.06-.09-.11-.17-.16-.08-.05-.16-.09-.23-.13-.07-.04-.18-.07-.32-.11-.14-.04-.26-.06-.35-.08-.09-.02-.22-.05-.4-.09s-.31-.07-.4-.08c-1.28-.29-1.92-.9-1.92-1.85,0-.48,.22-.9,.66-1.26,.44-.36,1.02-.54,1.74-.54,1,0,1.75,.32,2.24,.96,.22,.28,.38,.6,.46,.96h-1.32c-.06-.16-.15-.29-.26-.38-.28-.26-.65-.4-1.12-.4-.36,0-.63,.06-.81,.19-.18,.13-.27,.29-.27,.48,0,.07,.02,.14,.05,.2,.03,.06,.09,.11,.17,.16s.16,.09,.23,.12c.08,.03,.18,.07,.32,.1,.14,.04,.25,.06,.35,.08,.1,.02,.23,.05,.4,.08,.17,.04,.31,.07,.4,.09,1.28,.29,1.92,.9,1.92,1.85,0,.51-.23,.95-.69,1.31-.46,.36-1.09,.55-1.89,.55-1.04,0-1.84-.34-2.39-1.02-.25-.31-.41-.65-.49-1.02Z"/></g><g><path class="cls-4" d="M384.93,278.48v-8.4h2.28l2.28,5.22h.3l2.28-5.22h2.22v8.4h-1.38v-5.88l.12-1.14h-.12l-2.22,5.1h-2.16l-2.22-5.1h-.12l.12,1.14v5.88h-1.38Z"/><path class="cls-4" d="M396.4,277.68c-.6-.61-.91-1.37-.91-2.26s.3-1.65,.91-2.26c.6-.61,1.34-.92,2.21-.92s1.61,.31,2.21,.92c.6,.61,.91,1.37,.91,2.26v.42h-4.98c.1,.5,.32,.9,.66,1.19s.74,.43,1.2,.43c.56,0,1.01-.14,1.34-.42,.15-.11,.28-.25,.4-.42h1.32c-.17,.39-.38,.72-.64,1-.66,.66-1.46,.98-2.42,.98-.87,0-1.61-.31-2.21-.92Zm.41-2.86h3.6c-.07-.4-.26-.74-.57-1.02-.31-.28-.72-.42-1.23-.42-.43,0-.82,.13-1.15,.39s-.55,.61-.65,1.05Z"/><path class="cls-4" d="M402.33,273.5v-1.14h.72v-1.32h1.26v1.32h1.86v1.14h-1.86v3.84h1.92v1.14h-3.18v-4.98h-.72Z"/><path class="cls-4" d="M406.83,278.48v-1.14l3.3-3.72v-.12h-3.18v-1.14h4.86v1.14l-3.3,3.72v.12h3.42v1.14h-5.1Z"/></g><g><path class="cls-4" d="M625.12,226.17v-8.4h2.28l2.28,5.22h.3l2.28-5.22h2.22v8.4h-1.38v-5.88l.12-1.14h-.12l-2.22,5.1h-2.16l-2.22-5.1h-.12l.12,1.14v5.88h-1.38Z"/><path class="cls-4" d="M636.5,225.41c-.55-.59-.82-1.35-.82-2.3s.27-1.71,.82-2.3c.55-.59,1.23-.88,2.06-.88,.52,0,1,.15,1.43,.46,.18,.13,.35,.28,.49,.44h.06v-.78h1.26v6.12h-1.26v-.84h-.06c-.12,.17-.28,.33-.49,.48-.43,.32-.91,.48-1.43,.48-.82,0-1.51-.29-2.06-.88Zm.98-3.81c-.32,.35-.48,.86-.48,1.51s.16,1.16,.48,1.51c.32,.35,.76,.53,1.32,.53,.53,0,.95-.18,1.27-.53,.32-.36,.47-.86,.47-1.51s-.16-1.15-.47-1.51c-.32-.36-.74-.53-1.27-.53-.56,0-1,.18-1.32,.53Z"/><path class="cls-4" d="M643.24,226.17v-6.12h1.26v.84h.06c.1-.16,.24-.32,.44-.48,.43-.32,.92-.48,1.48-.48,.76,0,1.35,.22,1.77,.66,.42,.44,.63,1.08,.63,1.92v3.66h-1.26v-3.54c0-.54-.12-.93-.35-1.18s-.6-.38-1.09-.38-.89,.17-1.21,.5-.47,.77-.47,1.3v3.3h-1.26Z"/><path class="cls-4" d="M650.26,226.17v-6.12h1.26v.84h.06c.1-.16,.24-.32,.44-.48,.43-.32,.92-.48,1.48-.48,.76,0,1.35,.22,1.77,.66,.42,.44,.63,1.08,.63,1.92v3.66h-1.26v-3.54c0-.54-.12-.93-.35-1.18s-.6-.38-1.09-.38-.89,.17-1.21,.5-.47,.77-.47,1.3v3.3h-1.26Z"/><path class="cls-4" d="M657.28,226.17v-8.4h1.26v3.12h.06c.1-.16,.24-.32,.44-.48,.43-.32,.92-.48,1.48-.48,.76,0,1.35,.22,1.77,.66,.42,.44,.63,1.08,.63,1.92v3.66h-1.26v-3.54c0-.54-.12-.93-.35-1.18-.24-.25-.6-.38-1.09-.38s-.89,.17-1.21,.5c-.32,.33-.47,.77-.47,1.3v3.3h-1.26Z"/><path class="cls-4" d="M664.85,225.37c-.6-.61-.91-1.37-.91-2.26s.3-1.65,.91-2.26c.6-.61,1.34-.92,2.21-.92s1.61,.31,2.21,.92c.6,.61,.91,1.37,.91,2.26v.42h-4.98c.1,.5,.32,.9,.66,1.19s.74,.43,1.2,.43c.56,0,1.01-.14,1.34-.42,.15-.11,.28-.25,.4-.42h1.32c-.17,.39-.38,.72-.64,1-.66,.66-1.46,.98-2.42,.98-.87,0-1.61-.31-2.21-.92Zm.41-2.86h3.6c-.07-.4-.26-.74-.57-1.02-.31-.28-.72-.42-1.23-.42-.43,0-.82,.13-1.15,.39-.34,.26-.55,.61-.65,1.05Z"/><path class="cls-4" d="M671.36,218.94c-.14-.14-.22-.32-.22-.53s.07-.39,.22-.53c.14-.15,.32-.22,.53-.22s.39,.07,.53,.22,.22,.33,.22,.53-.07,.38-.22,.53c-.15,.14-.33,.22-.53,.22s-.38-.07-.53-.22Zm-.1,7.24v-6.12h1.26v6.12h-1.26Z"/><path class="cls-4" d="M673.96,226.17v-6.12h1.26v.84h.06c.1-.18,.24-.34,.41-.48,.38-.32,.85-.48,1.39-.48,.65,0,1.17,.19,1.57,.58,.17,.16,.3,.35,.41,.56h.06c.11-.21,.27-.4,.47-.56,.43-.38,.98-.58,1.63-.58,.71,0,1.27,.22,1.67,.67,.4,.44,.61,1.08,.61,1.91v3.66h-1.26v-3.6c0-1-.44-1.5-1.32-1.5-.42,0-.79,.17-1.1,.5s-.46,.75-.46,1.24v3.36h-1.26v-3.6c0-1-.44-1.5-1.32-1.5-.42,0-.79,.17-1.1,.5-.31,.33-.46,.75-.46,1.24v3.36h-1.26Z"/></g><g><path class="cls-4" d="M459.06,240.72v-8.4h1.38v3.48h1.38l2.52-3.48h1.62l-2.94,4.02,3.06,4.38h-1.68l-2.52-3.6h-1.44v3.6h-1.38Z"/><path class="cls-4" d="M466.97,239.96c-.55-.59-.82-1.35-.82-2.3s.27-1.71,.82-2.3,1.23-.88,2.06-.88c.52,0,1,.15,1.43,.46,.18,.13,.35,.28,.49,.44h.06v-.78h1.26v6.12h-1.26v-.84h-.06c-.12,.17-.28,.33-.49,.48-.43,.32-.91,.48-1.43,.48-.82,0-1.51-.29-2.06-.88Zm.98-3.81c-.32,.35-.48,.86-.48,1.51s.16,1.16,.48,1.51c.32,.35,.76,.53,1.32,.53,.53,0,.95-.18,1.27-.53,.32-.36,.47-.86,.47-1.51s-.16-1.15-.47-1.51c-.32-.36-.74-.54-1.27-.54-.56,0-1,.18-1.32,.53Z"/><path class="cls-4" d="M473.8,233.48c-.14-.14-.22-.32-.22-.53s.07-.38,.22-.53c.14-.15,.32-.22,.53-.22s.39,.07,.53,.22c.15,.15,.22,.33,.22,.53s-.07,.38-.22,.53c-.15,.14-.33,.21-.53,.21s-.38-.07-.53-.21Zm-.1,7.24v-6.12h1.26v6.12h-1.26Z"/><path class="cls-4" d="M475.98,238.8h1.38c.06,.16,.16,.31,.3,.46,.3,.3,.7,.44,1.2,.44,.44,0,.76-.07,.96-.2,.2-.14,.3-.31,.3-.52,0-.07-.02-.14-.05-.2-.03-.06-.09-.11-.17-.16-.08-.05-.16-.09-.23-.12-.07-.04-.18-.07-.32-.11-.14-.04-.26-.06-.35-.08s-.22-.05-.4-.09c-.18-.04-.31-.07-.4-.08-1.28-.29-1.92-.9-1.92-1.85,0-.48,.22-.9,.66-1.26,.44-.36,1.02-.54,1.74-.54,1,0,1.75,.32,2.24,.96,.22,.28,.38,.6,.46,.96h-1.32c-.06-.16-.15-.29-.26-.38-.28-.26-.65-.4-1.12-.4-.36,0-.63,.06-.81,.19-.18,.13-.27,.29-.27,.48,0,.07,.02,.14,.05,.2,.03,.06,.09,.11,.17,.16,.08,.05,.16,.09,.23,.12,.08,.03,.18,.07,.32,.1,.14,.04,.25,.06,.35,.08,.1,.02,.23,.05,.4,.08,.17,.04,.31,.07,.4,.09,1.28,.29,1.92,.9,1.92,1.85,0,.51-.23,.95-.69,1.31s-1.09,.55-1.89,.55c-1.04,0-1.84-.34-2.39-1.02-.25-.31-.41-.65-.49-1.02Z"/><path class="cls-4" d="M483.07,239.92c-.6-.61-.91-1.37-.91-2.26s.3-1.65,.91-2.26c.6-.61,1.34-.92,2.21-.92s1.61,.31,2.21,.92c.6,.61,.91,1.37,.91,2.26v.42h-4.98c.1,.5,.32,.9,.66,1.19s.74,.43,1.2,.43c.56,0,1.01-.14,1.34-.42,.15-.11,.28-.25,.4-.42h1.32c-.17,.39-.38,.72-.64,1-.66,.66-1.46,.98-2.42,.98-.87,0-1.61-.31-2.21-.92Zm.41-2.86h3.6c-.07-.4-.26-.74-.57-1.02-.31-.28-.72-.42-1.23-.42-.43,0-.82,.13-1.15,.39s-.55,.61-.65,1.05Z"/><path class="cls-4" d="M489.48,240.72v-6.12h1.26v.9h.06c.09-.17,.22-.33,.38-.48,.37-.32,.8-.48,1.3-.48h.72v1.2h-.78c-.49,0-.89,.15-1.21,.46-.32,.31-.47,.71-.47,1.22v3.3h-1.26Z"/><path class="cls-4" d="M493.74,238.8h1.38c.06,.16,.16,.31,.3,.46,.3,.3,.7,.44,1.2,.44,.44,0,.76-.07,.96-.2,.2-.14,.3-.31,.3-.52,0-.07-.02-.14-.05-.2-.03-.06-.09-.11-.17-.16-.08-.05-.16-.09-.23-.12-.07-.04-.18-.07-.32-.11-.14-.04-.26-.06-.35-.08-.09-.02-.22-.05-.4-.09s-.31-.07-.4-.08c-1.28-.29-1.92-.9-1.92-1.85,0-.48,.22-.9,.66-1.26,.44-.36,1.02-.54,1.74-.54,1,0,1.75,.32,2.24,.96,.22,.28,.38,.6,.46,.96h-1.32c-.06-.16-.15-.29-.26-.38-.28-.26-.65-.4-1.12-.4-.36,0-.63,.06-.81,.19-.18,.13-.27,.29-.27,.48,0,.07,.02,.14,.05,.2,.03,.06,.09,.11,.17,.16,.08,.05,.16,.09,.23,.12,.08,.03,.18,.07,.32,.1,.14,.04,.25,.06,.35,.08,.1,.02,.23,.05,.4,.08,.17,.04,.31,.07,.4,.09,1.28,.29,1.92,.9,1.92,1.85,0,.51-.23,.95-.69,1.31s-1.09,.55-1.89,.55c-1.04,0-1.84-.34-2.39-1.02-.25-.31-.41-.65-.49-1.02Z"/><path class="cls-4" d="M500.28,240.72v-8.4h1.26v7.26h1.38v1.14h-2.64Z"/><path class="cls-4" d="M504.23,239.96c-.55-.59-.82-1.35-.82-2.3s.27-1.71,.82-2.3,1.23-.88,2.06-.88c.52,0,1,.15,1.43,.46,.18,.13,.35,.28,.49,.44h.06v-.78h1.26v6.12h-1.26v-.84h-.06c-.12,.17-.28,.33-.49,.48-.43,.32-.91,.48-1.43,.48-.82,0-1.51-.29-2.06-.88Zm.98-3.81c-.32,.35-.48,.86-.48,1.51s.16,1.16,.48,1.51c.32,.35,.76,.53,1.32,.53,.53,0,.95-.18,1.27-.53,.32-.36,.47-.86,.47-1.51s-.16-1.15-.47-1.51c-.32-.36-.74-.54-1.27-.54-.56,0-1,.18-1.32,.53Z"/><path class="cls-4" d="M510.96,238.26v-3.66h1.26v3.54c0,.54,.12,.93,.35,1.18,.24,.25,.6,.38,1.09,.38s.89-.17,1.21-.5c.32-.33,.47-.77,.47-1.3v-3.3h1.26v6.12h-1.26v-.84h-.06c-.1,.16-.24,.32-.44,.48-.43,.32-.92,.48-1.48,.48-.76,0-1.35-.22-1.77-.66s-.63-1.08-.63-1.92Z"/><path class="cls-4" d="M517.56,235.74v-1.14h.72v-1.32h1.26v1.32h1.86v1.14h-1.86v3.84h1.92v1.14h-3.18v-4.98h-.72Z"/><path class="cls-4" d="M523.09,239.92c-.6-.61-.91-1.37-.91-2.26s.3-1.65,.91-2.26c.6-.61,1.34-.92,2.21-.92s1.61,.31,2.21,.92c.6,.61,.91,1.37,.91,2.26v.42h-4.98c.1,.5,.32,.9,.66,1.19,.34,.29,.74,.43,1.2,.43,.56,0,1.01-.14,1.34-.42,.15-.11,.28-.25,.4-.42h1.32c-.17,.39-.38,.72-.64,1-.66,.66-1.46,.98-2.42,.98-.87,0-1.61-.31-2.21-.92Zm.41-2.86h3.6c-.07-.4-.26-.74-.57-1.02-.31-.28-.72-.42-1.23-.42-.43,0-.82,.13-1.15,.39s-.55,.61-.65,1.05Z"/><path class="cls-4" d="M529.5,240.72v-6.12h1.26v.9h.06c.09-.17,.22-.33,.38-.48,.37-.32,.8-.48,1.3-.48h.72v1.2h-.78c-.49,0-.89,.15-1.21,.46-.32,.31-.47,.71-.47,1.22v3.3h-1.26Z"/><path class="cls-4" d="M534.18,240.72v-6.12h1.26v.84h.06c.1-.16,.24-.32,.44-.48,.43-.32,.92-.48,1.48-.48,.76,0,1.35,.22,1.77,.66s.63,1.08,.63,1.92v3.66h-1.26v-3.54c0-.54-.12-.93-.35-1.18s-.6-.38-1.09-.38-.89,.17-1.21,.5-.47,.77-.47,1.3v3.3h-1.26Z"/></g><g><path class="cls-4" d="M555.41,126.85v-8.4h1.38v3.48h1.38l2.52-3.48h1.62l-2.94,4.02,3.06,4.38h-1.68l-2.52-3.6h-1.44v3.6h-1.38Z"/><path class="cls-4" d="M563.41,126.05c-.61-.61-.92-1.37-.92-2.26s.31-1.65,.92-2.26c.61-.61,1.37-.92,2.26-.92s1.65,.31,2.26,.92c.61,.61,.92,1.37,.92,2.26s-.31,1.65-.92,2.26c-.61,.61-1.37,.92-2.26,.92s-1.65-.31-2.26-.92Zm.92-3.74c-.34,.37-.52,.87-.52,1.48s.17,1.11,.52,1.48c.34,.37,.79,.56,1.34,.56s1-.19,1.34-.56c.34-.37,.52-.87,.52-1.48s-.17-1.11-.52-1.48c-.34-.37-.79-.56-1.34-.56s-1,.19-1.34,.56Z"/><path class="cls-4" d="M569.93,126.85v-8.4h1.26v3.06h.06c.14-.17,.31-.32,.49-.45,.43-.3,.91-.46,1.43-.46,.82,0,1.51,.29,2.06,.88,.55,.59,.82,1.35,.82,2.3s-.27,1.71-.82,2.3c-.55,.59-1.23,.88-2.06,.88-.53,0-1-.15-1.43-.44-.19-.14-.36-.29-.49-.46h-.06v.78h-1.26Zm1.73-4.57c-.32,.36-.47,.86-.47,1.51s.16,1.15,.47,1.51c.32,.36,.74,.53,1.27,.53,.56,0,1-.18,1.32-.53,.32-.35,.48-.86,.48-1.51s-.16-1.16-.48-1.51-.76-.53-1.32-.53c-.53,0-.95,.18-1.27,.53Z"/><path class="cls-4" d="M577.13,126.85v-8.4h1.26v7.26h1.38v1.14h-2.64Z"/><path class="cls-4" d="M581.15,126.05c-.6-.61-.91-1.37-.91-2.26s.3-1.65,.91-2.26c.6-.61,1.34-.92,2.21-.92s1.61,.31,2.21,.92c.6,.61,.91,1.37,.91,2.26v.42h-4.98c.1,.5,.32,.9,.66,1.19,.34,.29,.74,.43,1.2,.43,.56,0,1.01-.14,1.34-.42,.15-.11,.28-.25,.4-.42h1.32c-.17,.39-.38,.72-.64,1-.66,.66-1.46,.98-2.42,.98-.87,0-1.61-.31-2.21-.92Zm.41-2.86h3.6c-.07-.4-.26-.74-.57-1.02-.31-.28-.72-.42-1.23-.42-.43,0-.82,.13-1.15,.39-.34,.26-.55,.61-.65,1.05Z"/><path class="cls-4" d="M587.57,126.85v-6.12h1.26v.84h.06c.1-.16,.24-.32,.44-.48,.43-.32,.92-.48,1.48-.48,.76,0,1.35,.22,1.77,.66,.42,.44,.63,1.08,.63,1.92v3.66h-1.26v-3.54c0-.54-.12-.93-.35-1.18s-.6-.38-1.09-.38-.89,.17-1.21,.5-.47,.77-.47,1.3v3.3h-1.26Z"/><path class="cls-4" d="M594.11,126.85v-1.14l3.3-3.72v-.12h-3.18v-1.14h4.86v1.14l-3.3,3.72v.12h3.42v1.14h-5.1Z"/></g><g><path class="cls-4" d="M501.56,45.86c-.86-.84-1.3-1.9-1.3-3.18s.43-2.34,1.3-3.18c.86-.84,1.93-1.26,3.2-1.26,1.46,0,2.59,.51,3.41,1.54,.36,.44,.62,.95,.79,1.52h-1.38c-.14-.32-.34-.61-.6-.86-.58-.58-1.32-.88-2.22-.88s-1.64,.29-2.21,.86c-.57,.58-.85,1.33-.85,2.26s.28,1.68,.85,2.26c.57,.58,1.3,.86,2.21,.86s1.68-.32,2.27-.96c.26-.27,.47-.59,.61-.96h1.38c-.21,.62-.5,1.16-.88,1.62-.83,1.08-1.96,1.62-3.38,1.62-1.27,0-2.34-.42-3.2-1.26Z"/><path class="cls-4" d="M510.72,46.08c-.61-.61-.92-1.37-.92-2.26s.31-1.65,.92-2.26,1.37-.92,2.26-.92,1.65,.31,2.26,.92c.61,.61,.92,1.37,.92,2.26s-.31,1.65-.92,2.26c-.61,.61-1.37,.92-2.26,.92s-1.65-.31-2.26-.92Zm.92-3.74c-.34,.37-.52,.87-.52,1.48s.17,1.11,.52,1.48c.34,.37,.79,.56,1.34,.56s1-.19,1.34-.56c.34-.37,.52-.87,.52-1.48s-.17-1.11-.52-1.48c-.34-.37-.79-.56-1.34-.56s-1,.19-1.34,.56Z"/><path class="cls-4" d="M517.24,46.88v-8.4h1.26v7.26h1.38v1.14h-2.64Z"/><path class="cls-4" d="M521.28,46.08c-.61-.61-.92-1.37-.92-2.26s.31-1.65,.92-2.26c.61-.61,1.37-.92,2.26-.92s1.65,.31,2.26,.92,.92,1.37,.92,2.26-.31,1.65-.92,2.26c-.61,.61-1.37,.92-2.26,.92s-1.65-.31-2.26-.92Zm.92-3.74c-.34,.37-.52,.87-.52,1.48s.17,1.11,.52,1.48c.34,.37,.79,.56,1.34,.56s1-.19,1.34-.56c.34-.37,.52-.87,.52-1.48s-.17-1.11-.52-1.48c-.34-.37-.79-.56-1.34-.56s-1,.19-1.34,.56Z"/><path class="cls-4" d="M528.26,46.12c-.55-.59-.82-1.35-.82-2.3s.27-1.71,.82-2.3c.55-.59,1.23-.88,2.06-.88,.52,0,1,.15,1.43,.46,.19,.14,.36,.29,.49,.46h.06v-.79h1.26v8.4h-5.22v-1.14h3.96v-1.92h-.06c-.14,.17-.3,.32-.49,.46-.42,.3-.9,.45-1.43,.45-.82,0-1.51-.29-2.06-.88Zm.98-3.81c-.32,.35-.48,.86-.48,1.51s.16,1.16,.48,1.51c.32,.35,.76,.53,1.32,.53,.53,0,.95-.18,1.27-.53,.32-.36,.47-.86,.47-1.51s-.16-1.15-.47-1.51-.74-.53-1.27-.53c-.56,0-1,.18-1.32,.53Z"/><path class="cls-4" d="M535,46.88v-6.12h1.26v.84h.06c.1-.16,.24-.32,.44-.48,.43-.32,.92-.48,1.48-.48,.76,0,1.35,.22,1.77,.66,.42,.44,.63,1.08,.63,1.92v3.66h-1.26v-3.54c0-.54-.12-.93-.35-1.18s-.6-.38-1.09-.38-.89,.17-1.21,.5-.47,.77-.47,1.3v3.3h-1.26Z"/><path class="cls-4" d="M542.57,46.08c-.6-.61-.91-1.37-.91-2.26s.3-1.65,.91-2.26c.6-.61,1.34-.92,2.21-.92s1.61,.31,2.21,.92c.6,.61,.91,1.37,.91,2.26v.42h-4.98c.1,.5,.32,.9,.66,1.19,.34,.29,.74,.43,1.2,.43,.56,0,1.01-.14,1.34-.42,.15-.11,.28-.25,.4-.42h1.32c-.17,.39-.38,.72-.64,1-.66,.66-1.46,.98-2.42,.98-.87,0-1.61-.31-2.21-.92Zm.41-2.86h3.6c-.07-.4-.26-.74-.57-1.02-.31-.28-.72-.42-1.23-.42-.43,0-.82,.13-1.15,.39s-.55,.61-.65,1.05Z"/></g><g><path class="cls-4" d="M658.32,166.58v-8.4h5.88v1.32h-4.5v2.4h3.54v1.32h-3.54v3.36h-1.38Z"/><path class="cls-4" d="M664.92,166.58v-6.12h1.26v.9h.06c.09-.17,.22-.33,.38-.48,.37-.32,.8-.48,1.3-.48h.72v1.2h-.78c-.49,0-.89,.15-1.21,.46s-.47,.71-.47,1.22v3.3h-1.26Z"/><path class="cls-4" d="M670.06,165.82c-.55-.59-.82-1.35-.82-2.3s.27-1.71,.82-2.3c.55-.59,1.23-.88,2.06-.88,.52,0,1,.15,1.43,.46,.18,.13,.35,.28,.49,.44h.06v-.78h1.26v6.12h-1.26v-.84h-.06c-.12,.17-.28,.33-.49,.48-.43,.32-.91,.48-1.43,.48-.82,0-1.51-.29-2.06-.88Zm.98-3.81c-.32,.35-.48,.86-.48,1.51s.16,1.16,.48,1.51c.32,.35,.76,.53,1.32,.53,.53,0,.95-.18,1.27-.53,.32-.36,.47-.86,.47-1.51s-.16-1.15-.47-1.51c-.32-.36-.74-.53-1.27-.53-.56,0-1,.18-1.32,.53Z"/><path class="cls-4" d="M676.8,166.58v-6.12h1.26v.84h.06c.1-.16,.24-.32,.44-.48,.43-.32,.92-.48,1.48-.48,.76,0,1.35,.22,1.77,.66,.42,.44,.63,1.08,.63,1.92v3.66h-1.26v-3.54c0-.54-.12-.93-.35-1.18s-.6-.38-1.09-.38-.89,.17-1.21,.5-.47,.77-.47,1.3v3.3h-1.26Z"/><path class="cls-4" d="M683.82,166.58v-8.4h1.26v4.68h.9l1.86-2.4h1.44l-2.22,2.82,2.4,3.3h-1.56l-1.86-2.58h-.96v2.58h-1.26Z"/><path class="cls-4" d="M689.7,161.6v-1.14h.72v-2.28h3.06v1.14h-1.8v1.14h1.44v1.14h-1.44v4.98h-1.26v-4.98h-.72Z"/><path class="cls-4" d="M694.08,164.12v-3.66h1.26v3.54c0,.54,.12,.93,.35,1.18,.24,.25,.6,.38,1.09,.38s.89-.17,1.21-.5c.32-.33,.47-.77,.47-1.3v-3.3h1.26v6.12h-1.26v-.84h-.06c-.1,.16-.24,.32-.44,.48-.43,.32-.92,.48-1.48,.48-.76,0-1.35-.22-1.77-.66-.42-.44-.63-1.08-.63-1.92Z"/><path class="cls-4" d="M701.16,166.58v-6.12h1.26v.9h.06c.09-.17,.22-.33,.38-.48,.37-.32,.8-.48,1.3-.48h.72v1.2h-.78c-.49,0-.89,.15-1.21,.46-.32,.31-.47,.71-.47,1.22v3.3h-1.26Z"/><path class="cls-4" d="M705.36,161.6v-1.14h.72v-1.32h1.26v1.32h1.86v1.14h-1.86v3.84h1.92v1.14h-3.18v-4.98h-.72Z"/></g><g><path class="cls-4" d="M479.6,196.24v-1.25h7.08v1.25h-2.83v6.69h-1.42v-6.69h-2.83Z"/><path class="cls-4" d="M487.54,202.93v-5.79h1.29v.85h.06c.09-.16,.22-.31,.39-.45,.38-.3,.82-.45,1.33-.45h.74v1.13h-.8c-.5,0-.91,.15-1.24,.44s-.49,.67-.49,1.15v3.12h-1.29Z"/><path class="cls-4" d="M492.44,196.09c-.15-.14-.22-.3-.22-.5s.07-.36,.22-.5c.15-.14,.33-.21,.54-.21s.4,.07,.55,.21c.15,.14,.23,.31,.23,.5s-.08,.36-.23,.5c-.15,.14-.33,.2-.55,.2s-.39-.07-.54-.2Zm-.1,6.84v-5.79h1.29v5.79h-1.29Z"/><path class="cls-4" d="M495.67,202.18c-.62-.58-.93-1.29-.93-2.14s.31-1.56,.93-2.14,1.38-.87,2.27-.87,1.65,.29,2.27,.87c.62,.58,.93,1.29,.93,2.14v.4h-5.11c.1,.48,.32,.85,.68,1.12,.35,.27,.76,.41,1.23,.41,.57,0,1.03-.13,1.38-.4,.16-.11,.29-.24,.41-.4h1.35c-.17,.37-.39,.68-.65,.94-.67,.62-1.5,.93-2.49,.93-.89,0-1.65-.29-2.27-.87Zm.42-2.71h3.69c-.07-.38-.27-.7-.58-.96-.32-.26-.74-.4-1.26-.4-.44,0-.84,.12-1.18,.37-.34,.25-.57,.58-.67,.99Z"/><path class="cls-4" d="M502.25,202.93v-5.79h1.29v.85h.06c.09-.16,.22-.31,.39-.45,.38-.3,.82-.45,1.33-.45h.74v1.13h-.8c-.5,0-.91,.15-1.24,.44s-.49,.67-.49,1.15v3.12h-1.29Z"/></g><g><path class="cls-4" d="M381.5,342.37v-8.4h1.98l3.66,6.66h.12l-.12-1.02v-5.64h1.38v8.4h-1.98l-3.66-6.66h-.12l.12,1.02v5.64h-1.38Z"/><path class="cls-4" d="M390.55,341.61c-.55-.59-.82-1.35-.82-2.3s.27-1.71,.82-2.3,1.23-.88,2.06-.88c.52,0,1,.15,1.43,.46,.18,.13,.35,.28,.49,.45h.06v-.78h1.26v6.12h-1.26v-.84h-.06c-.12,.17-.28,.33-.49,.48-.43,.32-.91,.48-1.43,.48-.82,0-1.51-.29-2.06-.88Zm.98-3.81c-.32,.35-.48,.86-.48,1.51s.16,1.16,.48,1.51c.32,.35,.76,.53,1.32,.53,.53,0,.95-.18,1.27-.53,.32-.36,.47-.86,.47-1.51s-.16-1.15-.47-1.51c-.32-.36-.74-.53-1.27-.53-.56,0-1,.18-1.32,.53Z"/><path class="cls-4" d="M397.28,342.37v-6.12h1.26v.84h.06c.1-.16,.24-.32,.44-.48,.43-.32,.92-.48,1.48-.48,.76,0,1.35,.22,1.77,.66,.42,.44,.63,1.08,.63,1.92v3.66h-1.26v-3.54c0-.54-.12-.93-.35-1.18s-.6-.38-1.09-.38-.89,.17-1.21,.5-.47,.77-.47,1.3v3.3h-1.26Z"/><path class="cls-4" d="M404.82,341.59c-.58-.6-.88-1.36-.88-2.28s.29-1.68,.88-2.28c.58-.6,1.31-.9,2.18-.9,.98,0,1.77,.37,2.39,1.12,.26,.34,.45,.71,.55,1.1h-1.32c-.06-.2-.16-.38-.31-.54-.31-.36-.75-.54-1.31-.54-.5,0-.91,.19-1.24,.56-.33,.38-.5,.87-.5,1.48s.17,1.1,.5,1.48c.33,.38,.75,.56,1.24,.56,.58,0,1.03-.18,1.36-.54,.14-.16,.25-.34,.32-.54h1.26c-.1,.41-.29,.78-.55,1.12-.61,.74-1.4,1.1-2.39,1.1-.87,0-1.6-.3-2.18-.9Z"/><path class="cls-4" d="M410.36,336.25h1.32l1.32,4.92h.66l1.44-4.92h1.32l-2.52,8.4h-1.32l.72-2.28h-1.26l-1.68-6.12Z"/></g><g><path class="cls-4" d="M474.79,348.83h1.44c.06,.28,.17,.53,.35,.76,.38,.5,.97,.74,1.75,.74,.63,0,1.1-.11,1.4-.34,.3-.23,.46-.53,.46-.92,0-.3-.14-.55-.41-.73-.28-.18-.67-.34-1.18-.48-1-.26-1.67-.47-2.02-.63-.95-.44-1.43-1.1-1.43-1.99,0-.68,.29-1.27,.86-1.77,.58-.5,1.33-.75,2.26-.75,1.23,0,2.15,.41,2.75,1.24,.26,.35,.44,.76,.55,1.22h-1.44c-.06-.22-.16-.42-.3-.6-.34-.4-.86-.6-1.56-.6-.54,0-.96,.11-1.25,.34-.29,.22-.43,.51-.43,.86,0,.53,.53,.94,1.6,1.22,.09,.02,.26,.07,.5,.14s.43,.12,.53,.16c.11,.04,.28,.09,.5,.17,.23,.08,.4,.15,.51,.21,.11,.06,.26,.15,.43,.25s.31,.2,.4,.31c.09,.11,.19,.23,.29,.37,.1,.14,.17,.29,.21,.46,.04,.17,.06,.36,.06,.56,0,.72-.3,1.33-.89,1.83-.6,.5-1.4,.75-2.41,.75-1.34,0-2.33-.46-2.96-1.38-.29-.39-.48-.85-.58-1.38Z"/><path class="cls-4" d="M482.35,346.37v-1.14h.72v-1.32h1.26v1.32h1.86v1.14h-1.86v3.84h1.92v1.14h-3.18v-4.98h-.72Z"/><path class="cls-4" d="M487.33,351.35v-6.12h1.26v.9h.06c.09-.17,.22-.33,.38-.48,.37-.32,.8-.48,1.3-.48h.72v1.2h-.78c-.49,0-.89,.15-1.21,.46-.32,.31-.47,.71-.47,1.22v3.3h-1.26Z"/><path class="cls-4" d="M492.48,350.58c-.55-.59-.82-1.35-.82-2.3s.27-1.71,.82-2.3,1.23-.88,2.06-.88c.52,0,1,.15,1.43,.46,.18,.13,.35,.28,.49,.44h.06v-.78h1.26v6.12h-1.26v-.84h-.06c-.12,.17-.28,.33-.49,.48-.43,.32-.91,.48-1.43,.48-.82,0-1.51-.29-2.06-.88Zm.98-3.81c-.32,.35-.48,.86-.48,1.51s.16,1.16,.48,1.51c.32,.35,.76,.53,1.32,.53,.53,0,.95-.18,1.27-.53,.32-.36,.47-.86,.47-1.51s-.16-1.15-.47-1.51c-.32-.36-.74-.53-1.27-.53-.56,0-1,.18-1.32,.53Z"/><path class="cls-4" d="M498.79,349.43h1.38c.06,.16,.16,.31,.3,.46,.3,.29,.7,.44,1.2,.44,.44,0,.76-.07,.96-.2s.3-.31,.3-.52c0-.07-.02-.14-.05-.2s-.09-.11-.17-.16c-.08-.05-.16-.09-.23-.13-.07-.04-.18-.07-.32-.11-.14-.04-.26-.06-.35-.08-.09-.02-.22-.05-.4-.09-.18-.04-.31-.07-.4-.08-1.28-.29-1.92-.9-1.92-1.85,0-.48,.22-.9,.66-1.26,.44-.36,1.02-.54,1.74-.54,1,0,1.75,.32,2.24,.96,.22,.28,.38,.6,.46,.96h-1.32c-.06-.16-.15-.29-.26-.38-.28-.26-.65-.4-1.12-.4-.36,0-.63,.06-.81,.19-.18,.13-.27,.29-.27,.48,0,.07,.02,.14,.05,.2s.09,.11,.17,.16,.16,.09,.23,.12c.08,.03,.18,.07,.32,.1,.14,.04,.25,.06,.35,.08,.1,.02,.23,.05,.4,.08,.17,.04,.31,.07,.4,.09,1.28,.29,1.92,.9,1.92,1.85,0,.51-.23,.95-.69,1.31-.46,.36-1.09,.55-1.89,.55-1.04,0-1.84-.34-2.39-1.02-.25-.31-.41-.65-.49-1.02Z"/><path class="cls-4" d="M505.33,351.35v-8.4h1.26v3.06h.06c.14-.17,.31-.32,.49-.44,.43-.3,.91-.46,1.43-.46,.82,0,1.51,.29,2.06,.88s.82,1.35,.82,2.3-.27,1.71-.82,2.3-1.23,.88-2.06,.88c-.53,0-1-.15-1.43-.45-.19-.13-.36-.29-.49-.46h-.06v.78h-1.26Zm1.73-4.57c-.32,.36-.47,.86-.47,1.51s.16,1.15,.47,1.51c.32,.36,.74,.53,1.27,.53,.56,0,1-.18,1.32-.53,.32-.35,.48-.86,.48-1.51s-.16-1.16-.48-1.51c-.32-.35-.76-.53-1.32-.53-.53,0-.95,.18-1.27,.53Z"/><path class="cls-4" d="M513.09,350.55c-.61-.61-.92-1.37-.92-2.26s.31-1.65,.92-2.26,1.37-.92,2.26-.92,1.65,.31,2.26,.92c.61,.61,.92,1.37,.92,2.26s-.31,1.65-.92,2.26c-.61,.61-1.37,.92-2.26,.92s-1.65-.31-2.26-.92Zm.92-3.74c-.34,.37-.52,.87-.52,1.48s.17,1.11,.52,1.48c.34,.37,.79,.56,1.34,.56s1-.19,1.34-.56c.34-.37,.52-.87,.52-1.48s-.17-1.11-.52-1.48c-.34-.37-.79-.56-1.34-.56s-1,.19-1.34,.56Z"/><path class="cls-4" d="M519.61,348.89v-3.66h1.26v3.54c0,.54,.12,.93,.35,1.18,.24,.25,.6,.38,1.09,.38s.89-.17,1.21-.5c.32-.33,.47-.77,.47-1.3v-3.3h1.26v6.12h-1.26v-.84h-.06c-.1,.16-.24,.32-.44,.48-.43,.32-.92,.48-1.48,.48-.76,0-1.35-.22-1.77-.66-.42-.44-.63-1.08-.63-1.92Z"/><path class="cls-4" d="M526.69,351.35v-6.12h1.26v.9h.06c.09-.17,.22-.33,.38-.48,.37-.32,.8-.48,1.3-.48h.72v1.2h-.78c-.49,0-.89,.15-1.21,.46-.32,.31-.47,.71-.47,1.22v3.3h-1.26Z"/><path class="cls-4" d="M531.84,350.58c-.55-.59-.82-1.35-.82-2.3s.27-1.71,.82-2.3c.55-.59,1.23-.88,2.06-.88,.52,0,1,.15,1.43,.46,.19,.14,.36,.29,.49,.46h.06v-.79h1.26v8.4h-5.22v-1.14h3.96v-1.92h-.06c-.14,.17-.3,.32-.49,.46-.42,.3-.9,.45-1.43,.45-.82,0-1.51-.29-2.06-.88Zm.98-3.81c-.32,.35-.48,.86-.48,1.51s.16,1.16,.48,1.51c.32,.35,.76,.53,1.32,.53,.53,0,.95-.18,1.27-.53,.32-.36,.47-.86,.47-1.51s-.16-1.15-.47-1.51-.74-.53-1.27-.53c-.56,0-1,.18-1.32,.53Z"/></g><g><path class="cls-4" d="M343.5,504.1v-8.4h2.82c1.3,0,2.38,.4,3.23,1.21,.85,.81,1.27,1.8,1.27,2.99s-.42,2.18-1.27,2.99c-.85,.81-1.92,1.21-3.23,1.21h-2.82Zm1.38-1.32h1.44c.92,0,1.66-.27,2.22-.8,.56-.54,.84-1.23,.84-2.08s-.28-1.54-.84-2.08c-.56-.54-1.3-.8-2.22-.8h-1.44v5.76Z"/><path class="cls-4" d="M352.12,496.87c-.14-.14-.21-.32-.21-.53s.07-.39,.21-.53c.14-.15,.32-.22,.53-.22s.38,.07,.53,.22c.15,.15,.22,.33,.22,.53s-.07,.38-.22,.53c-.15,.14-.33,.22-.53,.22s-.38-.07-.53-.22Zm-.1,7.24v-6.12h1.26v6.12h-1.26Z"/><path class="cls-4" d="M352.98,506.38v-1.14h1.8v-7.26h1.26v8.4h-3.06Zm1.9-9.52c-.14-.14-.21-.32-.21-.53s.07-.39,.21-.53c.14-.15,.32-.22,.53-.22s.39,.07,.53,.22c.15,.15,.22,.33,.22,.53s-.07,.38-.22,.53c-.15,.14-.33,.22-.53,.22s-.38-.07-.53-.22Z"/><path class="cls-4" d="M358.04,503.31c-.61-.61-.92-1.37-.92-2.26s.31-1.65,.92-2.26c.61-.61,1.37-.92,2.26-.92s1.65,.31,2.26,.92c.61,.61,.92,1.37,.92,2.26s-.31,1.65-.92,2.26-1.37,.92-2.26,.92-1.65-.31-2.26-.92Zm.92-3.74c-.34,.37-.52,.87-.52,1.48s.17,1.11,.52,1.48c.34,.37,.79,.56,1.34,.56s1-.19,1.34-.56c.34-.37,.52-.87,.52-1.48s-.17-1.11-.52-1.48c-.34-.37-.79-.56-1.34-.56s-1,.19-1.34,.56Z"/><path class="cls-4" d="M364.56,504.1v-6.12h1.26v.84h.06c.1-.16,.24-.32,.44-.48,.43-.32,.92-.48,1.48-.48,.76,0,1.35,.22,1.77,.66,.42,.44,.63,1.08,.63,1.92v3.66h-1.26v-3.54c0-.54-.12-.93-.35-1.18s-.6-.38-1.09-.38-.89,.17-1.21,.5c-.32,.33-.47,.77-.47,1.3v3.3h-1.26Z"/></g><g><path class="cls-4" d="M568.86,485.84v-1.32l4.75-5.64v-.12h-4.63v-1.32h6.42v1.32l-4.75,5.64v.12h4.87v1.32h-6.66Z"/><path class="cls-4" d="M576.6,483.38v-3.66h1.26v3.54c0,.54,.12,.93,.35,1.18,.24,.25,.6,.38,1.09,.38s.89-.17,1.21-.5c.32-.33,.47-.77,.47-1.3v-3.3h1.26v6.12h-1.26v-.84h-.06c-.1,.16-.24,.32-.44,.48-.43,.32-.92,.48-1.48,.48-.76,0-1.35-.22-1.77-.66-.42-.44-.63-1.08-.63-1.92Z"/><path class="cls-4" d="M583.68,485.84v-6.12h1.26v.9h.06c.09-.17,.22-.33,.38-.48,.37-.32,.8-.48,1.3-.48h.72v1.2h-.78c-.49,0-.89,.15-1.21,.46-.32,.31-.47,.71-.47,1.22v3.3h-1.26Z"/><path class="cls-4" d="M588.45,478.61c-.14-.14-.22-.32-.22-.53s.07-.39,.22-.53c.14-.15,.32-.22,.53-.22s.39,.07,.53,.22c.15,.15,.22,.33,.22,.53s-.07,.38-.22,.53c-.15,.14-.33,.22-.53,.22s-.38-.07-.53-.22Zm-.1,7.24v-6.12h1.26v6.12h-1.26Z"/><path class="cls-4" d="M591.57,485.06c-.58-.6-.88-1.36-.88-2.28s.29-1.68,.88-2.28c.58-.6,1.31-.9,2.18-.9,.98,0,1.77,.37,2.39,1.12,.26,.34,.45,.71,.55,1.1h-1.32c-.06-.2-.16-.38-.31-.54-.31-.36-.75-.54-1.31-.54-.5,0-.91,.19-1.24,.56s-.5,.87-.5,1.48,.17,1.1,.5,1.48,.75,.56,1.24,.56c.58,0,1.03-.18,1.36-.54,.14-.16,.25-.34,.32-.54h1.26c-.1,.41-.29,.78-.55,1.12-.61,.74-1.4,1.1-2.39,1.1-.87,0-1.6-.3-2.18-.9Z"/><path class="cls-4" d="M597.72,485.84v-8.4h1.26v3.12h.06c.1-.16,.24-.32,.44-.48,.43-.32,.92-.48,1.48-.48,.76,0,1.35,.22,1.77,.66,.42,.44,.63,1.08,.63,1.92v3.66h-1.26v-3.54c0-.54-.12-.93-.35-1.18-.24-.25-.6-.38-1.09-.38s-.89,.17-1.21,.5c-.32,.33-.47,.77-.47,1.3v3.3h-1.26Z"/></g><g><path class="cls-4" d="M70.37,311.88v-8.4h3.66c.97,0,1.75,.27,2.35,.81,.6,.54,.89,1.21,.89,2.01s-.3,1.47-.89,2.01-1.38,.81-2.35,.81h-2.28v2.76h-1.38Zm1.38-4.08h2.28c.58,0,1.03-.13,1.34-.4,.31-.27,.46-.63,.46-1.1s-.15-.83-.46-1.1c-.31-.27-.75-.4-1.34-.4h-2.28v3Z"/><path class="cls-4" d="M78.63,311.12c-.55-.59-.82-1.35-.82-2.3s.27-1.71,.82-2.3,1.23-.88,2.06-.88c.52,0,1,.15,1.43,.46,.18,.13,.35,.28,.49,.45h.06v-.78h1.26v6.12h-1.26v-.84h-.06c-.12,.17-.28,.33-.49,.48-.43,.32-.91,.48-1.43,.48-.82,0-1.51-.29-2.06-.88Zm.98-3.81c-.32,.35-.48,.86-.48,1.51s.16,1.16,.48,1.51c.32,.35,.76,.53,1.32,.53,.53,0,.95-.18,1.27-.53,.32-.36,.47-.86,.47-1.51s-.16-1.15-.47-1.51c-.32-.36-.74-.53-1.27-.53-.56,0-1,.18-1.32,.53Z"/><path class="cls-4" d="M85.37,311.88v-6.12h1.26v.9h.06c.09-.17,.22-.33,.38-.48,.37-.32,.8-.48,1.3-.48h.72v1.2h-.78c-.49,0-.89,.15-1.21,.46-.32,.31-.47,.71-.47,1.22v3.3h-1.26Z"/><path class="cls-4" d="M90.14,304.64c-.14-.14-.22-.32-.22-.53s.07-.39,.22-.53c.14-.15,.32-.22,.53-.22s.39,.07,.53,.22c.15,.15,.22,.33,.22,.53s-.07,.38-.22,.53c-.15,.14-.33,.22-.53,.22s-.38-.07-.53-.22Zm-.1,7.24v-6.12h1.26v6.12h-1.26Z"/><path class="cls-4" d="M92.33,309.96h1.38c.06,.16,.16,.31,.3,.46,.3,.3,.7,.44,1.2,.44,.44,0,.76-.07,.96-.2,.2-.14,.3-.31,.3-.52,0-.07-.02-.14-.05-.2s-.09-.11-.17-.16-.16-.09-.23-.13c-.07-.04-.18-.07-.32-.11-.14-.04-.26-.06-.35-.08-.09-.02-.22-.05-.4-.09-.18-.04-.31-.07-.4-.08-1.28-.29-1.92-.9-1.92-1.85,0-.48,.22-.9,.66-1.26,.44-.36,1.02-.54,1.74-.54,1,0,1.75,.32,2.24,.96,.22,.28,.38,.6,.46,.96h-1.32c-.06-.16-.15-.29-.26-.38-.28-.26-.65-.4-1.12-.4-.36,0-.63,.06-.81,.19-.18,.13-.27,.29-.27,.48,0,.07,.02,.14,.05,.2s.09,.11,.17,.16c.08,.05,.16,.09,.23,.12,.08,.03,.18,.07,.32,.1s.25,.06,.35,.08c.1,.02,.23,.05,.4,.08s.31,.07,.4,.09c1.28,.29,1.92,.9,1.92,1.85,0,.51-.23,.95-.69,1.31-.46,.36-1.09,.54-1.89,.54-1.04,0-1.84-.34-2.39-1.02-.25-.31-.41-.65-.49-1.02Z"/></g><g><path class="cls-4" d="M59.18,180.25l2.16-8.4h3.42l2.22,8.4h-1.44l-.58-2.16h-3.86l-.54,2.16h-1.38Zm2.28-3.48h3.17l-.95-3.6h-1.32l-.9,3.6Z"/><path class="cls-4" d="M67.88,180.25v-6.12h1.26v.84h.06c.1-.18,.24-.34,.41-.48,.38-.32,.85-.48,1.39-.48,.65,0,1.17,.19,1.57,.58,.17,.16,.3,.35,.41,.56h.06c.11-.21,.27-.4,.47-.56,.43-.38,.98-.58,1.63-.58,.71,0,1.27,.22,1.67,.67s.61,1.08,.61,1.91v3.66h-1.26v-3.6c0-1-.44-1.5-1.32-1.5-.42,0-.79,.17-1.1,.5-.31,.33-.46,.75-.46,1.24v3.36h-1.26v-3.6c0-1-.44-1.5-1.32-1.5-.42,0-.79,.17-1.1,.5s-.46,.75-.46,1.24v3.36h-1.26Z"/><path class="cls-4" d="M78.89,173.01c-.14-.14-.22-.32-.22-.53s.07-.39,.22-.53c.14-.15,.32-.22,.53-.22s.39,.07,.53,.22,.22,.33,.22,.53-.07,.38-.22,.53c-.15,.14-.33,.22-.53,.22s-.38-.07-.53-.22Zm-.1,7.24v-6.12h1.26v6.12h-1.26Z"/><path class="cls-4" d="M82.04,179.45c-.6-.61-.91-1.37-.91-2.26s.3-1.65,.91-2.26c.6-.61,1.34-.92,2.21-.92s1.61,.31,2.21,.92c.6,.61,.91,1.37,.91,2.26v.42h-4.98c.1,.5,.32,.9,.66,1.19s.74,.43,1.2,.43c.56,0,1.01-.14,1.34-.42,.15-.11,.28-.25,.4-.42h1.32c-.17,.39-.38,.72-.64,1-.66,.66-1.46,.98-2.42,.98-.87,0-1.61-.31-2.21-.92Zm.41-2.86h3.6c-.07-.4-.26-.74-.57-1.02-.31-.28-.72-.42-1.23-.42-.43,0-.82,.13-1.15,.39s-.55,.61-.65,1.05Z"/><path class="cls-4" d="M88.46,180.25v-6.12h1.26v.84h.06c.1-.16,.24-.32,.44-.48,.43-.32,.92-.48,1.48-.48,.76,0,1.35,.22,1.77,.66,.42,.44,.63,1.08,.63,1.92v3.66h-1.26v-3.54c0-.54-.12-.93-.35-1.18s-.6-.38-1.09-.38-.89,.17-1.21,.5c-.32,.33-.47,.77-.47,1.3v3.3h-1.26Z"/><path class="cls-4" d="M95.06,178.33h1.38c.06,.16,.16,.31,.3,.46,.3,.3,.7,.44,1.2,.44,.44,0,.76-.07,.96-.2,.2-.14,.3-.31,.3-.52,0-.07-.02-.14-.05-.2-.03-.06-.09-.11-.17-.16-.08-.05-.16-.09-.23-.13s-.18-.07-.32-.11c-.14-.04-.26-.06-.35-.08-.09-.02-.22-.05-.4-.09-.18-.04-.31-.07-.4-.08-1.28-.29-1.92-.9-1.92-1.85,0-.48,.22-.9,.66-1.26,.44-.36,1.02-.54,1.74-.54,1,0,1.75,.32,2.24,.96,.22,.28,.38,.6,.46,.96h-1.32c-.06-.16-.15-.29-.26-.38-.28-.26-.65-.4-1.12-.4-.36,0-.63,.06-.81,.19s-.27,.29-.27,.48c0,.07,.02,.14,.05,.2,.03,.06,.09,.11,.17,.16s.16,.09,.23,.12c.08,.03,.18,.07,.32,.1,.14,.04,.25,.06,.35,.08,.1,.02,.23,.05,.4,.08,.17,.04,.31,.07,.4,.09,1.28,.29,1.92,.9,1.92,1.85,0,.51-.23,.95-.69,1.31-.46,.36-1.09,.55-1.89,.55-1.04,0-1.84-.34-2.39-1.02-.25-.31-.41-.65-.49-1.02Z"/></g><g><path class="cls-4" d="M681.12,337.84h1.44c.06,.28,.17,.53,.35,.76,.38,.5,.97,.74,1.75,.74,.63,0,1.1-.11,1.4-.34,.3-.23,.46-.53,.46-.92,0-.3-.14-.55-.41-.73-.28-.18-.67-.34-1.18-.48-1-.26-1.67-.47-2.02-.64-.95-.44-1.43-1.1-1.43-1.99,0-.68,.29-1.27,.86-1.77,.58-.5,1.33-.75,2.26-.75,1.23,0,2.15,.41,2.75,1.24,.26,.35,.44,.76,.55,1.22h-1.44c-.05-.22-.16-.42-.3-.6-.34-.4-.86-.6-1.56-.6-.54,0-.96,.11-1.25,.34-.29,.22-.43,.51-.43,.86,0,.53,.53,.94,1.6,1.22,.09,.02,.26,.07,.5,.14,.25,.07,.43,.12,.53,.16s.28,.09,.5,.17,.4,.15,.51,.21c.11,.06,.26,.15,.43,.25s.31,.2,.4,.31c.09,.11,.19,.23,.29,.37,.1,.14,.17,.29,.21,.46,.04,.17,.06,.36,.06,.56,0,.72-.3,1.33-.89,1.83-.6,.5-1.4,.75-2.41,.75-1.34,0-2.33-.46-2.96-1.38-.29-.39-.48-.85-.58-1.38Z"/><path class="cls-4" d="M688.68,335.38v-1.14h.72v-1.32h1.26v1.32h1.86v1.14h-1.86v3.84h1.92v1.14h-3.18v-4.98h-.72Z"/><path class="cls-4" d="M693.66,337.9v-3.66h1.26v3.54c0,.54,.12,.93,.35,1.18,.24,.25,.6,.38,1.09,.38s.89-.17,1.21-.5c.32-.33,.47-.77,.47-1.3v-3.3h1.26v6.12h-1.26v-.84h-.06c-.1,.16-.24,.32-.44,.48-.43,.32-.92,.48-1.48,.48-.76,0-1.35-.22-1.77-.66-.42-.44-.63-1.08-.63-1.92Z"/><path class="cls-4" d="M700.26,335.38v-1.14h.72v-1.32h1.26v1.32h1.86v1.14h-1.86v3.84h1.92v1.14h-3.18v-4.98h-.72Z"/><path class="cls-4" d="M704.76,335.38v-1.14h.72v-1.32h1.26v1.32h1.86v1.14h-1.86v3.84h1.92v1.14h-3.18v-4.98h-.72Z"/><path class="cls-4" d="M710.21,339.6c-.55-.59-.82-1.35-.82-2.3s.27-1.71,.82-2.3c.55-.59,1.23-.88,2.06-.88,.52,0,1,.15,1.43,.46,.19,.14,.36,.29,.49,.46h.06v-.79h1.26v8.4h-5.22v-1.14h3.96v-1.92h-.06c-.14,.17-.3,.32-.49,.46-.42,.3-.9,.44-1.43,.44-.82,0-1.51-.29-2.06-.88Zm.98-3.81c-.32,.35-.48,.86-.48,1.51s.16,1.16,.48,1.51c.32,.35,.76,.53,1.32,.53,.53,0,.95-.18,1.27-.53,.32-.36,.47-.86,.47-1.51s-.16-1.15-.47-1.51c-.32-.36-.74-.53-1.27-.53-.56,0-1,.18-1.32,.53Z"/><path class="cls-4" d="M717.41,339.6c-.55-.59-.82-1.35-.82-2.3s.27-1.71,.82-2.3c.55-.59,1.23-.88,2.06-.88,.52,0,1,.15,1.43,.46,.18,.13,.35,.28,.49,.44h.06v-.78h1.26v6.12h-1.26v-.84h-.06c-.12,.17-.28,.33-.49,.48-.43,.32-.91,.48-1.43,.48-.82,0-1.51-.29-2.06-.88Zm.98-3.81c-.32,.35-.48,.86-.48,1.51s.16,1.16,.48,1.51c.32,.35,.76,.53,1.32,.53,.53,0,.95-.18,1.27-.53,.32-.36,.47-.86,.47-1.51s-.16-1.15-.47-1.51c-.32-.36-.74-.53-1.27-.53-.56,0-1,.18-1.32,.53Z"/><path class="cls-4" d="M724.15,340.36v-6.12h1.26v.9h.06c.09-.17,.22-.33,.38-.48,.37-.32,.8-.48,1.3-.48h.72v1.2h-.78c-.49,0-.89,.15-1.21,.46-.32,.31-.47,.71-.47,1.22v3.3h-1.26Z"/><path class="cls-4" d="M728.34,335.38v-1.14h.72v-1.32h1.26v1.32h1.86v1.14h-1.86v3.84h1.92v1.14h-3.18v-4.98h-.72Z"/></g><g><path class="cls-4" d="M318.57,63.38v-8.4h2.28l2.28,5.22h.3l2.28-5.22h2.22v8.4h-1.38v-5.88l.12-1.14h-.12l-2.22,5.1h-2.16l-2.22-5.1h-.12l.12,1.14v5.88h-1.38Z"/><path class="cls-4" d="M329.96,62.62c-.55-.59-.82-1.35-.82-2.3s.27-1.71,.82-2.3c.55-.59,1.23-.88,2.06-.88,.52,0,1,.15,1.43,.46,.18,.13,.35,.28,.49,.44h.06v-.78h1.26v6.12h-1.26v-.84h-.06c-.12,.17-.28,.33-.49,.48-.43,.32-.91,.48-1.43,.48-.82,0-1.51-.29-2.06-.88Zm.98-3.81c-.32,.35-.48,.86-.48,1.51s.16,1.16,.48,1.51c.32,.35,.76,.53,1.32,.53,.53,0,.95-.18,1.27-.53,.32-.36,.47-.86,.47-1.51s-.16-1.15-.47-1.51c-.32-.36-.74-.53-1.27-.53-.56,0-1,.18-1.32,.53Z"/><path class="cls-4" d="M337.16,62.62c-.55-.59-.82-1.35-.82-2.3s.27-1.71,.82-2.3c.55-.59,1.23-.88,2.06-.88,.52,0,1,.15,1.43,.46,.18,.13,.35,.28,.49,.44h.06v-.78h1.26v6.12h-1.26v-.84h-.06c-.12,.17-.28,.33-.49,.48-.43,.32-.91,.48-1.43,.48-.82,0-1.51-.29-2.06-.88Zm.98-3.81c-.32,.35-.48,.86-.48,1.51s.16,1.16,.48,1.51c.32,.35,.76,.53,1.32,.53,.53,0,.95-.18,1.27-.53,.32-.36,.47-.86,.47-1.51s-.16-1.15-.47-1.51c-.32-.36-.74-.53-1.27-.53-.56,0-1,.18-1.32,.53Z"/><path class="cls-4" d="M343.47,61.46h1.38c.06,.16,.16,.31,.3,.46,.3,.3,.7,.44,1.2,.44,.44,0,.76-.07,.96-.2,.2-.14,.3-.31,.3-.52,0-.07-.02-.14-.05-.2-.03-.06-.09-.11-.17-.16-.08-.05-.16-.09-.23-.13-.07-.04-.18-.07-.32-.11-.14-.04-.26-.06-.35-.08-.09-.02-.22-.05-.4-.09s-.31-.07-.4-.08c-1.28-.29-1.92-.9-1.92-1.85,0-.48,.22-.9,.66-1.26,.44-.36,1.02-.54,1.74-.54,1,0,1.75,.32,2.24,.96,.22,.28,.38,.6,.46,.96h-1.32c-.06-.16-.15-.29-.26-.38-.28-.26-.65-.4-1.12-.4-.36,0-.63,.06-.81,.19-.18,.13-.27,.29-.27,.48,0,.07,.02,.14,.05,.2,.03,.06,.09,.11,.17,.16s.16,.09,.23,.12c.08,.03,.18,.07,.32,.1,.14,.04,.25,.06,.35,.08,.1,.02,.23,.05,.4,.08,.17,.04,.31,.07,.4,.09,1.28,.29,1.92,.9,1.92,1.85,0,.51-.23,.95-.69,1.31-.46,.36-1.09,.55-1.89,.55-1.04,0-1.84-.34-2.39-1.02-.25-.31-.41-.65-.49-1.02Z"/><path class="cls-4" d="M349.53,58.4v-1.14h.72v-1.32h1.26v1.32h1.86v1.14h-1.86v3.84h1.92v1.14h-3.18v-4.98h-.72Z"/><path class="cls-4" d="M354.51,63.38v-6.12h1.26v.9h.06c.09-.17,.22-.33,.38-.48,.37-.32,.8-.48,1.3-.48h.72v1.2h-.78c-.49,0-.89,.15-1.21,.46-.32,.31-.47,.71-.47,1.22v3.3h-1.26Z"/><path class="cls-4" d="M359.29,56.14c-.14-.14-.22-.32-.22-.53s.07-.39,.22-.53c.14-.15,.32-.22,.53-.22s.39,.07,.53,.22c.15,.15,.22,.33,.22,.53s-.07,.38-.22,.53c-.15,.14-.33,.22-.53,.22s-.38-.07-.53-.22Zm-.1,7.24v-6.12h1.26v6.12h-1.26Z"/><path class="cls-4" d="M362.41,62.6c-.58-.6-.88-1.36-.88-2.28s.29-1.68,.88-2.28c.58-.6,1.31-.9,2.18-.9,.98,0,1.77,.37,2.39,1.12,.26,.34,.45,.71,.55,1.1h-1.32c-.06-.2-.16-.38-.31-.54-.31-.36-.75-.54-1.31-.54-.5,0-.91,.19-1.24,.56s-.5,.87-.5,1.48,.17,1.1,.5,1.48,.75,.56,1.24,.56c.58,0,1.03-.18,1.36-.54,.14-.16,.25-.34,.32-.54h1.26c-.1,.41-.29,.78-.55,1.12-.61,.74-1.4,1.1-2.39,1.1-.87,0-1.6-.3-2.18-.9Z"/><path class="cls-4" d="M368.55,63.38v-8.4h1.26v3.12h.06c.1-.16,.24-.32,.44-.48,.43-.32,.92-.48,1.48-.48,.76,0,1.35,.22,1.77,.66,.42,.44,.63,1.08,.63,1.92v3.66h-1.26v-3.54c0-.54-.12-.93-.35-1.18-.24-.25-.6-.38-1.09-.38s-.89,.17-1.21,.5c-.32,.33-.47,.77-.47,1.3v3.3h-1.26Z"/><path class="cls-4" d="M375.09,58.4v-1.14h.72v-1.32h1.26v1.32h1.86v1.14h-1.86v3.84h1.92v1.14h-3.18v-4.98h-.72Z"/></g><g><path class="cls-4" d="M376.43,201.2v-8.4h1.8v6.72h4.14v1.68h-5.94Z"/><path class="cls-4" d="M383.15,198.8v-3.72h1.68v3.48c0,.45,.11,.79,.33,1.03,.22,.24,.53,.35,.93,.35s.74-.15,1.02-.46c.28-.3,.42-.69,.42-1.16v-3.24h1.68v6.12h-1.68v-.84h-.06c-.1,.18-.24,.36-.44,.52-.43,.34-.92,.5-1.48,.5-.76,0-1.35-.22-1.77-.66-.42-.44-.63-1.08-.63-1.92Z"/><path class="cls-4" d="M389.87,201.2l1.8-3.12-1.68-3h1.86l1.14,2.28h.3l1.14-2.28h1.86l-1.68,3,1.8,3.12h-1.86l-1.26-2.4h-.3l-1.26,2.4h-1.86Z"/><path class="cls-4" d="M397.43,200.43c-.64-.63-.95-1.39-.95-2.3s.32-1.67,.95-2.3c.64-.63,1.42-.94,2.35-.94s1.72,.31,2.33,.94c.61,.62,.91,1.39,.91,2.3v.36h-4.8c.06,.4,.24,.74,.54,1.02,.3,.28,.64,.42,1.02,.42,.42,0,.79-.12,1.09-.36,.12-.1,.22-.22,.29-.36h1.8c-.14,.41-.34,.77-.6,1.08-.64,.72-1.5,1.08-2.58,1.08-.93,0-1.71-.31-2.35-.94Zm.85-2.96h2.94c-.06-.32-.23-.59-.49-.81-.26-.22-.58-.33-.95-.33s-.7,.11-.96,.32c-.26,.22-.44,.49-.54,.82Z"/><path class="cls-4" d="M404.03,201.2v-6.12h1.68v.84h.06c.11-.2,.25-.37,.41-.5,.39-.34,.86-.52,1.39-.52,.64,0,1.18,.19,1.61,.58,.18,.17,.32,.36,.43,.56h.06c.11-.21,.26-.4,.43-.56,.43-.38,.95-.58,1.55-.58,.74,0,1.31,.22,1.72,.67,.41,.44,.62,1.08,.62,1.91v3.72h-1.68v-3.54c0-.88-.38-1.32-1.14-1.32-.37,0-.68,.14-.94,.43-.26,.29-.38,.67-.38,1.13v3.3h-1.68v-3.54c0-.88-.38-1.32-1.14-1.32-.37,0-.68,.14-.94,.43-.26,.29-.38,.67-.38,1.13v3.3h-1.68Z"/><path class="cls-4" d="M415.25,201.2v-8.4h1.68v3.06h.06c.13-.17,.28-.33,.47-.48,.43-.32,.92-.48,1.45-.48,.8,0,1.47,.3,2.01,.89s.81,1.38,.81,2.35-.27,1.75-.81,2.35c-.54,.6-1.21,.89-2.01,.89-.54,0-1.02-.16-1.45-.48-.18-.15-.34-.31-.47-.48h-.06v.78h-1.68Zm2.11-4.39c-.29,.32-.43,.76-.43,1.33s.14,1.01,.43,1.33c.29,.32,.66,.47,1.13,.47,.44,0,.8-.16,1.08-.48,.28-.32,.42-.76,.42-1.32s-.14-1-.42-1.32c-.28-.32-.64-.48-1.08-.48-.46,0-.84,.16-1.13,.47Z"/><path class="cls-4" d="M423.35,200.43c-.64-.63-.96-1.39-.96-2.3s.32-1.67,.96-2.3c.64-.63,1.44-.94,2.4-.94s1.75,.31,2.39,.94c.64,.63,.97,1.39,.97,2.3s-.32,1.67-.97,2.3c-.64,.63-1.44,.94-2.39,.94s-1.76-.31-2.4-.94Zm1.25-3.59c-.31,.34-.47,.77-.47,1.3s.16,.96,.47,1.3c.31,.34,.7,.5,1.15,.5s.84-.17,1.15-.5c.31-.34,.47-.77,.47-1.3s-.16-.96-.47-1.3c-.31-.34-.7-.5-1.15-.5s-.84,.17-1.15,.5Z"/><path class="cls-4" d="M430.07,198.8v-3.72h1.68v3.48c0,.45,.11,.79,.33,1.03,.22,.24,.53,.35,.93,.35s.74-.15,1.02-.46c.28-.3,.42-.69,.42-1.16v-3.24h1.68v6.12h-1.68v-.84h-.06c-.1,.18-.24,.36-.44,.52-.43,.34-.92,.5-1.48,.5-.76,0-1.35-.22-1.77-.66-.42-.44-.63-1.08-.63-1.92Z"/><path class="cls-4" d="M437.45,201.2v-6.12h1.68v.9h.06c.07-.19,.18-.36,.32-.5,.33-.34,.74-.52,1.24-.52h.72v1.62h-.9c-.46,0-.81,.12-1.06,.37-.25,.24-.38,.58-.38,1.01v3.24h-1.68Z"/><path class="cls-4" d="M442.83,200.37c-.54-.59-.82-1.36-.82-2.29s.27-1.7,.82-2.29,1.21-.89,2-.89c.53,0,1.01,.16,1.45,.49,.18,.15,.34,.31,.47,.48h.06v-.79h1.68v8.4h-5.58v-1.44h3.9v-1.75h-.06c-.14,.19-.29,.36-.47,.49-.43,.32-.92,.48-1.45,.48-.79,0-1.46-.3-2-.89Zm1.36-3.56c-.29,.31-.43,.74-.43,1.27s.14,.96,.43,1.27c.29,.31,.66,.47,1.13,.47,.44,0,.8-.16,1.08-.47,.28-.31,.42-.74,.42-1.27s-.14-.96-.42-1.27c-.28-.31-.64-.47-1.08-.47-.46,0-.84,.16-1.13,.47Z"/></g><g><circle class="cls-2" cx="413.29" cy="223.5" r="17.66"/><path class="cls-4" d="M420.68,227.98l-4.48-4.48,4.48-4.48c.53-.53,.85-1.19,.91-1.85,.07-.85-.23-1.69-.83-2.29-.6-.6-1.43-.9-2.29-.83-.66,.06-1.32,.38-1.85,.91l-4.48,4.48-5.4-5.4-1.77,1.77,5.56,5.56c.43,.43,1,.67,1.61,.67h0c.61,0,1.18-.24,1.61-.67l4.73-4.73c.14-.14,.37-.14,.51,0,.14,.14,.14,.37,0,.51l-4.67,4.67c-.44,.44-.69,1.04-.69,1.67h0c0,.63,.24,1.22,.69,1.67l4.67,4.67c.14,.14,.14,.37,0,.51-.14,.14-.37,.14-.51,0l-4.73-4.73c-.43-.43-1-.67-1.61-.67h0c-.61,0-1.18,.24-1.61,.67l-5.56,5.56,1.77,1.77,5.4-5.4,4.48,4.48c.53,.53,1.19,.85,1.85,.91,.86,.07,1.69-.23,2.29-.83,.6-.6,.9-1.43,.83-2.29-.06-.67-.38-1.32-.91-1.85Z"/></g></g></g></svg>