<?xml version="1.0" encoding="UTF-8"?><svg id="Layer_2" xmlns="http://www.w3.org/2000/svg" viewBox="0 0 732.6 529.79"><defs><style>.cls-1{opacity:.1;}.cls-1,.cls-2,.cls-3{fill:#60c4e1;}.cls-4{font-family:TTFirsNeue-Bold, 'TT Firs Neue';font-size:24px;}.cls-4,.cls-5,.cls-6,.cls-7,.cls-8,.cls-9{fill:#fff;}.cls-4,.cls-10{opacity:.6;}.cls-11{fill:#ed2224;}.cls-12{fill:#ed1c24;}.cls-6{font-family:TTFirsNeue-DemiBold, 'TT Firs Neue';}.cls-6,.cls-7{font-size:12px;}.cls-3{font-size:16px;}.cls-3,.cls-7,.cls-8{font-family:TTFirsNeue-Medium, 'TT Firs Neue';}.cls-13{stroke:#fff;}.cls-13,.cls-14{fill:none;stroke-miterlimit:10;}.cls-14{stroke:#60c4e1;}.cls-8{font-size:11.34px;}.cls-9{opacity:.4;}</style></defs><g id="x"><g><path class="cls-1" d="M621.45,143.63c64.72,124.99,10.47,275.36-119.7,337.37-129.55,61.71-288.38,13.91-356.25-108.22C76.55,248.72,126.96,94.57,259.67,29.97s296.03-13.33,361.78,113.65Z"/><path class="cls-14" d="M621.45,143.63c64.72,124.99,10.47,275.36-119.7,337.37-129.55,61.71-288.38,13.91-356.25-108.22C76.55,248.72,126.96,94.57,259.67,29.97s296.03-13.33,361.78,113.65Z"/><path class="cls-1" d="M560.24,164.49c47.46,91.62,14.12,186.68-70.16,212.95-80.73,25.16-180.94-21.87-227.66-105.53-47.63-85.3-24.68-181.44,55.21-214.5,83.53-34.57,194.15,13.52,242.61,107.08Z"/><path class="cls-14" d="M560.24,164.49c47.46,91.62,14.12,186.68-70.16,212.95-80.73,25.16-180.94-21.87-227.66-105.53-47.63-85.3-24.68-181.44,55.21-214.5,83.53-34.57,194.15,13.52,242.61,107.08Z"/><polygon class="cls-9" points="409.42 145.28 412.15 144.27 414.4 145.28 418.32 148.39 420.09 145.94 422.14 146.1 422.14 149.07 423.5 151.93 422.95 156.7 421.45 159.29 423.36 163.24 423.77 170.46 428.44 175.07 431.12 177 431.81 180.95 434.58 184.8 436.57 188.44 439.57 188.3 440.39 187.08 443.52 188.71 445.56 190.76 451.88 190.97 455.37 191.44 454.96 199.88 452.6 205.1 451.01 209.55 447.33 212.28 446.78 215.21 444.28 219.16 441.89 221.68 442.16 224.54 443.42 226.17 443.63 228.36 443.68 230.69 442.84 235.84 440.68 235.84 436.1 232.3 433.11 230.82 428.2 230.07 424.28 231.92 421.44 234 413.3 233.71 410.83 231.92 404.56 231.42 401.53 229.74 400.47 228 398.34 226.6 397.8 224.36 400.07 223.09 401.97 215.96 402.05 210.2 397.89 201.93 391.21 192.94 391.76 186.12 394.62 183.13 392.17 180.54 392.98 174.95 398.98 169.78 399.52 164.47 404.56 153.43 408.1 149.48 409.42 145.28"/><g class="cls-10"><path class="cls-13" d="M127.6,28.12l10.45,9.68v20.91l2.32,3.87h3.1l5.03,5.81,10.07,9.29,3.87-1.55,8.91-7.36,14.33,.39,2.32,14.71v5.03l11.62,15.1,10.84-3.87,7.36,3.87s2.32,7.74,2.71,8.91,7.74,14.33,7.74,14.33l5.03-3.87,13.94,.39,6.2,.77,12.78,10.45s-3.48,4.65-3.87,5.81,0,8.91,0,8.91l3.87,4.26-6.2,12.39,1.99,2.49,8.37,2.3,12.08,.09,14.35-.62,6.58-4.65v-7.74l10.84-12.39,7.36,4.65-6.58,13.17,1.05,7.59,3.98,1.32,.65,6.31-2,8.81-.09,4.81h6.81l4.63-.54,1-1.36,3.81,.64,1.18,2.45,5.36,5.54,4.18,4.45,8.08,4.27,9.26,5.36,3.54,4.18,4.36,6.9,1.09,1.82h5.36l5.99-1.82,6.18-1.09,6.9-.18,1.45,1.27,2.27-1.27,1.91-7.13v-5.45l-4.09-8.58-6.67-8.99,.54-6.81,2.86-3-2.45-2.59,.82-5.58,5.99-5.18,.54-5.31,2.45-5.31,2.59-5.72,3.54-3.95,1.5-4.77,3.13-.54,4.5,3,1.09,1.23,1.77-2.45,3.54,.27,1.09-.82v-2.59l-1.91-.95,.54-2.59,5.18-2.32,2.45-2.59,1.63-4.36,3-.14,2.18,1.36,2.04-1.36,2.18-3.68v-1.36l-5.45-3.13-.41-2.45,3.27-3.41-.54-5.31-5.86-2.32-3.41-2.45-2.72-1.36-.95-1.63,.68-3.81,1.36-4.5,.54-3.68-1.23-2.32-2.04-1.09-6.67-6.95-.27-3.41-4.22-1.77-11.85-.14-3.54-2.04-4.77-1.23-4.63,2.72-1.77,.95-2.04-3.54-2.18-5.45-1.77-3.81,3.95-7.08,3-3.95-.68-4.36,.68-3.41,6.13-7.49,.41-5.99,2.32-2.31-2.18-3.55-5.86-3.54-7.08-1.36-5.31-1.5-.82-4.36L370.64,.19"/><path class="cls-13" d="M415.59,14.35v4.9h1.63l1.63-1.23,3.27,1.23,1.77,.54v4.22l-1.36,2.86-5.04,1.91-5.58,5.04-4.09,1.77-4.09,1.77-.54,3,2.32,2.86,7.22,2.45,5.04,7.63-2.04,7.36-4.36,2.59s-1.77,1.5-1.5,2.18,4.9,4.09,4.9,4.09l-.68,5.72"/><path class="cls-13" d="M422.14,146.1v2.98l1.35,2.86-.54,4.77-1.5,2.59,1.91,3.95,.41,7.22,3.95,4.09,3.41,2.45,.68,3.95,2.45,3.27,2.32,4.22,3-.14,.82-1.23,3.13,1.63,2.04,2.04,7.9,.27,1.91,.41-.41,8.45-1.91,3.95-2.04,5.72-3.68,2.72-.27,2.45-2.45,4.09-2.72,2.86,.27,2.86,1.23,1.23,.41,4.22-.95,5.86,2.59-.27,4.09-.82,4.09,1.63,4.5,4.36-.27,3.27,1.77,1.23-.27,3.27-1.36,2.18,1.77,2.18,5.45,3.81,2.04,3.81-.68,3,1.23,3.13,4.22,3.27,2.86,3.95h4.09l.27-3.54-.54-4.22,1.77-1.09,5.31,.41,5.18,1.5,3.41,3.68,.14,2.86,2.18,1.5,3.95-.41,2.32,.82,2.04,.82h6.81l3.41-.54,4.09-3.68,1.5-2.04,6.54-.41,2.86,1.77,.14,4.5,3.68,3,2.32,2.32,6.54,2.04,.95,1.36,11.03,.95,7.49-.27,7.49,3,5.45,3,6.54,1.5,3.81-.27-.27,2.32-2.32,3.41-1.09,3.95-4.09,5.04-.82,3.95-1.5,1.23-.54,3.68-3.95,1.5-3.95,3.68-.54,3.27-3.68,2.59-4.9,4.77-3.41,3.41,.68,9.4-2.59,6.67-3,4.63-.82,12.4-1.5,4.36-2.86,2.18-2.18,8.58-4.5,6.95-2.04,3,.68,7.63,2.45,3.54,1.91,5.72-1.5,3.13-4,8.45-3.27,7.81,.36,8.17-2.18,6.54,2.72,3.27,3.09,7.45,2,.73,2.91-1.63,2,.18-.18,4.54-1.63,3.81,5.27,.18,6.9-3.27,5.09-4.18,6.54,3.45,5.45,2.54,9.44-4.72,8.72-4.36,8.17,5.27,8.17-2.18,.73-4.36,3.81-.54,3.27,3.09,2.72-1.09s2.54-2.36,2.36-2.91-1.45-2.36-1.45-2.36l-4.36-.36-2,1.27-4.54-.18-6.54-1.27v-1.45l3.09-3.81,2.72-5.27,2.36-3.63h7.81l1.09-1.45h4.9l1.27,2.36,1.63,3.09,2.18,.54,.18,1.82-1.27,2.18-.73,2.18,3.27,.54,4.54-.54-.73-3.81,2.72-.18,2.54,2.54,7.27-3.45"/><polyline class="cls-13" points="542.19 462.83 540.37 467.73 536.38 471.37 532.58 475.91 534.01 479.72 528.38 484.63 522.57 486.62 513.13 486.62 509.86 485.72 508.41 481.9 507.32 478.09"/><path class="cls-13" d="M397.8,224.36l.54,2.24,2.13,1.4,1.06,1.74,3.03,1.68,6.27,.5,2.47,1.79h8.46l2.52-1.79s3.64-1.85,3.92-1.85,3.87,.28,3.87,.28l3.47,1.57,4.03,2.76,3.27,1.16"/></g><text class="cls-4" transform="translate(260.59 99.86)"><tspan x="0" y="0">Belgium</tspan></text><text class="cls-4" transform="translate(560.85 99.86)"><tspan x="0" y="0">Germany</tspan></text><text class="cls-4" transform="translate(178.27 304.46)"><tspan x="0" y="0">France</tspan></text><text class="cls-4" transform="translate(513.12 521.51)"><tspan x="0" y="0">Switzerland</tspan></text><g><rect x="373.02" y="91.79" width="90.67" height="33.84" rx="2.17" ry="2.17"/><g><path class="cls-5" d="M382.46,95.38c1.3,0,2.59,0,3.89,0,0,1.29,0,2.59,0,3.88-1.3,0-2.6,0-3.9,0,.01-1.29,0-2.58,0-3.88Z"/><path class="cls-11" d="M378.46,99.27c1.28,.02,2.56,0,3.84,0,0,2.56,0,3.2,0,3.85-1.28-.01-2.55-.02-3.83,0,.01-1.28,.02-2.57,0-3.85Z"/><path class="cls-5" d="M382.27,103.2c1.94,0,3.88,0,5.83,0,0,1.94,0,3.88,0,5.82,1.94,0,3.88,0,5.83,0-.01,1.94,0,3.88,0,5.82-1.92,0-3.83,0-5.75,0,0,2.35-.01,4.7,0,7.05-2.38,0-4.77,0-7.16,0,0-2.38,0-4.76,0-7.14,2.35,0,4.71,0,7.06,0,0-1.91,0-3.82,0-5.72-1.94,0-3.88,0-5.82,0,.01-1.94,0-3.89,0-5.83Z"/><path class="cls-5" d="M415.48,108.93c.38,0,.75,0,1.13,0,0,1.3-.03,2.6,.02,3.9,.02,.76,1.03,1.12,1.59,.66,.27-.2,.38-.54,.37-.86,0-1.23,0-2.46,0-3.69,.37,0,.74,0,1.11,0-.02,1.36,.03,2.72-.02,4.08-.16,1.45-2.01,2.09-3.19,1.4-.59-.32-.98-.95-.99-1.61-.02-1.29,0-2.58-.01-3.86Z"/><path class="cls-5" d="M398.96,109.95c.66-1.26,2.5-1.37,3.48-.42-.25,.25-.49,.49-.73,.75-.49-.45-1.38-.59-1.72,.11-.23,.88-.19,1.83-.03,2.72,.26,.77,1.26,.68,1.77,.21,.24,.25,.48,.51,.72,.76-.47,.32-.99,.64-1.58,.6-1.05,.06-2.1-.78-2.1-1.87-.04-.95-.16-1.96,.21-2.86Z"/><path class="cls-5" d="M403.4,108.94h1.13c0,1.9,0,3.8,0,5.7-.38,0-.75,0-1.13,0,0-1.9,0-3.8,0-5.7Z"/><path class="cls-5" d="M407.49,108.92c-.55,0-1.1,.06-1.64,.02,0,1.9,.01,3.8,0,5.7h1.11c0-.76,0-1.51,0-2.26,.26,0,.53,0,.8-.01,.37,.76,.74,1.53,1.12,2.28,.43,0,.87,0,1.31,0-.44-.8-.84-1.61-1.27-2.41,1.27-.49,1.37-2.42,.17-3.04-.51-.22-1.05-.26-1.59-.26Zm-.5,.99c.47,.02,.95-.02,1.41,.11,.59,.24,.53,1.2-.08,1.37-.45,.07-.91,.04-1.37,.04,0-.51,.01-1.01,.04-1.52Z"/><path class="cls-5" d="M411.5,109.47c.85-.83,2.27-.71,3.12,.06-.25,.24-.5,.49-.74,.74-.38-.26-.85-.54-1.3-.29-.66,.29-.53,1.12-.57,1.7,.05,.65-.14,1.56,.56,1.92,.46,.24,.93-.02,1.31-.29,.24,.25,.49,.49,.73,.74-.87,.83-2.41,.87-3.22-.06-.58-.63-.48-1.54-.49-2.32,0-.76,0-1.65,.61-2.19Z"/><path class="cls-5" d="M420.93,108.93c.37,0,.74,0,1.12,0,0,1.9,0,3.8,0,5.7-.37,0-.75,0-1.12,0,0-1.9,0-3.8,0-5.7Z"/><path class="cls-5" d="M422.95,108.94c1.37,0,2.73,0,4.1,0,0,.33,0,.66,0,.99-.5,0-1,0-1.49,0,0,1.57,0,3.14,0,4.71-.38,0-.76,0-1.14,0,0-1.56,0-3.12,0-4.68-.49-.02-.98-.03-1.47-.04,0-.32,0-.65,0-.98Z"/><path class="cls-5" d="M431.65,108.92c-.62-.01-1.27,.07-1.86,.02,0,1.9,0,3.8,0,5.7,.9-.02,1.81,.07,2.71-.07,.9-.17,1.48-1.08,1.44-1.97-.03-1.04,.24-2.31-.58-3.13-.49-.43-1.09-.54-1.71-.56Zm-.73,1c.61,.02,1.48-.13,1.79,.56,.18,.84,.17,1.74,0,2.58-.28,.72-1.18,.57-1.8,.59,0-1.24,0-2.49,0-3.73Z"/><path class="cls-5" d="M435.07,114.64c0-1.9,0-3.8,0-5.7,1.26,0,2.51,0,3.78,0,0,.33,0,.66,0,.99-.88,0-1.77,0-2.65,.03,0,.43,0,.87,0,1.3,.75,0,1.51,0,2.26,0,0,.34,0,.68,0,1.01-.75,0-1.51,0-2.26,0,0,.46,0,.92,0,1.38,.89,0,1.77,0,2.66,0,0,.33,0,.66,0,.99-1.26,0-2.52,0-3.78,0Z"/><path class="cls-5" d="M442.27,109.19c.97-.53,2.23-.34,3.08,.35-.24,.23-.47,.47-.71,.7-.51-.31-1.18-.54-1.74-.24-.43,.2-.49,.87-.05,1.09,.67,.26,1.47,.14,2.07,.57,.8,.67,.71,2.13-.2,2.66-1.09,.62-2.55,.43-3.51-.36,.24-.24,.48-.49,.72-.73,.59,.38,1.33,.6,2.02,.35,.51-.15,.57-.99,.07-1.18-.69-.23-1.51-.11-2.09-.62-.76-.7-.57-2.11,.33-2.6Z"/><path class="cls-5" d="M447.99,108.92c-.5,0-.99,.04-1.48,.01,0,1.9,0,3.8,0,5.7h1.11c0-.71,0-1.42,0-2.13,.83-.02,1.81,.14,2.47-.51,.92-.83,.57-2.57-.63-2.94-.48-.12-.97-.14-1.47-.13Zm.37,1c.25,0,.5,.02,.74,.11,.53,.24,.54,1.12,0,1.37-.46,.17-.97,.09-1.45,.11-.03-.52-.03-1.03-.04-1.55,.24,0,.49-.03,.74-.04Z"/><path class="cls-5" d="M453.46,108.94c-.29,0-.58,0-.88,0-.7,1.9-1.38,3.8-2.1,5.7,.39,0,.8,.03,1.19-.04,.14-.32,.23-.65,.35-.97,.67,0,1.34,0,2.01,0,.12,.33,.23,.67,.34,1,.39,0,.79,0,1.19,0-.72-1.89-1.39-3.81-2.1-5.7Zm-.43,1.7c.25,.68,.46,1.38,.71,2.05-.47,0-.95,0-1.42,0,.25-.68,.49-1.37,.71-2.06Z"/><path class="cls-5" d="M398.96,117.04c1.03,0,2.06,0,3.09,0,0,.12,0,.35,0,.46-.86,0-1.71,0-2.56,0,0,.62,0,1.23,.03,1.85,.7,0,1.41-.08,2.11,0,.02,.11,.07,.33,.09,.44-.74,.02-1.49,0-2.24,0,0,.72,0,1.44,0,2.17-.13,0-.39,0-.53,.01,0-1.65,0-3.3,0-4.95Z"/><path class="cls-5" d="M404.22,117.04c-.41,0-.81,.02-1.22,0,0,1.65,0,3.29,0,4.94,.14,0,.41-.02,.55-.02,0-.72-.03-1.45-.04-2.17h1.2c.38,.73,.75,1.46,1.13,2.19,.16,0,.48-.01,.64-.01-.4-.72-.76-1.46-1.17-2.18,.28-.16,.61-.28,.81-.55,.52-.71,.22-1.94-.69-2.14-.4-.06-.81-.07-1.22-.07Zm.18,.46c.29,0,.58,.02,.87,.07,.76,.22,.75,1.48,0,1.7-.56,.07-1.13,.05-1.69,.09-.04-.61-.07-1.23-.05-1.85,.29,0,.59-.01,.88-.01Z"/><path class="cls-5" d="M409.22,117.05c-.12,0-.36,0-.48,.01-.6,1.65-1.2,3.29-1.82,4.94,.15,0,.44-.02,.59-.03,.12-.36,.25-.72,.38-1.08,.72,0,1.45,0,2.17,0,.13,.37,.25,.73,.38,1.1h.59c-.61-1.65-1.22-3.29-1.82-4.94Zm-.25,.81c.36,.83,.62,1.71,.94,2.55-.62,0-1.24,0-1.86,0,.32-.84,.61-1.7,.92-2.55Z"/><path class="cls-5" d="M411.82,117.02c.57-.11,.78,.45,1.06,.83,.68,1.05,1.39,2.07,2.06,3.12,0-1.32,0-2.64,0-3.95,.14,0,.4,0,.54,0,0,1.67,0,3.34,0,5.02-.13-.03-.4-.09-.53-.12-.91-1.27-1.72-2.61-2.62-3.9,.02,1.32,0,2.64,.01,3.96-.13,0-.39,.01-.52,.02,0-1.66,0-3.32,0-4.98Z"/><path class="cls-5" d="M417.32,117.38c.75-.65,1.88-.46,2.56,.19-.09,.09-.26,.27-.35,.37-.47-.42-1.19-.68-1.75-.27-.62,.39-.51,1.22-.53,1.85,.02,.63-.08,1.45,.55,1.84,.56,.41,1.26,.11,1.73-.28,.09,.1,.26,.29,.35,.38-.55,.42-1.26,.75-1.95,.5-.83-.19-1.28-1.05-1.21-1.86,.04-.91-.22-2.07,.6-2.71Z"/><path class="cls-5" d="M422.42,116.98c-.27,0-.54,.05-.78,.17-.71,.28-1.02,1.07-.97,1.79,.04,.88-.21,1.99,.54,2.65,.86,.83,2.55,.46,2.85-.74,.13-.81,.11-1.65,.04-2.47-.08-.84-.89-1.39-1.69-1.4Zm.15,.5c.53,.08,1.01,.52,1.01,1.08,.03,.76,.11,1.57-.1,2.31-.34,.9-1.78,.91-2.14,.02-.22-.75-.13-1.56-.1-2.33,.01-.47,.35-.89,.8-1.03,.17-.06,.35-.07,.53-.05Z"/><path class="cls-5" d="M426.74,117.03c-.46,0-.92,.05-1.37,.02,0,1.64,0,3.28,0,4.92,.14,0,.42,.01,.56,.01,0-.73,0-1.46,0-2.19,.39,0,.79,0,1.18,0,.38,.73,.75,1.47,1.14,2.2,.16,0,.47-.01,.63-.02-.41-.71-.76-1.45-1.16-2.17,1.16-.29,1.47-2.03,.37-2.59-.43-.16-.88-.19-1.34-.18Zm.07,.47c.3,0,.6,.01,.89,.09,.71,.24,.71,1.42-.01,1.65-.58,.12-1.18,.05-1.77,.06,0-.6,0-1.2,0-1.8,.3,.01,.59,0,.89,0Z"/><path class="cls-5" d="M430.35,117.39c.76-.66,1.89-.46,2.59,.18-.13,.12-.26,.25-.39,.37-.44-.43-1.16-.67-1.71-.28-.64,.39-.52,1.23-.54,1.86,.02,.63-.08,1.44,.53,1.83,.56,.41,1.27,.14,1.73-.28,.09,.1,.28,.29,.37,.38-.51,.37-1.14,.72-1.8,.54-.81-.12-1.41-.89-1.36-1.71,.04-.96-.27-2.18,.57-2.89Z"/><path class="cls-5" d="M434.05,117.05h.52c0,.73,0,1.47,0,2.2,.79,0,1.57,0,2.36,0,0-.74,0-1.47,0-2.21,.13,0,.39,0,.53,0,0,1.65,0,3.29,.01,4.93-.13,0-.4,0-.54,0,0-.75,0-1.5,0-2.24-.79,0-1.57,0-2.36,0,0,.75,0,1.5,0,2.24-.13,0-.39,0-.53,0,.01-1.65,0-3.29,0-4.93Z"/><path class="cls-5" d="M440.53,117.03c-.12,0-.35,.03-.47,.04-.59,1.64-1.2,3.28-1.8,4.92h.58c.13-.37,.26-.73,.38-1.1,.73,0,1.44,0,2.17,0,.13,.36,.26,.73,.38,1.09,.15,0,.45,.02,.59,.02-.61-1.65-1.22-3.31-1.83-4.97Zm-.2,.77c.28,.88,.59,1.74,.9,2.61-.62,0-1.24,0-1.86,0,.33-.86,.62-1.74,.95-2.6Z"/><path class="cls-5" d="M443.13,117c.14,.02,.43,.05,.57,.07,.52,1.16,1.04,2.31,1.6,3.45,.5-1.17,1.04-2.32,1.55-3.48,.14,0,.41,0,.54,0,0,1.65,0,3.29,0,4.94-.14,0-.41,0-.55,0,0-1.24,.02-2.47,0-3.7-.44,.98-.88,1.96-1.34,2.94-.12,0-.35-.02-.47-.02-.44-.97-.88-1.94-1.35-2.9-.01,1.23,0,2.46,0,3.7-.14,0-.41,0-.54,0,0-1.66,0-3.32,0-4.98Z"/><path class="cls-5" d="M450.04,117.04c-.41,0-.82,.03-1.22,.02,0,1.64,0,3.28,0,4.93,.13,0,.39,0,.52,0,0-.67,0-1.35,0-2.03,.76-.06,1.61,.17,2.29-.28,.9-.62,.71-2.25-.37-2.55-.4-.08-.81-.09-1.22-.09Zm.41,.46c.37,0,.72,.07,1.01,.33,.37,.48,.26,1.36-.37,1.57-.57,.12-1.16,.05-1.74,.06,0-.65,0-1.3,0-1.95,.35,.03,.73-.02,1.1-.01Z"/><path class="cls-5" d="M453.66,117.16c.77-.36,1.65-.14,2.33,.31-.08,.1-.23,.29-.3,.39-.51-.33-1.17-.55-1.76-.3-.54,.22-.68,1.07-.2,1.42,.59,.36,1.36,.21,1.95,.57,.75,.5,.69,1.76-.08,2.21-.89,.51-2.07,.31-2.84-.34,.09-.1,.26-.29,.34-.38,.59,.47,1.44,.72,2.14,.35,.55-.26,.6-1.15,.07-1.46-.63-.25-1.38-.14-1.95-.56-.72-.56-.53-1.87,.32-2.21Z"/></g></g><g><rect x="450.63" y="129.37" width="91.16" height="53" rx="3.73" ry="3.73"/><g><path class="cls-5" d="M480.08,137.26h4.14c.15,.13,.33,.26,.34,.48,.07,.74,0,1.49,.04,2.24,0,.24,.19,.42,.36,.58,.51,.47,.99,.97,1.5,1.44,.25,.23,.46,.5,.75,.68,.25,.09,.52,.04,.78,.05,1.25-.01,2.51,0,3.76,0,.29,.01,.61,0,.85,.17,.42,.33,.72,.79,1.16,1.1,.26,.16,.52-.08,.7-.26,.94-.97,1.9-1.93,2.86-2.88,.35-.37,1.01-.38,1.37,0,.95,.92,1.88,1.86,2.83,2.77,.13,.13,.26,.29,.28,.48,.04,.36,0,.73,.02,1.09,0,.32,.03,.64,0,.96,0-.09,0-.18,0-.27-.13,.13-.25,.32-.45,.36-.45,.08-.93-.05-1.37,.07-.13,.12-.1,.31-.09,.47,.05,.45,.02,.9,.03,1.35,0,.37,.03,.73-.03,1.1,0-.09,0-.18,0-.28-.14,.18-.29,.36-.45,.51-.55,.54-1.1,1.09-1.64,1.64-.26,.26-.52,.56-.87,.7-.25,.11-.53,.09-.8,.1-.36,0-.72,0-1.08,0-.1,0-.2,0-.3-.01,.23-.3,.52-.55,.78-.81,.44-.45,.89-.89,1.34-1.33,.14-.15,.3-.3,.31-.52,.04-.5-.03-1,.02-1.5,.01-.15,.09-.33,.26-.35,.44-.07,.9,.01,1.34-.05,.21-.02,.3-.25,.29-.43,.01-.63,0-1.26-.01-1.9,.02-.19-.02-.39-.18-.52-.48-.45-.92-.95-1.39-1.41-.17-.16-.36-.33-.6-.33-.26,0-.47,.19-.64,.36-.92,.93-1.85,1.85-2.77,2.77-.16,.16-.37,.23-.57,.32-.58-.44-1.05-1-1.58-1.49-.09-.1-.17-.21-.29-.29-.14-.06-.29-.05-.43-.05-.91,0-1.83,0-2.74,0-.4,0-.81-.03-1.21,.05-.83-.79-1.63-1.61-2.45-2.41-.17-.17-.39-.34-.41-.61-.04-.39,0-.79,0-1.19,0-.15,.02-.32-.1-.43-.17-.19-.44-.26-.69-.25-.73,0-1.46,0-2.19,0-.16,0-.33,0-.49,.05-.55,.25-.8,.92-1.38,1.12-.75,.1-1.52-.07-2.27,.09-.26-.22-.52-.44-.75-.69-.17-.2-.37-.37-.64-.4,.05-.04,.1-.08,.14-.12-.11-.02-.22-.06-.33-.05-.17,.07-.3,.21-.43,.33-.84,.85-1.69,1.69-2.53,2.53-.25,.23-.28,.58-.23,.9,.04,.54,.03,1.07,.02,1.61-.06,.21-.16,.42-.32,.57-1.42,1.4-2.8,2.85-4.24,4.24-.27,.24-.6,.57-.47,.97,.36,.5,.87,.87,1.27,1.34,.14,.17,.14,.4,.14,.61-.01,1.37,0,2.74,0,4.1,0,.25-.01,.5,.02,.74,.04,.29,.24,.51,.44,.71,.92,.91,1.82,1.82,2.74,2.73,.19,.19,.42,.39,.7,.39,1.25,.02,2.51-.02,3.75,.02,.25-.01,.28,.26,.29,.45-.57,.44-1.01,1.01-1.55,1.49-.29,.26-.72,.13-1.05,.3-.07-.05-.14-.09-.22-.14,.29-.32,.61-.61,.91-.92,.1-.09,.11-.22,.12-.35-1.35-.06-2.71,.02-4.06-.05-.2-.17-.4-.34-.58-.53-.98-.98-1.96-1.96-2.94-2.94-.26-.27-.57-.51-.71-.86-.09-.2-.1-.41-.1-.63,.01-1.85,0-3.69,0-5.54-.01-.23,.02-.51-.16-.69-.3-.34-.67-.61-.94-.97-.2-.25-.2-.62-.04-.89,.18-.31,.47-.53,.72-.79,1.49-1.5,2.99-2.98,4.49-4.47,.16-.17,.35-.35,.35-.6,.03-.64-.02-1.28,0-1.92,.01-.34,.19-.64,.43-.86,.89-.87,1.75-1.76,2.64-2.62,.17-.16,.36-.37,.62-.35,.22,0,.39,.15,.54,.29,.39,.39,.76,.79,1.17,1.17,.22,.21,.55,.18,.83,.19,.38,0,.76,.02,1.14-.03,.21-.02,.36-.18,.5-.31,.35-.36,.7-.71,1.05-1.07,.19-.2,.43-.34,.69-.43Z"/><path class="cls-12" d="M484.34,153.17c.36-.27,.84-.14,1.25-.16-.09,.42-.2,.83-.32,1.24-.46,.11-.97,.04-1.44,.02,.11-.38,.15-.85,.51-1.1Z"/><path class="cls-12" d="M486.69,153.13c.37-.21,.81-.1,1.21-.12-.11,.42-.23,.85-.34,1.27-.47,.03-.95,.03-1.42,0,.08-.42,.16-.91,.55-1.16Z"/><path class="cls-12" d="M494.29,153c-.47,0-.95,0-1.42,0-.34,1.36-.72,2.72-1.08,4.08-.22,.86-.48,1.71-.67,2.58,.85,0,1.69,0,2.54,0,.65,.01,1.33-.25,1.72-.8,.38-.47,.46-1.09,.62-1.65,.1-.38,.23-.76,.26-1.16,.03-.39-.12-.83-.5-1.01-.59-.3-1.27-.14-1.9-.2,.06-.64,.34-1.22,.43-1.85Zm-.24,3.01c.18,0,.36,.02,.52,.09,.21,.09,.18,.37,.14,.56-.12,.44-.23,.89-.37,1.32-.08,.29-.34,.52-.64,.54-.28,.02-.56,0-.85,.01,0-.19,.07-.37,.12-.55,.18-.65,.35-1.3,.53-1.95,.18,0,.36-.01,.54-.01Z"/><path class="cls-12" d="M516.25,153.16c.36-.26,.84-.12,1.26-.15-.09,.43-.23,.84-.34,1.27-.47,.03-.95,.03-1.42,0,.08-.4,.15-.85,.5-1.12Z"/><path class="cls-12" d="M477.95,154.86c.88,.02,1.77,0,2.65,.01,.37,.03,.79,.12,1.02,.44,.24,.33,.21,.77,.13,1.15-.26,1.07-.57,2.13-.84,3.2-.47,.01-.94,0-1.41,0,.19-.9,.46-1.78,.68-2.67,.06-.27,.24-.63,0-.86-.34-.2-.75-.09-1.13-.11-.32,1.21-.65,2.42-.97,3.64-.47,.02-.95,0-1.42,.01,.04-.29,.13-.56,.2-.84,.36-1.32,.69-2.65,1.07-3.96Z"/><path class="cls-12" d="M483.42,154.86c.47,0,.94,0,1.41,0-.25,1.02-.55,2.03-.8,3.05-.07,.21-.02,.52,.23,.57,.32,.06,.66,.02,.99,.02,.34-1.21,.65-2.43,.99-3.65,.47,0,.94,0,1.41,0-.05,.37-.18,.71-.27,1.07-.33,1.25-.66,2.49-.99,3.74-.83,.01-1.67,0-2.5,0-.37,0-.77-.05-1.06-.29-.34-.3-.38-.8-.28-1.21,.2-.85,.44-1.69,.67-2.54,.06-.26,.12-.51,.21-.76Z"/><path class="cls-12" d="M510.83,154.86c-.83,0-1.65,0-2.48,0-.61,0-1.27,.19-1.67,.68-.43,.46-.54,1.11-.7,1.7-.11,.48-.32,.97-.19,1.47,.08,.4,.46,.67,.85,.72,.51,.08,1.03,0,1.55,.05-.05,.42-.43,.75-.85,.76-.58,.02-1.16,0-1.74,0-.11,.4-.23,.79-.31,1.19,.39,.03,.78,0,1.16,.02,.73,0,1.52,.05,2.17-.37,.59-.37,.87-1.05,1.03-1.7,.37-1.36,.73-2.73,1.1-4.09,.04-.15,.08-.3,.09-.45Zm-2.31,1.15c.2,0,.4,.01,.59,0-.13,.69-.36,1.35-.53,2.03-.04,.11-.05,.3-.22,.28-.32,0-.67,.06-.97-.08-.25-.22-.09-.58-.03-.85,.14-.44,.16-.99,.58-1.27,.18-.09,.37-.12,.57-.12Z"/><path class="cls-12" d="M518.24,154.87c.79,0,1.57,0,2.36,0,.43,0,.92,.03,1.25,.35,.32,.34,.31,.84,.21,1.26-.28,1.06-.57,2.12-.85,3.19-.48,0-.95,0-1.43,0,.25-1.05,.57-2.08,.81-3.14,.06-.21-.08-.46-.3-.49-.3-.05-.61-.02-.92-.02-.34,1.21-.65,2.44-.99,3.65-.47,0-.95,.01-1.42,0,.4-1.6,.85-3.2,1.27-4.8Z"/><path class="cls-12" d="M489.63,155.05c.6-.26,1.27-.18,1.91-.18-.07,.42-.2,.82-.3,1.23-.38,.03-.8-.08-1.13,.16-.26,.18-.3,.52-.38,.8-.23,.86-.46,1.72-.69,2.59-.47,.02-.94,0-1.41,0,.04-.3,.13-.59,.21-.88,.22-.78,.41-1.58,.63-2.36,.18-.59,.58-1.13,1.16-1.37Z"/><path class="cls-12" d="M496.98,157.74c.27-.96,.5-1.92,.77-2.87,.47,0,.94,0,1.41,0-.24,1.07-.58,2.11-.82,3.18-.04,.2,.1,.43,.32,.45,.31,.03,.62,.01,.93,.01,.32-1.21,.65-2.43,.97-3.64,.47,0,.94,0,1.41,0-.38,1.6-.84,3.19-1.25,4.78-.85,.03-1.71,0-2.56,.01-.44,.01-.94-.11-1.19-.5-.25-.44-.13-.97,0-1.43Z"/><path class="cls-12" d="M504.08,155.01c.58-.2,1.21-.14,1.81-.14-.09,.41-.22,.82-.31,1.23-.36,.03-.76-.07-1.09,.13-.26,.16-.34,.47-.41,.74-.2,.82-.45,1.62-.64,2.44-.04,.08-.03,.26-.16,.25-.45,0-.89,0-1.34,0,.31-1.12,.58-2.24,.91-3.36,.19-.58,.64-1.1,1.23-1.3Z"/><path class="cls-12" d="M512.59,155.17c.65-.38,1.44-.31,2.16-.3-.08,.42-.21,.83-.32,1.24-.32,.01-.66-.04-.97,.06-.29,.13-.42,.45-.49,.74-.23,.92-.49,1.83-.73,2.75-.47,0-.95,0-1.42,0,.25-1.05,.54-2.08,.82-3.12,.13-.55,.47-1.06,.95-1.37Z"/><path class="cls-12" d="M514.31,159.66c.41-1.6,.84-3.2,1.28-4.8,.46,0,.93,0,1.39,0-.04,.27-.11,.53-.19,.79-.34,1.32-.7,2.64-1.05,3.96l-.03,.03c-.47,.02-.94,0-1.4,0Z"/><path class="cls-12" d="M525.45,154.87c-.37,0-.74,.03-1.08,.18-.4,.17-.72,.48-.94,.84-.27,.46-.34,1-.49,1.5-.13,.45-.28,.93-.14,1.4,.09,.34,.41,.56,.74,.64,.54,.1,1.1,0,1.64,.07-.06,.43-.46,.77-.9,.76-.56,0-1.11,0-1.66,0-.16,.38-.24,.8-.34,1.2,.67,.02,1.35,.02,2.02,0,.59-.02,1.22-.17,1.63-.6,.49-.5,.64-1.19,.82-1.84,.36-1.38,.75-2.75,1.09-4.14-.8,0-1.6,0-2.39,0Zm.11,1.14c.19,0,.38,.01,.56,0-.19,.77-.41,1.53-.62,2.3-.29,.03-.58,.03-.87,.01-.18-.01-.37-.15-.37-.35,0-.36,.15-.7,.23-1.05,.08-.32,.19-.69,.53-.83,.18-.07,.36-.09,.54-.09Z"/><path class="cls-5" d="M481.51,161.75c.19-.07,.4-.03,.59-.04,.56,.02,1.12-.04,1.67,.04-1.09,1.15-2.25,2.22-3.36,3.35-1.21,1.18-2.4,2.38-3.6,3.58-.15,.17-.37,.23-.59,.22-1.23,0-2.47,0-3.7,0-.29,.01-.54-.16-.76-.33,0,.09,0,.18-.01,.27-.05-.43,0-.87-.02-1.3,.01-.33-.03-.66,.03-.98,.16-.22,.47-.12,.7-.14,.51,.04,1.03-.07,1.53,.06,.02,.25,.05,.5,.07,.76,.47,.06,.93,.02,1.4,.03,.21,0,.46,.03,.61-.14,1.04-1.04,2.07-2.08,3.11-3.11,.59-.55,1.15-1.13,1.72-1.7,.2-.19,.37-.41,.6-.57Z"/><path class="cls-5" d="M470.3,164.15c.33-.1,.67-.07,1.01-.07-.06,.1-.12,.2-.19,.3,.1,.03,.19,.07,.28,.11h-.07c-.1-.02-.21-.04-.31-.05-.39,.33-.72,.71-1.09,1.06-.17,.17-.36,.33-.49,.53-.08,.13-.05,.3-.05,.44-.02,1.33,0,2.65-.01,3.98-.82,.79-1.61,1.6-2.41,2.4-.15,.16-.39,.41-.18,.61,.2,.13,.45,.09,.68,.1,.59-.01,1.19,.01,1.78,0,.32,0,.57-.21,.83-.37,.12,.16,.13,.35,.14,.55-.5,.45-.96,.94-1.44,1.41-.29,.28-.55,.62-.93,.78-.34,.14-.71,.11-1.07,.11-.91-.01-1.83-.01-2.74,0-.25,.01-.48-.09-.7-.2,.01-.18-.02-.39,.08-.55,.16-.24,.39-.43,.6-.63,.88-.88,1.78-1.73,2.63-2.64,.22-.19,.17-.5,.18-.76-.02-1.09,0-2.19-.01-3.28,0-.22,0-.46,.15-.63,.18-.23,.41-.41,.61-.62,.67-.67,1.35-1.34,2.02-2.02,.21-.21,.41-.45,.7-.54Z"/></g></g><text class="cls-3" transform="translate(2.59 453.2)"><tspan x="0" y="0">300Km</tspan><tspan x="0" y="17">3h Drive time</tspan></text><text class="cls-3" transform="translate(1.93 397.64)"><tspan x="0" y="0">200Km</tspan><tspan x="0" y="17">2h Drive time</tspan></text><polyline class="cls-14" points="284.72 304.46 165.83 423.36 0 423.36"/><polyline class="cls-14" points="202.11 442.41 165.83 478.69 0 478.69"/><circle class="cls-2" cx="279.46" cy="61.38" r="7.09"/><circle class="cls-2" cx="390.75" cy="59.93" r="7.09"/><circle class="cls-2" cx="227.06" cy="31.28" r="7.09"/><circle class="cls-2" cx="175.51" cy="88.54" r="7.09"/><circle class="cls-2" cx="252.76" cy="257.54" r="7.09"/><circle class="cls-2" cx="424.24" cy="274.86" r="7.09"/><circle class="cls-2" cx="613.4" cy="222.94" r="7.09"/><circle class="cls-2" cx="553.46" cy="237.82" r="7.38"/><circle class="cls-2" cx="543.81" cy="123.32" r="7.09"/><circle class="cls-2" cx="489.18" cy="44.03" r="7.09"/><circle class="cls-2" cx="645.81" cy="163.55" r="7.09"/><ellipse class="cls-2" cx="469.42" cy="199.09" rx="7.27" ry="6.7"/><circle class="cls-2" cx="426.9" cy="338.75" r="7.09"/><circle class="cls-2" cx="549.27" cy="348.35" r="7.09"/><circle class="cls-2" cx="329.91" cy="499.32" r="7.09"/><circle class="cls-2" cx="559.71" cy="482.11" r="7.09"/><circle class="cls-2" cx="116.13" cy="308.21" r="12.04"/><circle class="cls-2" cx="112.13" cy="176.87" r="7.09"/><circle class="cls-2" cx="670.88" cy="336.1" r="7.09"/><text class="cls-7" transform="translate(218.33 64.11)"><tspan x="0" y="0">Brussels</tspan></text><text class="cls-7" transform="translate(184.15 34.14)"><tspan x="0" y="0">Gand</tspan></text><text class="cls-7" transform="translate(141.79 91.93)"><tspan x="0" y="0">Lille</tspan></text><text class="cls-7" transform="translate(206.48 261.04)"><tspan x="0" y="0">Reims</tspan></text><text class="cls-7" transform="translate(384.09 278.48)"><tspan x="0" y="0">Metz</tspan></text><text class="cls-7" transform="translate(624.28 226.17)"><tspan x="0" y="0">Mannheim</tspan></text><text class="cls-7" transform="translate(458.22 240.72)"><tspan x="0" y="0">Kaiserslautern</tspan></text><text class="cls-7" transform="translate(554.57 126.85)"><tspan x="0" y="0">Koblenz</tspan></text><text class="cls-7" transform="translate(499.78 46.88)"><tspan x="0" y="0">Cologne</tspan></text><text class="cls-7" transform="translate(657.48 166.58)"><tspan x="0" y="0">Frankfurt</tspan></text><text class="cls-8" transform="translate(479.48 202.93) scale(1.09 1)"><tspan x="0" y="0">Trier</tspan></text><text class="cls-7" transform="translate(380.66 342.37)"><tspan x="0" y="0">Nancy</tspan></text><text class="cls-7" transform="translate(474.37 351.35)"><tspan x="0" y="0">Strasbourg</tspan></text><text class="cls-7" transform="translate(342.66 504.1)"><tspan x="0" y="0">Dijon</tspan></text><text class="cls-7" transform="translate(568.5 485.84)"><tspan x="0" y="0">Zurich</tspan></text><text class="cls-7" transform="translate(69.53 311.88)"><tspan x="0" y="0">Paris</tspan></text><text class="cls-7" transform="translate(59 180.25)"><tspan x="0" y="0">Amiens</tspan></text><text class="cls-7" transform="translate(680.7 340.36)"><tspan x="0" y="0">Stuttgart</tspan></text><text class="cls-7" transform="translate(317.73 63.38)"><tspan x="0" y="0">Maastricht</tspan></text><text class="cls-6" transform="translate(375.65 201.2)"><tspan x="0" y="0">Luxembourg</tspan></text><g><circle class="cls-2" cx="413.29" cy="223.5" r="17.66"/><path class="cls-5" d="M420.68,227.98l-4.48-4.48,4.48-4.48c.53-.53,.85-1.19,.91-1.85,.07-.85-.23-1.69-.83-2.29-.6-.6-1.43-.9-2.29-.83-.66,.06-1.32,.38-1.85,.91l-4.48,4.48-5.4-5.4-1.77,1.77,5.56,5.56c.43,.43,1,.67,1.61,.67h0c.61,0,1.18-.24,1.61-.67l4.73-4.73c.14-.14,.37-.14,.51,0,.14,.14,.14,.37,0,.51l-4.67,4.67c-.44,.44-.69,1.04-.69,1.67h0c0,.63,.24,1.22,.69,1.67l4.67,4.67c.14,.14,.14,.37,0,.51-.14,.14-.37,.14-.51,0l-4.73-4.73c-.43-.43-1-.67-1.61-.67h0c-.61,0-1.18,.24-1.61,.67l-5.56,5.56,1.77,1.77,5.4-5.4,4.48,4.48c.53,.53,1.19,.85,1.85,.91,.86,.07,1.69-.23,2.29-.83,.6-.6,.9-1.43,.83-2.29-.06-.67-.38-1.32-.91-1.85Z"/></g></g></g></svg>